SplineFontDB: 3.2
FontName: Kojiro-Regular
FullName: Kojiro Regular
FamilyName: Kojiro
Weight: Regular
Copyright: Copyright 2017-2024 Adobe (http://www.adobe.com/), with Reserved Font Name 'Source'. Source is a trademark of Adobe in the United States and/or other countries.
Version: 1.000
ItalicAngle: 0
UnderlinePosition: -100
UnderlineWidth: 50
Ascent: 880
Descent: 120
InvalidEm: 0
LayerCount: 2
Layer: 0 0 "+gMyXYgAA" 1
Layer: 1 0 "+Uk2XYgAA" 0
HasVMetrics: 1
XUID: [1021 383 -810783533 10385750]
BaseHoriz: 4 'icfb' 'icft' 'ideo' 'romn'
BaseScript: 'DFLT' 2  -76 836 -120 0
BaseScript: 'cyrl' 3  -76 836 -120 0
BaseScript: 'grek' 3  -76 836 -120 0
BaseScript: 'hang' 2  -76 836 -120 0
BaseScript: 'hani' 2  -76 836 -120 0
BaseScript: 'kana' 2  -76 836 -120 0
BaseScript: 'latn' 3  -76 836 -120 0
BaseVert: 4 'icfb' 'icft' 'ideo' 'romn'
BaseScript: 'DFLT' 2  44 956 0 120
BaseScript: 'cyrl' 3  44 956 0 120
BaseScript: 'grek' 3  44 956 0 120
BaseScript: 'hang' 2  44 956 0 120
BaseScript: 'hani' 2  44 956 0 120
BaseScript: 'kana' 2  44 956 0 120
BaseScript: 'latn' 3  44 956 0 120
StyleMap: 0x0000
FSType: 0
OS2Version: 0
OS2_WeightWidthSlopeOnly: 0
OS2_UseTypoMetrics: 0
CreationTime: 1747654134
ModificationTime: 1747660018
PfmFamily: 17
TTFWeight: 300
TTFWidth: 5
LineGap: 0
VLineGap: 0
Panose: 2 2 3 0 0 0 0 0 0 0
OS2TypoAscent: 880
OS2TypoAOffset: 0
OS2TypoDescent: -120
OS2TypoDOffset: 0
OS2TypoLinegap: 0
OS2WinAscent: 1151
OS2WinAOffset: 0
OS2WinDescent: 286
OS2WinDOffset: 0
HheadAscent: 1151
HheadAOffset: 0
HheadDescent: -286
HheadDOffset: 0
OS2SubXSize: 650
OS2SubYSize: 600
OS2SubXOff: 0
OS2SubYOff: 75
OS2SupXSize: 650
OS2SupYSize: 600
OS2SupXOff: 0
OS2SupYOff: 350
OS2StrikeYSize: 50
OS2StrikeYPos: 308
OS2CapHeight: 729
OS2XHeight: 514
OS2Vendor: 'ADBO'
OS2CodePages: 602e0107.00000000
OS2UnicodeRanges: 30000083.2bdf3c10.00000016.00000000

StartChar: .notdef
Encoding: 0 -1 0
Width: 1000
GlyphClass: 1
Flags: MW
HStem: -120 50<182 818 182 900> 789 91<150 150 850 850> 830 50<182 818 182 182>
VStem: 100 50<-29 789 -29 880> 850 50<-29 789 789 789>
LayerCount: 2
Fore
SplineSet
100 -120 m 1xb8
 100 880 l 1
 900 880 l 1
 900 -120 l 1
 100 -120 l 1xb8
500 421 m 1
 818 830 l 1
 182 830 l 1
 500 421 l 1
532 380 m 1
 850 -29 l 1
 850 789 l 1xd8
 532 380 l 1
182 -70 m 1
 818 -70 l 1
 500 339 l 1
 182 -70 l 1
150 789 m 1
 150 -29 l 1
 468 380 l 1
 150 789 l 1
EndSplineSet
Validated: 1
EndChar

StartChar: exclam
Encoding: 2 33 2
Width: 298
GlyphClass: 1
Flags: MW
HStem: -12 106<133.5 165>
VStem: 95 109<27 56.5> 131 36.5
LayerCount: 2
Fore
SplineSet
149 -12 m 0xc0
 118 -12 95 12 95 42 c 0
 95 71 118 94 149 94 c 0
 181 94 204 71 204 42 c 0
 204 12 181 -12 149 -12 c 0xc0
149 745 m 0xa0
 177 745 195 728 195 693 c 0
 195 640 185 556 173 414 c 1
 162 210 l 1
 136 210 l 1
 126 414 l 1
 113 556 104 640 104 693 c 0
 104 728 121 745 149 745 c 0xa0
EndSplineSet
Validated: 1
EndChar

StartChar: quotedbl
Encoding: 3 34 3
Width: 360
GlyphClass: 1
Flags: MW
HStem: 482 320<81 106 80 106.5 81 254 254 280>
VStem: 53 81<731 768> 226 82<731 768>
CounterMasks: 1 60
LayerCount: 2
Fore
SplineSet
94 802 m 0
 119 802 134 786 134 750 c 0
 134 712 123 645 119 591 c 2
 106 482 l 1
 80 482 l 1
 68 591 l 2
 63 645 53 712 53 750 c 0
 53 786 68 802 94 802 c 0
267 802 m 0
 293 802 308 786 308 750 c 0
 308 712 297 645 293 591 c 2
 280 482 l 1
 254 482 l 1
 241 591 l 2
 237 645 226 712 226 750 c 0
 226 786 241 802 267 802 c 0
EndSplineSet
Validated: 1
EndChar

StartChar: numbersign
Encoding: 4 35 4
Width: 565
GlyphClass: 1
Flags: MW
HStem: 0 21G<101 134 101 101 321 356 321 321> 208 59<25 132 25 141 175 353 25 166 396 506> 449 60<61 168 61 177 61 202 211 390 433 542>
VStem: 25 517<208 509 267 509>
CounterMasks: 1 60
LayerCount: 2
Fore
SplineSet
321 0 m 1
 353 208 l 1
 166 208 l 1
 134 0 l 1
 101 0 l 1
 132 208 l 1
 25 208 l 1
 25 267 l 1
 141 267 l 1
 168 449 l 1
 61 449 l 1
 61 509 l 1
 177 509 l 1
 206 703 l 1
 241 703 l 1
 211 509 l 1
 399 509 l 1
 429 703 l 1
 462 703 l 1
 433 509 l 1
 542 509 l 1
 542 449 l 1
 424 449 l 1
 396 267 l 1
 506 267 l 1
 506 208 l 1
 387 208 l 1
 356 0 l 1
 321 0 l 1
175 267 m 1
 362 267 l 1
 390 449 l 1
 202 449 l 1
 175 267 l 1
EndSplineSet
Validated: 1
EndChar

StartChar: dollar
Encoding: 5 36 5
Width: 541
GlyphClass: 1
Flags: MW
HStem: -14 31<262 262> -13 32<295 295> 680 34<263 263> 682 33<296 296>
VStem: 80 60<513 586> 262 33<-125 -14 -14 -14 -125 19 19 311> 423 62<119 192>
CounterMasks: 1 0e
LayerCount: 2
Fore
SplineSet
262 -125 m 1x9e
 262 -14 l 1
 144 -13 72 44 56 136 c 1
 62 157 75 166 94 166 c 0
 116 166 133 157 139 123 c 2
 159 40 l 1
 190 24 222 18 262 17 c 1
 262 324 l 1x9e
 243 332 l 2
 135 377 80 436 80 533 c 0
 80 639 158 706 263 714 c 1xae
 263 815 l 1
 296 815 l 1
 296 715 l 1
 394 711 467 656 482 565 c 1
 478 544 463 533 445 533 c 0
 425 533 406 544 397 580 c 2
 377 664 l 1
 350 677 325 681 296 682 c 1x9e
 296 389 l 1
 303 386 l 2
 448 327 485 258 485 173 c 0
 485 65 405 -3 295 -13 c 1x5e
 295 -125 l 1
 262 -125 l 1x9e
295 311 m 1
 295 19 l 1x5e
 372 28 423 79 423 158 c 0
 423 226 394 267 295 311 c 1
263 401 m 1xae
 263 680 l 1
 190 672 140 626 140 547 c 0
 140 479 179 436 263 401 c 1xae
EndSplineSet
Validated: 1
EndChar

StartChar: percent
Encoding: 6 37 6
Width: 914
GlyphClass: 1
Flags: MW
HStem: -10 26<702 745.5 702 761> 291 25<169 213 169 228> 409 26<702 745.5> 705 20G<697 697> 709 26<169 213>
VStem: 45 60<435 589.5 435 591.5> 277 58<435 589> 579 58<135.5 289.5 135.5 291.5> 810 58<135.5 289.5>
CounterMasks: 2 a6 0180
LayerCount: 2
Fore
SplineSet
191 291 m 0xef80
 116 291 45 355 45 512 c 0
 45 671 116 735 191 735 c 0
 265 735 335 671 335 512 c 0
 335 355 265 291 191 291 c 0xef80
191 316 m 0
 235 316 277 358 277 512 c 0
 277 666 235 709 191 709 c 0
 147 709 105 667 105 512 c 0
 105 358 147 316 191 316 c 0
724 -10 m 0
 648 -10 579 55 579 213 c 0
 579 370 648 435 724 435 c 0
 798 435 868 370 868 213 c 0
 868 55 798 -10 724 -10 c 0
724 16 m 0
 767 16 810 58 810 213 c 0
 810 366 767 409 724 409 c 0
 680 409 637 366 637 213 c 0
 637 58 680 16 724 16 c 0
215 -27 m 1
 190 -9 l 1
 697 725 l 1xf780
 722 707 l 1
 215 -27 l 1
EndSplineSet
Validated: 1
EndChar

StartChar: ampersand
Encoding: 7 38 7
Width: 773
GlyphClass: 1
Flags: MW
HStem: -14 48<232.5 318> -10 40 424 33 711 28<263 324>
VStem: 44 66<158.5 229> 125 57<581 634.5 581 636> 394 55<569 637.5> 519 212<429 457>
CounterMasks: 2 69 06
LayerCount: 2
Fore
SplineSet
659 -10 m 0x7b
 608 -10 577 0 548 29 c 2x7a
 491 92 l 1
 441 32 370 -14 266 -14 c 0
 129 -14 44 75 44 182 c 0xba
 44 276 96 347 214 407 c 1
 195 429 l 2
 146 485 125 534 125 589 c 0
 125 683 198 739 294 739 c 0
 396 739 449 681 449 604 c 0
 449 523 389 470 287 415 c 1
 377 315 l 1
 518 164 l 1
 569 240 594 312 611 419 c 1
 519 429 l 1
 519 457 l 1
 731 457 l 1xbf
 731 429 l 1
 651 420 l 1
 627 302 599 230 536 144 c 1
 640 35 l 1
 731 25 l 1
 730 -1 l 1
 704 -6 682 -10 659 -10 c 0x7b
271 434 m 1xbe
 346 486 394 533 394 605 c 0
 394 670 355 711 293 711 c 0
 233 711 182 667 182 602 c 0
 182 560 192 528 236 475 c 2
 271 434 l 1xbe
473 112 m 1
 336 265 l 1
 231 389 l 1
 146 335 110 271 110 203 c 0xba
 110 114 178 34 287 34 c 0
 363 34 423 59 473 112 c 1
EndSplineSet
Validated: 1
EndChar

StartChar: quotesingle
Encoding: 8 39 8
Width: 187
GlyphClass: 1
Flags: MW
HStem: 482 320<81 106 80 106.5>
VStem: 53 81<731 768>
LayerCount: 2
Fore
SplineSet
94 802 m 0
 119 802 134 786 134 750 c 0
 134 712 123 645 119 591 c 2
 106 482 l 1
 80 482 l 1
 68 591 l 2
 63 645 53 712 53 750 c 0
 53 786 68 802 94 802 c 0
EndSplineSet
Validated: 1
EndChar

StartChar: parenleft
Encoding: 9 40 9
Width: 356
GlyphClass: 1
Flags: MW
HStem: -202 21G<329 329>
VStem: 93 63<207.5 394 207.5 400>
LayerCount: 2
Fore
SplineSet
156 301 m 0
 156 114 197 -17 329 -202 c 1
 310 -218 l 1
 162 -60 93 102 93 301 c 0
 93 499 162 661 310 819 c 1
 329 803 l 1
 196 617 156 487 156 301 c 0
EndSplineSet
Validated: 1
EndChar

StartChar: parenright
Encoding: 10 41 10
Width: 356
GlyphClass: 1
Flags: MW
HStem: -202 21G<28 28>
VStem: 201 63<207.5 394>
LayerCount: 2
Fore
SplineSet
201 301 m 0
 201 487 159 618 28 803 c 1
 46 819 l 1
 195 661 264 499 264 301 c 0
 264 102 195 -60 46 -218 c 1
 28 -202 l 1
 161 -16 201 114 201 301 c 0
EndSplineSet
Validated: 1
EndChar

StartChar: asterisk
Encoding: 11 42 11
Width: 476
GlyphClass: 1
Flags: MW
HStem: 615 63
VStem: 207 65<766.5 788 766.5 788>
LayerCount: 2
Fore
SplineSet
229 598 m 1
 220 659 l 2
 213 714 207 755 207 777 c 0
 207 799 219 812 239 812 c 0
 258 812 272 799 272 777 c 0
 272 756 263 713 257 659 c 2
 247 598 l 1
 303 626 l 2
 353 650 389 668 411 675 c 0
 432 681 448 673 455 656 c 0
 459 636 451 620 430 614 c 0
 411 607 368 601 314 591 c 2
 253 581 l 1
 297 536 l 2
 335 499 364 467 377 450 c 0
 389 432 387 414 371 402 c 0
 356 390 338 393 324 412 c 0
 313 429 294 468 268 516 c 2
 239 571 l 1
 211 515 l 2
 185 467 165 430 152 412 c 0
 139 393 120 390 106 402 c 0
 90 414 87 432 100 450 c 0
 113 467 144 498 182 536 c 2
 224 580 l 1
 163 591 l 2
 109 600 68 607 46 615 c 0
 26 620 17 636 23 656 c 0
 29 674 45 682 67 675 c 0
 87 668 126 649 174 624 c 2
 229 598 l 1
EndSplineSet
Validated: 33
EndChar

StartChar: plus
Encoding: 12 43 12
Width: 575
GlyphClass: 1
Flags: MW
HStem: 339 40<39 265 39 265 309 537>
VStem: 265 44<95 339 95 339 379 617>
LayerCount: 2
Fore
SplineSet
537 339 m 1
 309 339 l 1
 309 95 l 1
 265 95 l 1
 265 339 l 1
 39 339 l 1
 39 379 l 1
 265 379 l 1
 265 617 l 1
 309 617 l 1
 309 379 l 1
 537 379 l 1
 537 339 l 1
EndSplineSet
Validated: 1
EndChar

StartChar: comma
Encoding: 13 44 13
Width: 325
GlyphClass: 1
Flags: MW
HStem: -174 271<76 169>
VStem: 108 111<-26 59.5>
LayerCount: 2
Fore
SplineSet
76 -174 m 1
 65 -147 l 1
 127 -115 160 -86 174 -29 c 1
 145 -11 l 2
 120 5 108 22 108 45 c 0
 108 74 127 97 160 97 c 0
 178 97 195 93 210 77 c 1
 216 59 219 43 219 20 c 0
 219 -72 163 -136 76 -174 c 1
EndSplineSet
Validated: 1
EndChar

StartChar: hyphen
Encoding: 14 45 14
AltUni2: 0000ad.ffffffff.0 002011.ffffffff.0
Width: 340
GlyphClass: 1
Flags: MW
HStem: 240 48<43 297 43 297>
VStem: 43 254<240 288 240 288>
LayerCount: 2
Fore
SplineSet
43 240 m 1
 43 288 l 1
 297 288 l 1
 297 240 l 1
 43 240 l 1
EndSplineSet
Validated: 1
EndChar

StartChar: period
Encoding: 15 46 15
Width: 325
GlyphClass: 1
Flags: MW
HStem: -14 113<145.5 178.5>
VStem: 105 114<27 58>
LayerCount: 2
Fore
SplineSet
162 -14 m 0
 129 -14 105 12 105 42 c 0
 105 74 129 99 162 99 c 0
 195 99 219 74 219 42 c 0
 219 12 195 -14 162 -14 c 0
EndSplineSet
Validated: 1
EndChar

StartChar: slash
Encoding: 16 47 16
Width: 342
GlyphClass: 1
Flags: MW
HStem: -173 21G<5 5 5 48>
VStem: 5 332
LayerCount: 2
Fore
SplineSet
5 -173 m 1
 296 767 l 1
 337 767 l 1
 48 -173 l 1
 5 -173 l 1
EndSplineSet
Validated: 1
EndChar

StartChar: zero
Encoding: 17 48 17
Width: 549
GlyphClass: 1
Flags: MW
HStem: -14 30<235.5 312.5 235.5 333> 708 32<235.5 312.5>
VStem: 48 73<232 494 232 498> 428 72<232 494>
CounterMasks: 1 30
LayerCount: 2
Fore
SplineSet
274 -14 m 0
 157 -14 48 93 48 364 c 0
 48 632 157 740 274 740 c 0
 392 740 500 632 500 364 c 0
 500 93 392 -14 274 -14 c 0
274 16 m 0
 351 16 428 100 428 364 c 0
 428 624 351 708 274 708 c 0
 197 708 121 624 121 364 c 0
 121 100 197 16 274 16 c 0
EndSplineSet
Validated: 1
EndChar

StartChar: one
Encoding: 18 49 18
Width: 472
GlyphClass: 1
Flags: MW
HStem: 0 34 715 20G<281 281>
VStem: 222 70<229 567 229 677>
LayerCount: 2
Fore
SplineSet
219 0 m 1
 79 0 l 1
 79 27 l 1
 220 41 l 1
 222 229 l 1
 222 677 l 1
 74 651 l 1
 74 681 l 1
 281 735 l 1
 296 724 l 1
 292 567 l 1
 292 229 l 1
 294 41 l 1
 426 27 l 1
 426 0 l 1
 219 0 l 1
EndSplineSet
Validated: 1
EndChar

StartChar: two
Encoding: 19 50 19
Width: 551
GlyphClass: 1
Flags: MW
HStem: 0 62<64 504 115 504 115 504> 709 31<239.5 299>
VStem: 398 74<510 603>
LayerCount: 2
Fore
SplineSet
64 0 m 1
 64 48 l 1
 132 129 200 211 249 268 c 0
 355 397 398 467 398 553 c 0
 398 653 345 709 253 709 c 0
 226 709 200 704 171 692 c 1
 147 608 l 2
 138 573 124 561 103 561 c 0
 85 561 71 571 65 590 c 1
 83 689 175 740 273 740 c 0
 404 740 472 670 472 552 c 0
 472 462 416 390 269 233 c 1
 115 62 l 1
 504 62 l 1
 504 0 l 1
 64 0 l 1
EndSplineSet
Validated: 1
EndChar

StartChar: three
Encoding: 20 51 20
Width: 549
GlyphClass: 1
Flags: MW
HStem: -14 30<218.5 290 218.5 320> 364 34<179 220 220 225 179 220> 709 31<237.5 295>
VStem: 389 74<522 608> 410 74<139 240 126.5 246.5>
CounterMasks: 1 e0
LayerCount: 2
Fore
SplineSet
252 -14 m 0xe8
 144 -14 70 32 47 122 c 1
 54 141 68 151 86 151 c 0
 108 151 120 138 129 105 c 2
 153 31 l 1
 177 21 203 16 234 16 c 0
 346 16 410 86 410 192 c 0xe8
 410 301 348 364 225 364 c 2
 179 364 l 1
 179 398 l 1
 220 398 l 2
 318 398 389 457 389 562 c 0
 389 654 339 709 251 709 c 0
 224 709 199 706 173 696 c 1
 149 623 l 2
 140 592 127 581 104 581 c 0
 88 581 74 588 68 606 c 1
 88 701 174 740 265 740 c 0
 389 740 463 669 463 564 c 0xf0
 463 480 407 408 301 382 c 1
 424 365 484 292 484 188 c 0
 484 65 388 -14 252 -14 c 0xe8
EndSplineSet
Validated: 1
EndChar

StartChar: four
Encoding: 21 52 21
Width: 547
GlyphClass: 1
Flags: MW
HStem: 195 52<76 339 76 339 34 339 405 526> 716 20G<358 405 405 405>
VStem: 339 66<-19 195 -19 195 247 657 657 657> 339 187<-19 247 195 247 195 657>
LayerCount: 2
Fore
SplineSet
339 -19 m 1xe0
 339 195 l 1
 34 195 l 1
 34 237 l 1
 358 736 l 1
 405 736 l 1
 405 247 l 1xe0
 526 247 l 1
 526 195 l 1xd0
 405 195 l 1
 405 -19 l 1
 339 -19 l 1xe0
76 247 m 1
 339 247 l 1
 339 657 l 1
 216 465 l 1
 76 247 l 1
EndSplineSet
Validated: 1
EndChar

StartChar: five
Encoding: 22 53 22
Width: 551
GlyphClass: 1
Flags: MW
HStem: -14 30<217 293 217 320> 398 39<240.5 296.5> 663 62<155 475 155 155>
VStem: 417 76<153 279>
CounterMasks: 1 e0
LayerCount: 2
Fore
SplineSet
243 -14 m 0
 139 -14 65 34 45 123 c 1
 52 140 66 150 84 150 c 0
 106 150 118 139 126 105 c 2
 151 31 l 1
 175 21 200 16 234 16 c 0
 352 16 417 89 417 217 c 0
 417 341 348 398 245 398 c 0
 200 398 161 391 126 374 c 1
 101 382 l 1
 124 725 l 1
 475 725 l 1
 475 663 l 1
 155 663 l 1
 139 414 l 1
 179 431 218 437 263 437 c 0
 403 437 493 362 493 220 c 0
 493 80 397 -14 243 -14 c 0
EndSplineSet
Validated: 1
EndChar

StartChar: six
Encoding: 23 54 23
Width: 551
GlyphClass: 1
Flags: MW
HStem: -14 30<237.5 325.5 237.5 345.5> 399 39<276 330> 720 20G<479 479>
VStem: 58 75<198 280 198 390> 428 72<152 274.5>
CounterMasks: 1 d8
LayerCount: 2
Fore
SplineSet
285 -14 m 0
 143 -14 58 100 58 275 c 0
 58 505 218 708 479 740 c 1
 483 718 l 1
 280 675 165 536 139 359 c 1
 186 412 243 438 309 438 c 0
 429 438 500 350 500 219 c 0
 500 84 406 -14 285 -14 c 0
135 327 m 1
 133 280 l 1
 133 116 189 16 286 16 c 0
 365 16 428 89 428 215 c 0
 428 334 373 399 287 399 c 0
 233 399 185 378 135 327 c 1
EndSplineSet
Validated: 1
EndChar

StartChar: seven
Encoding: 24 55 24
Width: 540
GlyphClass: 1
Flags: MW
HStem: 0 21G<155 155 155 219> 663 62<55 437 55 481>
VStem: 55 426<684 725 684 725 684 725>
LayerCount: 2
Fore
SplineSet
155 0 m 1
 148 6 l 1
 437 663 l 1
 55 663 l 1
 55 725 l 1
 481 725 l 1
 481 684 l 1
 219 0 l 1
 155 0 l 1
EndSplineSet
Validated: 1
EndChar

StartChar: eight
Encoding: 25 56 25
Width: 551
GlyphClass: 1
Flags: MW
HStem: -14 30<226 322 226 338.5> 708 32<240.5 316.5>
VStem: 58 64<121 205> 80 64<544.5 617.5> 403 61<540 611> 427 67<116 193.5>
CounterMasks: 2 24 18
LayerCount: 2
Fore
SplineSet
272 -14 m 0xe4
 134 -14 58 55 58 161 c 0xe4
 58 249 115 309 224 359 c 1
 122 410 80 479 80 564 c 0
 80 671 167 740 277 740 c 0
 394 740 464 670 464 574 c 0xd8
 464 506 427 439 320 387 c 1
 445 328 494 265 494 173 c 0
 494 59 405 -14 272 -14 c 0xe4
296 398 m 1xd8
 371 446 403 498 403 575 c 0
 403 647 358 708 275 708 c 0
 206 708 144 660 144 579 c 0
 144 510 177 449 296 398 c 1xd8
249 348 m 1xe4
 159 296 122 245 122 168 c 0
 122 74 178 16 274 16 c 0
 370 16 427 72 427 157 c 0
 427 230 384 288 249 348 c 1xe4
EndSplineSet
Validated: 1
EndChar

StartChar: nine
Encoding: 26 57 26
Width: 554
GlyphClass: 1
Flags: MW
HStem: -15 21G<105 105> 293 38<241.5 295> 709 31<233 315>
VStem: 55 72<459 580 459 582> 423 74<440 536>
CounterMasks: 1 18
LayerCount: 2
Fore
SplineSet
105 -15 m 1
 97 10 l 1
 284 76 387 197 415 356 c 1
 378 316 326 293 264 293 c 0
 144 293 55 377 55 512 c 0
 55 652 149 740 274 740 c 0
 408 740 497 630 497 450 c 0
 497 235 364 54 105 -15 c 1
420 390 m 1
 422 410 423 430 423 450 c 0
 423 622 358 709 272 709 c 0
 194 709 127 642 127 518 c 0
 127 400 195 331 288 331 c 0
 338 331 383 351 420 390 c 1
EndSplineSet
Validated: 1
EndChar

StartChar: colon
Encoding: 27 58 27
Width: 325
GlyphClass: 1
Flags: MW
HStem: -14 113<145.5 178.5> 383 114<145.5 178.5>
VStem: 105 114<27 58 425 456>
CounterMasks: 1 c0
LayerCount: 2
Fore
SplineSet
162 -14 m 0
 129 -14 105 12 105 42 c 0
 105 74 129 99 162 99 c 0
 195 99 219 74 219 42 c 0
 219 12 195 -14 162 -14 c 0
162 383 m 0
 129 383 105 410 105 440 c 0
 105 472 129 497 162 497 c 0
 195 497 219 472 219 440 c 0
 219 410 195 383 162 383 c 0
EndSplineSet
Validated: 1
EndChar

StartChar: semicolon
Encoding: 28 59 28
Width: 325
GlyphClass: 1
Flags: MW
HStem: 383 114<145.5 178.5>
VStem: 105 114<425 456> 108 111<-26 59.5>
LayerCount: 2
Fore
SplineSet
162 383 m 0xc0
 129 383 105 410 105 440 c 0
 105 472 129 497 162 497 c 0
 195 497 219 472 219 440 c 0
 219 410 195 383 162 383 c 0xc0
76 -174 m 1
 65 -147 l 1
 127 -115 160 -86 174 -29 c 1
 145 -11 l 2
 120 5 108 22 108 45 c 0
 108 74 127 97 160 97 c 0
 178 97 195 93 210 77 c 1
 216 59 219 43 219 20 c 0xa0
 219 -72 163 -136 76 -174 c 1
EndSplineSet
Validated: 1
EndChar

StartChar: less
Encoding: 29 60 29
Width: 575
GlyphClass: 1
Flags: MW
HStem: 96 526<488 488>
VStem: 63 446<131 375 131 375>
LayerCount: 2
Fore
SplineSet
63 344 m 1
 63 375 l 1
 488 622 l 1
 509 587 l 1
 113 359 l 1
 509 131 l 1
 488 96 l 1
 63 344 l 1
EndSplineSet
Validated: 1
EndChar

StartChar: equal
Encoding: 30 61 30
Width: 575
GlyphClass: 1
Flags: MW
HStem: 230 41<39 537 39 537> 447 41<39 537 39 537>
VStem: 39 498<230 271 230 271 447 488 230 488>
CounterMasks: 1 c0
LayerCount: 2
Fore
SplineSet
537 230 m 1
 39 230 l 1
 39 271 l 1
 537 271 l 1
 537 230 l 1
537 447 m 1
 39 447 l 1
 39 488 l 1
 537 488 l 1
 537 447 l 1
EndSplineSet
Validated: 1
EndChar

StartChar: greater
Encoding: 31 62 31
Width: 575
GlyphClass: 1
Flags: MW
HStem: 96 526<87 87>
VStem: 67 445<131 374 343 586>
LayerCount: 2
Fore
SplineSet
512 374 m 1
 512 343 l 1
 87 96 l 1
 67 131 l 1
 463 359 l 1
 67 586 l 1
 87 622 l 1
 512 374 l 1
EndSplineSet
Validated: 1
EndChar

StartChar: question
Encoding: 32 63 32
Width: 423
GlyphClass: 1
Flags: MW
HStem: -12 106<140.5 172>
VStem: 102 109<27 56.5> 121 47<282 337.5> 145 23 326 40<512 555.5>
LayerCount: 2
Fore
SplineSet
156 -12 m 0xc8
 125 -12 102 12 102 42 c 0
 102 71 125 94 156 94 c 0
 188 94 211 71 211 42 c 0
 211 12 188 -12 156 -12 c 0xc8
366 521 m 0
 366 447 334 403 266 371 c 2
 227 352 l 2
 179 328 168 317 168 282 c 2
 170 208 l 1xa8
 145 208 l 1x98
 135 249 l 2
 127 285 121 303 121 321 c 0
 121 354 142 376 201 405 c 1xa8
 247 424 l 1
 307 458 326 487 326 537 c 0
 326 574 313 604 287 632 c 1
 138 653 l 2
 93 660 81 678 81 701 c 0
 81 727 96 739 121 746 c 1
 236 721 366 654 366 521 c 0
EndSplineSet
Validated: 1
EndChar

StartChar: at
Encoding: 33 64 33
Width: 900
GlyphClass: 1
Flags: MW
HStem: -168 30<333 458.5> 56 32<610 674.5> 56 45<374 400> 475 37<449.5 512.5> 684 31<387 600.5>
VStem: 40 43<105 345.5 105 350> 257 61<177 270> 521 53 823 36<276.5 464.5>
CounterMasks: 2 af 0280
LayerCount: 2
Fore
SplineSet
621 56 m 0xdf80
 559 56 522 89 521 147 c 1
 475 88 427 56 373 56 c 0xbf80
 307 56 257 101 257 197 c 0
 257 343 372 512 502 512 c 0
 534 512 560 499 584 471 c 1
 624 506 l 1
 639 496 l 1
 578 183 l 2
 565 118 584 88 636 88 c 0
 720 88 823 186 823 367 c 0
 823 562 692 684 509 684 c 0
 265 684 83 472 83 219 c 0
 83 -9 237 -138 429 -138 c 0
 508 -138 566 -124 623 -95 c 1
 634 -117 l 1
 570 -150 497 -168 420 -168 c 0
 202 -168 40 -33 40 212 c 0
 40 488 242 715 516 715 c 0
 723 715 859 572 859 361 c 0
 859 161 728 56 621 56 c 0xdf80
519 171 m 1xbf80
 570 434 l 1
 551 464 528 475 497 475 c 0
 402 475 318 336 318 214 c 0
 318 140 350 101 398 101 c 0
 431 101 465 115 519 171 c 1xbf80
EndSplineSet
Validated: 33
EndChar

StartChar: A
Encoding: 34 65 34
Width: 712
GlyphClass: 1
Flags: MW
HStem: 0 34 251 31<216 453 216 463 206 453> 712 20G<328 376 376 376>
VStem: 11 695<0 29 29 29>
CounterMasks: 1 c0
LayerCount: 2
Fore
SplineSet
333 647 m 1
 216 282 l 1
 453 282 l 1
 333 647 l 1
420 0 m 1
 420 30 l 1
 532 38 l 1
 463 251 l 1
 206 251 l 1
 138 39 l 1
 235 29 l 1
 235 0 l 1
 11 0 l 1
 11 29 l 1
 98 39 l 1
 328 732 l 1
 376 732 l 1
 610 37 l 1
 706 30 l 1
 706 0 l 1
 420 0 l 1
EndSplineSet
Validated: 1
EndChar

StartChar: B
Encoding: 35 66 35
Width: 662
GlyphClass: 1
Flags: MW
HStem: 0 32<239 333 333 341> 0 34 362 31<237 302 237 302 302 313> 692 33
VStem: 161 76<337 362 298.5 392 393 441> 503 74<514 597> 538 77<144 243.5 144 250>
CounterMasks: 2 7a 0c
LayerCount: 2
Fore
SplineSet
55 696 m 1x7a
 55 725 l 1
 341 725 l 2
 502 725 577 656 577 553 c 0xbc
 577 475 525 405 400 381 c 1
 552 365 615 291 615 196 c 0
 615 92 537 0 341 0 c 2
 55 0 l 1xba
 55 29 l 1
 160 38 l 1
 161 137 161 236 161 337 c 2
 161 392 l 2
 161 490 161 590 160 687 c 1
 55 696 l 1x7a
237 362 m 1
 237 235 237 132 239 32 c 1
 333 32 l 2
 463 32 538 90 538 196 c 0xba
 538 304 469 362 313 362 c 2
 237 362 l 1
239 693 m 1
 237 596 237 497 237 393 c 1
 302 393 l 2
 436 393 503 452 503 553 c 0
 503 641 452 693 319 693 c 2
 239 693 l 1
EndSplineSet
Validated: 1
EndChar

StartChar: C
Encoding: 36 67 36
Width: 688
GlyphClass: 1
Flags: MW
HStem: -15 33<343 450.5 343 459> 706 36<345.5 454.5>
VStem: 58 83<252 471 252 476> 585 41.5 593 42
LayerCount: 2
Fore
SplineSet
419 -15 m 0xe8
 205 -15 58 131 58 361 c 0
 58 591 212 742 419 742 c 0
 499 742 560 724 625 686 c 1
 628 529 l 1
 585 529 l 1
 560 675 l 1xf0
 519 697 479 706 430 706 c 0
 261 706 141 580 141 362 c 0
 141 142 261 18 425 18 c 0
 476 18 522 27 567 51 c 1
 593 196 l 1
 636 196 l 1
 634 40 l 1
 565 -1 499 -15 419 -15 c 0xe8
EndSplineSet
Validated: 1
EndChar

StartChar: D
Encoding: 37 68 37
Width: 766
GlyphClass: 1
Flags: MW
HStem: 0 32<239 326 326 336> 0 33.5 691.5 33.5 693 32<239 338 239 239>
VStem: 161 77<357 384 296 436.5> 625 82<260 470>
CounterMasks: 1 0c
LayerCount: 2
Fore
SplineSet
55 696 m 1x6c
 55 725 l 1
 350 725 l 2
 572 725 707 594 707 362 c 0
 707 139 567 0 336 0 c 2
 55 0 l 1x9c
 55 29 l 1
 160 38 l 1
 161 136 161 238 161 357 c 2
 161 384 l 2
 161 489 161 589 160 687 c 1
 55 696 l 1x6c
239 32 m 1
 326 32 l 2
 524 32 625 158 625 362 c 0
 625 578 523 693 338 693 c 2
 239 693 l 1
 238 594 238 491 238 384 c 2
 238 357 l 2
 238 235 238 133 239 32 c 1
EndSplineSet
Validated: 1
EndChar

StartChar: E
Encoding: 38 69 38
Width: 649
GlyphClass: 1
Flags: MW
HStem: 0 34<239 538 239 597> 0 179<564 597> 351 34<238 420 238 421 238 420> 548 177<547 547 547 580 55 588> 691 34<239 522 239 239>
VStem: 161 77<335 351 385 390 390 439.5> 427 39
CounterMasks: 1 ae
LayerCount: 2
Fore
SplineSet
547 548 m 1xb6
 522 691 l 1
 239 691 l 1
 238 595 238 494 238 385 c 1
 420 385 l 1
 433 489 l 1
 466 489 l 1
 466 249 l 1
 433 249 l 1
 421 351 l 1
 238 351 l 1
 238 232 238 132 239 34 c 1
 538 34 l 1xae
 564 179 l 1
 605 179 l 1x6e
 597 0 l 1
 55 0 l 1
 55 29 l 1
 160 38 l 1
 161 136 161 235 161 335 c 2
 161 390 l 2
 161 490 161 590 160 687 c 1
 55 696 l 1
 55 725 l 1
 580 725 l 1xae
 588 548 l 1
 547 548 l 1xb6
EndSplineSet
Validated: 1
EndChar

StartChar: F
Encoding: 39 70 39
Width: 625
GlyphClass: 1
Flags: MW
HStem: 0 34 351 34<238 422 238 422> 548 177<549 549 549 582 55 589> 691 34<239 524 239 239>
VStem: 161 77<335 351 385 390 390 439.5> 435 34<245 489 245 489> 524 61.5 549 36.5
CounterMasks: 1 dc
LayerCount: 2
Fore
SplineSet
549 548 m 1xed
 524 691 l 1
 239 691 l 1
 238 595 238 494 238 385 c 1
 422 385 l 1
 435 489 l 1
 469 489 l 1
 469 245 l 1
 435 245 l 1
 422 351 l 1
 238 351 l 1
 238 234 238 135 239 39 c 1
 354 29 l 1
 354 0 l 1
 55 0 l 1xde
 55 29 l 1
 160 38 l 1
 161 136 161 235 161 335 c 2
 161 390 l 2
 161 490 161 590 160 687 c 1
 55 696 l 1xdc
 55 725 l 1
 582 725 l 1xdd
 589 548 l 1
 549 548 l 1xed
EndSplineSet
Validated: 1
EndChar

StartChar: G
Encoding: 40 71 40
Width: 737
GlyphClass: 1
Flags: MW
HStem: -15 34<341 455 341 462.5> 312.5 33.5 313 33 706 36<345.5 459>
VStem: 58 83<256.5 470 256.5 475.5> 577 73<52 100 49 101 49 136> 598 41.5
CounterMasks: 1 0c
LayerCount: 2
Fore
SplineSet
454 317 m 1xdc
 454 346 l 1
 726 346 l 1xdc
 726 317 l 1
 652 309 l 1
 651 247 650 180 650 100 c 2
 650 49 l 1xbc
 573 4 506 -15 419 -15 c 0
 203 -15 58 138 58 363 c 0
 58 588 207 742 423 742 c 0
 513 742 576 721 638 683 c 1
 641 526 l 1
 598 526 l 1
 572 669 l 1xda
 529 695 487 706 431 706 c 0
 260 706 141 578 141 362 c 0
 141 151 255 19 427 19 c 0
 483 19 529 29 577 52 c 1
 577 101 l 2
 577 171 576 238 574 308 c 1
 454 317 l 1xdc
EndSplineSet
Validated: 1
EndChar

StartChar: H
Encoding: 41 72 41
Width: 851
GlyphClass: 1
Flags: MW
HStem: 0 34 361 33<238 614 238 614> 692 33
VStem: 161 77<335 361 298 390 394 440> 614 76<298 335 335 361 285 443.5>
CounterMasks: 1 f8
LayerCount: 2
Fore
SplineSet
507 696 m 1
 507 725 l 1
 796 725 l 1
 796 696 l 1
 691 687 l 1
 690 590 690 490 690 390 c 2
 690 335 l 2
 690 235 690 137 691 38 c 1
 796 29 l 1
 796 0 l 1
 507 0 l 1
 507 29 l 1
 612 38 l 1
 614 135 614 235 614 361 c 1
 238 361 l 1
 238 235 238 135 239 38 c 1
 344 29 l 1
 344 0 l 1
 55 0 l 1
 55 29 l 1
 160 38 l 1
 161 136 161 235 161 335 c 2
 161 390 l 2
 161 490 161 590 160 687 c 1
 55 696 l 1
 55 725 l 1
 344 725 l 1
 344 696 l 1
 239 688 l 1
 238 592 238 493 238 394 c 1
 614 394 l 1
 614 493 614 591 612 688 c 1
 507 696 l 1
EndSplineSet
Validated: 1
EndChar

StartChar: I
Encoding: 42 73 42
Width: 400
GlyphClass: 1
Flags: MW
HStem: 0 33.5 691.5 33.5
VStem: 161 77<335 390 285 440>
LayerCount: 2
Fore
SplineSet
55 696 m 1
 55 725 l 1
 345 725 l 1
 345 696 l 1
 239 687 l 1
 238 590 238 490 238 390 c 2
 238 335 l 2
 238 235 238 137 239 38 c 1
 345 29 l 1
 345 0 l 1
 55 0 l 1
 55 29 l 1
 160 38 l 1
 161 136 161 235 161 335 c 2
 161 390 l 2
 161 490 161 590 160 687 c 1
 55 696 l 1
EndSplineSet
Validated: 1
EndChar

StartChar: J
Encoding: 43 74 43
Width: 397
GlyphClass: 1
Flags: MW
HStem: -139 79<47 56 29.5 91.5> 691.5 33.5 692 33
VStem: 179 73<102.5 177 177 214.5>
LayerCount: 2
Fore
SplineSet
57 696 m 1xd0
 57 725 l 1
 359 725 l 1
 359 696 l 1
 253 688 l 1x30
 252 590 252 491 252 390 c 2
 252 177 l 2
 252 28 233 -29 195 -76 c 0
 159 -121 115 -139 68 -139 c 0
 26 -139 -6 -128 -10 -97 c 1
 -5 -71 16 -60 43 -60 c 0
 69 -60 85 -67 112 -90 c 2
 124 -102 l 1
 162 -59 179 13 179 145 c 0
 179 284 179 399 175 687 c 1
 57 696 l 1xd0
EndSplineSet
Validated: 1
EndChar

StartChar: K
Encoding: 44 75 44
Width: 724
GlyphClass: 1
Flags: MW
HStem: 0 33.5 0 34 690.5 34.5 691 34 691.5 33.5
VStem: 161 74<335 390>
LayerCount: 2
Fore
SplineSet
576 0 m 1x8c
 460 0 l 1
 460 29 l 1
 555 38 l 1x8c
 356 389 l 1
 235 244 l 1
 236 39 l 1
 343 29 l 1x4c
 343 0 l 1
 55 0 l 1
 55 29 l 1
 160 38 l 1
 161 136 161 235 161 335 c 2
 161 390 l 2
 161 490 161 590 160 687 c 1
 55 696 l 1
 55 725 l 1
 344 725 l 1
 344 696 l 1
 236 687 l 1x8c
 235 590 235 490 235 390 c 2
 235 291 l 1
 559 685 l 1
 451 696 l 1xa4
 451 725 l 1
 697 725 l 1x8c
 697 696 l 1
 605 686 l 1x94
 404 446 l 1
 637 38 l 1
 725 29 l 1
 725 0 l 1
 576 0 l 1x8c
EndSplineSet
Validated: 1
EndChar

StartChar: L
Encoding: 45 76 45
Width: 621
GlyphClass: 1
Flags: MW
HStem: 0 33.5 0 34<239 515 239 576> 0 191<543 576> 691.5 33.5
VStem: 161 77<329 373 274 390 274 440>
LayerCount: 2
Fore
SplineSet
55 696 m 1x58
 55 725 l 1
 347 725 l 1
 347 696 l 1
 239 687 l 1
 238 589 238 488 238 373 c 2
 238 316 l 2
 238 232 238 134 239 34 c 1
 515 34 l 1x58
 543 191 l 1
 584 191 l 1x38
 576 0 l 1
 55 0 l 1x58
 55 29 l 1
 160 38 l 1x98
 161 136 161 234 161 329 c 2
 161 390 l 2
 161 490 161 590 160 687 c 1
 55 696 l 1x58
EndSplineSet
Validated: 1
EndChar

StartChar: M
Encoding: 46 77 46
Width: 970
GlyphClass: 1
Flags: MW
HStem: 0 33.5 0 34.5 691.5 33.5
VStem: 142 38<40 393> 142.5 141.5 733 76<285 325>
CounterMasks: 1 14
LayerCount: 2
Fore
SplineSet
731 0 m 1xb4
 628 0 l 1
 628 29 l 1
 732 38 l 1
 733 136 733 234 733 325 c 2
 736 651 l 1
 474 0 l 1
 444 0 l 1xb4
 175 653 l 1
 180 393 l 1
 180 40 l 1x74
 284 29 l 1x6c
 284 0 l 1
 43 0 l 1xac
 43 29 l 1
 142 40 l 1x74
 143 687 l 1
 43 696 l 1
 43 725 l 1
 222 725 l 1
 477 102 l 1
 728 725 l 1
 915 725 l 1
 915 696 l 1
 810 687 l 1
 809 590 809 490 809 390 c 2
 809 335 l 2
 809 235 809 136 810 38 c 1
 917 29 l 1
 917 0 l 1
 731 0 l 1xb4
EndSplineSet
Validated: 1
EndChar

StartChar: N
Encoding: 47 78 47
Width: 792
GlyphClass: 1
Flags: MW
HStem: -7 21G<618 618 618 654> 0 34.5 691 34 693 32
VStem: 141 38<40 332 40 690> 141 158<0 690> 499 155<-7 725 -7 725> 618 36<-7 686 383 686 -7 686>
CounterMasks: 1 09
LayerCount: 2
Fore
SplineSet
618 -7 m 1xa9
 176 643 l 1
 179 332 l 1
 179 40 l 1x69
 299 29 l 1
 299 0 l 1x65
 46 0 l 1
 46 29 l 1
 141 40 l 1
 141 690 l 1
 43 696 l 1x59
 43 725 l 1
 209 725 l 1
 620 116 l 1
 618 383 l 1
 618 686 l 1x69
 499 696 l 1
 499 725 l 1x6a
 751 725 l 1
 751 696 l 1
 654 686 l 1
 654 -7 l 1
 618 -7 l 1xa9
EndSplineSet
Validated: 1
EndChar

StartChar: O
Encoding: 48 79 48
Width: 762
GlyphClass: 1
Flags: MW
HStem: -15 33<302.5 459.5 302.5 469> 706 36<302.5 459.5>
VStem: 58 82<269 455 269 479.5> 621 83<269 455>
CounterMasks: 1 30
LayerCount: 2
Fore
SplineSet
381 -15 m 0
 205 -15 58 125 58 362 c 0
 58 597 205 742 381 742 c 0
 557 742 704 600 704 362 c 0
 704 128 557 -15 381 -15 c 0
381 18 m 0
 538 18 621 176 621 362 c 0
 621 548 538 706 381 706 c 0
 224 706 140 548 140 362 c 0
 140 176 224 18 381 18 c 0
EndSplineSet
Validated: 1
EndChar

StartChar: P
Encoding: 49 80 49
Width: 634
GlyphClass: 1
Flags: MW
HStem: 0 33.5 0 34 298 32<238 299 299 301 238 299> 691.5 33.5 693 32<239 327 239 239>
VStem: 161 77<335 390> 520 75<460.5 573>
CounterMasks: 1 06
LayerCount: 2
Fore
SplineSet
55 696 m 1xb6
 55 725 l 1
 335 725 l 2
 511 725 595 644 595 515 c 0
 595 392 507 298 301 298 c 2
 238 298 l 1
 239 39 l 1
 354 29 l 1
 354 0 l 1
 55 0 l 1x6e
 55 29 l 1
 160 38 l 1
 161 136 161 235 161 335 c 2
 161 390 l 2
 161 490 161 590 160 687 c 1
 55 696 l 1xb6
238 330 m 1
 299 330 l 2
 457 330 520 406 520 515 c 0
 520 631 460 693 327 693 c 2
 239 693 l 1
 238 594 238 492 238 390 c 2
 238 330 l 1
EndSplineSet
Validated: 1
EndChar

StartChar: Q
Encoding: 50 81 50
Width: 762
GlyphClass: 1
Flags: MW
HStem: -220 36<512.5 555.5> -13 31 -12 30 706 36<302.5 459.5>
VStem: 58 82<269 455 269 479.5> 621 83<269 455>
CounterMasks: 1 0c
LayerCount: 2
Fore
SplineSet
381 18 m 0xbc
 538 18 621 176 621 362 c 0
 621 548 538 706 381 706 c 0
 224 706 140 548 140 362 c 0
 140 176 224 18 381 18 c 0xbc
535 -220 m 0
 400 -220 341 -119 340 -12 c 1xbc
 183 8 58 144 58 362 c 0
 58 597 205 742 381 742 c 0
 557 742 704 600 704 362 c 0
 704 142 574 3 412 -13 c 1xdc
 412 -119 469 -184 556 -184 c 0
 591 -184 619 -177 651 -166 c 1
 659 -188 l 1
 623 -211 576 -220 535 -220 c 0
EndSplineSet
Validated: 1
EndChar

StartChar: R
Encoding: 51 82 51
Width: 708
GlyphClass: 1
Flags: MW
HStem: -9 41.5 0 33.5 339 31<237 317 237 346> 350 20<237 346 346 402> 691.5 33.5 693 32<239 239 239 344>
VStem: 161 76<335 339 370 390 390 432> 527 74<491.5 585>
CounterMasks: 1 03
LayerCount: 2
Fore
SplineSet
55 696 m 1x6b
 55 725 l 1
 352 725 l 2
 511 725 601 658 601 537 c 0
 601 446 537 371 417 350 c 1
 485 336 511 299 533 226 c 2
 594 36 l 1
 691 29 l 1
 691 0 l 1
 671 -5 644 -9 610 -9 c 0
 547 -9 523 9 512 52 c 2x97
 459 227 l 2
 435 310 408 339 317 339 c 2
 237 339 l 1
 237 233 237 135 239 38 c 1
 345 29 l 1
 345 0 l 1
 55 0 l 1
 55 29 l 1
 160 38 l 1
 161 136 161 235 161 335 c 2
 161 390 l 2
 161 490 161 590 160 687 c 1
 55 696 l 1x6b
239 693 m 1
 237 595 237 494 237 370 c 1
 346 370 l 2x67
 458 370 527 443 527 537 c 0
 527 633 469 693 344 693 c 2
 239 693 l 1
EndSplineSet
Validated: 1
EndChar

StartChar: S
Encoding: 52 83 52
Width: 560
GlyphClass: 1
Flags: MW
HStem: -15 34<229.5 312 229.5 335> 706 36<255 323.5>
VStem: 56.5 41.5 73 66<533.5 616> 432 43 442 68<122 204.5>
LayerCount: 2
Fore
SplineSet
261 -15 m 0xd8
 178 -15 100 11 54 42 c 1
 59 188 l 1
 98 188 l 1
 120 53 l 1
 164 27 202 19 257 19 c 0
 367 19 442 69 442 168 c 0xe4
 442 241 406 281 292 327 c 2
 250 344 l 2
 134 392 73 455 73 554 c 0
 73 678 175 742 299 742 c 0
 376 742 428 722 477 687 c 1
 473 549 l 1
 432 549 l 1
 410 678 l 1xd8
 377 698 345 706 302 706 c 0
 208 706 139 661 139 572 c 0
 139 495 188 453 267 420 c 2
 312 402 l 2
 464 340 510 284 510 184 c 0xd4
 510 60 409 -15 261 -15 c 0xd8
EndSplineSet
Validated: 1
EndChar

StartChar: T
Encoding: 53 84 53
Width: 652
GlyphClass: 1
Flags: MW
HStem: 0 34 539 186<22 621 31 62 590 590 590 621 31 630> 691 34<89 286 89 89 365 563 365 365>
VStem: 288 76<335 390 285 440.5>
LayerCount: 2
Fore
SplineSet
22 539 m 1xd0
 31 725 l 1
 621 725 l 1xb0
 630 539 l 1
 590 539 l 1xd0
 563 691 l 1
 365 691 l 1
 364 593 364 491 364 390 c 2
 364 335 l 2
 364 235 364 137 365 39 c 1
 482 29 l 1
 482 0 l 1
 170 0 l 1
 170 29 l 1
 286 39 l 1
 288 136 288 235 288 335 c 2
 288 390 l 2
 288 491 288 592 286 691 c 1
 89 691 l 1xb0
 62 539 l 1
 22 539 l 1xd0
EndSplineSet
Validated: 1
EndChar

StartChar: U
Encoding: 54 85 54
Width: 792
GlyphClass: 1
Flags: MW
HStem: -15 50<353.5 480.5> 691 34 691.5 33.5 692 33
VStem: 145 76<273 288 288 389> 616 36.5
CounterMasks: 1 0c
LayerCount: 2
Fore
SplineSet
493 696 m 1xcc
 493 725 l 1
 749 725 l 1
 749 696 l 1
 653 686 l 1xcc
 652 281 l 2
 651 81 562 -15 399 -15 c 0
 246 -15 145 66 145 273 c 2
 145 389 l 2
 145 489 145 589 144 688 c 1
 47 696 l 1x9c
 47 725 l 1
 333 725 l 1xcc
 333 696 l 1
 222 687 l 1xac
 221 589 221 491 221 389 c 2
 221 288 l 2
 221 102 294 35 413 35 c 0
 552 35 616 111 616 304 c 2
 615 686 l 1
 493 696 l 1xcc
EndSplineSet
Validated: 1
EndChar

StartChar: V
Encoding: 55 86 55
Width: 710
GlyphClass: 1
Flags: MW
HStem: -7 21G<337 378 337 337> 690.5 34.5 691 34 691.5 33.5 692 33
VStem: 5 696<696 725 696 725>
LayerCount: 2
Fore
SplineSet
456 695 m 1xc4
 456 725 l 1
 701 725 l 1xa4
 701 696 l 1
 609 687 l 1x94
 378 -7 l 1
 337 -7 l 1
 94 688 l 1
 5 696 l 1x8c
 5 725 l 1
 289 725 l 1
 289 695 l 1
 175 687 l 1xa4
 375 91 l 1
 567 686 l 1
 456 695 l 1xc4
EndSplineSet
Validated: 1
EndChar

StartChar: W
Encoding: 56 87 56
Width: 1045
GlyphClass: 1
Flags: MW
HStem: -7 21G<298 339 298 298 708 749 708 708> 691 34 691.5 33.5 692 33 696 29<13 286 13 286>
VStem: 13 1024<696 725 696 725>
LayerCount: 2
Fore
SplineSet
793 696 m 1xc4
 793 725 l 1
 1037 725 l 1
 1037 696 l 1
 936 686 l 1xc4
 749 -7 l 1
 708 -7 l 1
 522 610 l 1
 339 -7 l 1
 298 -7 l 1
 104 688 l 1x94
 13 696 l 1x8c
 13 725 l 1
 286 725 l 1xc4
 286 696 l 1
 182 687 l 1
 338 108 l 1
 512 687 l 1
 409 696 l 1xa4
 409 725 l 1
 681 725 l 1
 681 696 l 1
 571 686 l 1
 744 104 l 1
 896 686 l 1
 793 696 l 1xc4
EndSplineSet
Validated: 1
EndChar

StartChar: X
Encoding: 57 88 57
Width: 695
GlyphClass: 1
Flags: MW
HStem: 0 33.5 0 34 0 34.5 691 34 691.5 33.5 692 33
VStem: 16 662<0 29 0 29>
LayerCount: 2
Fore
SplineSet
419 696 m 1x92
 419 725 l 1
 662 725 l 1
 662 696 l 1
 567 686 l 1
 378 388 l 1
 586 38 l 1
 678 29 l 1
 678 0 l 1
 398 0 l 1
 398 29 l 1
 503 38 l 1x92
 331 327 l 1
 154 40 l 1
 260 29 l 1x32
 260 0 l 1
 16 0 l 1x92
 16 29 l 1
 110 39 l 1
 314 356 l 1
 116 688 l 1
 28 696 l 1x46
 28 725 l 1
 307 725 l 1x92
 307 696 l 1
 200 687 l 1x8a
 361 416 l 1
 524 686 l 1
 419 696 l 1x92
EndSplineSet
Validated: 1
EndChar

StartChar: Y
Encoding: 58 89 58
Width: 684
GlyphClass: 1
Flags: MW
HStem: 0 34 691 34 691.5 33.5 692.5 32.5
VStem: 305 75<229.5 288>
LayerCount: 2
Fore
SplineSet
426 696 m 1xc8
 426 725 l 1
 666 725 l 1
 666 696 l 1
 575 686 l 1xc8
 380 292 l 1
 380 167 380 112 382 39 c 1
 500 29 l 1
 500 0 l 1
 186 0 l 1
 186 29 l 1
 303 39 l 1
 305 111 305 166 305 288 c 1
 105 689 l 1
 29 696 l 1x98
 29 725 l 1
 301 725 l 1xc8
 301 696 l 1
 190 687 l 1xa8
 363 330 l 1
 534 686 l 1
 426 696 l 1xc8
EndSplineSet
Validated: 1
EndChar

StartChar: Z
Encoding: 59 90 59
Width: 600
GlyphClass: 1
Flags: MW
HStem: 0 34<114 500 114 562> 0 189<531 562> 539 186<51 84 42 552> 691 34<112 468 112 112>
VStem: 28 544<0 189 31 189>
LayerCount: 2
Fore
SplineSet
28 0 m 1x98
 28 31 l 1
 468 691 l 1
 112 691 l 1x98
 84 539 l 1
 42 539 l 1xa8
 51 725 l 1
 552 725 l 1
 552 694 l 1
 114 34 l 1
 500 34 l 1x98
 531 189 l 1
 572 189 l 1x58
 562 0 l 1
 28 0 l 1x98
EndSplineSet
Validated: 1
EndChar

StartChar: bracketleft
Encoding: 60 91 60
Width: 337
GlyphClass: 1
Flags: MW
HStem: -172 36 737 36
VStem: 111 58<171 430>
CounterMasks: 1 c0
LayerCount: 2
Fore
SplineSet
139 -172 m 1
 107 -172 l 1
 111 -60 111 55 111 171 c 2
 111 430 l 2
 111 544 111 659 107 773 c 1
 294 773 l 1
 294 742 l 1
 172 732 l 1
 169 633 169 532 169 430 c 2
 169 171 l 2
 169 71 169 -31 172 -131 c 1
 294 -141 l 1
 294 -172 l 1
 139 -172 l 1
EndSplineSet
Validated: 1
EndChar

StartChar: backslash
Encoding: 61 92 61
Width: 342
GlyphClass: 1
Flags: MW
HStem: -173 21G<294 336 294 294>
VStem: 5 331
LayerCount: 2
Fore
SplineSet
336 -173 m 1
 294 -173 l 1
 5 767 l 1
 47 767 l 1
 336 -173 l 1
EndSplineSet
Validated: 1
EndChar

StartChar: bracketright
Encoding: 62 93 62
Width: 337
GlyphClass: 1
Flags: MW
HStem: -172 36 737 36
VStem: 168 60<171 430>
CounterMasks: 1 c0
LayerCount: 2
Fore
SplineSet
198 773 m 1
 231 773 l 1
 228 661 228 546 228 430 c 2
 228 171 l 2
 228 57 228 -58 231 -172 c 1
 43 -172 l 1
 43 -141 l 1
 166 -131 l 1
 168 -32 168 69 168 171 c 2
 168 430 l 2
 168 530 168 632 166 732 c 1
 43 742 l 1
 43 773 l 1
 198 773 l 1
EndSplineSet
Validated: 1
EndChar

StartChar: asciicircum
Encoding: 63 94 63
Width: 575
GlyphClass: 1
Flags: MW
HStem: 484 45<287 287>
VStem: 94 393<247 247>
LayerCount: 2
Fore
SplineSet
94 247 m 1
 268 529 l 1
 307 529 l 1
 487 247 l 1
 454 225 l 1
 287 484 l 1
 125 225 l 1
 94 247 l 1
EndSplineSet
Validated: 1
EndChar

StartChar: underscore
Encoding: 64 95 64
Width: 556
GlyphClass: 1
Flags: MW
HStem: -68 46<-5 562 -5 562>
VStem: -5 567<-68 -22 -68 -22>
LayerCount: 2
Fore
SplineSet
-5 -68 m 1
 -5 -22 l 1
 562 -22 l 1
 562 -68 l 1
 -5 -68 l 1
EndSplineSet
Validated: 1
EndChar

StartChar: grave
Encoding: 65 96 65
Width: 432
GlyphClass: 1
Flags: MW
HStem: 606 204<117 258>
VStem: 94 181<620 789>
LayerCount: 2
Fore
SplineSet
275 620 m 1
 258 606 l 1
 216 647 174 688 133 723 c 0
 104 748 94 763 94 779 c 0
 94 799 109 810 125 810 c 0
 142 810 154 799 176 768 c 0
 208 719 242 669 275 620 c 1
EndSplineSet
Validated: 1
EndChar

StartChar: a
Encoding: 66 97 66
Width: 551
GlyphClass: 1
Flags: MW
HStem: -14 46<191 226> -13 39<464.5 472.5> 495 31<236.5 290>
VStem: 53 71<95 152> 366 69<115 291 291 291 316 354> 368 67
CounterMasks: 1 18
LayerCount: 2
Fore
SplineSet
455 -13 m 0x74
 402 -13 375 23 368 83 c 1
 307 18 262 -14 190 -14 c 0xb4
 113 -14 53 31 53 114 c 0
 53 190 100 241 228 279 c 0
 272 292 321 305 366 316 c 1
 366 354 l 2
 366 466 330 495 250 495 c 0
 223 495 195 490 166 478 c 1
 150 407 l 2
 145 376 130 365 107 365 c 0
 85 365 71 377 67 398 c 1
 88 479 160 526 267 526 c 0
 379 526 435 476 435 354 c 2
 435 111 l 2
 435 45 450 26 479 26 c 0
 496 26 508 32 524 49 c 1x78
 539 33 l 1
 519 2 490 -13 455 -13 c 0x74
366 115 m 1xb8
 366 291 l 1
 323 279 279 266 242 253 c 0
 155 221 124 179 124 126 c 0
 124 64 162 32 220 32 c 0
 262 32 300 52 366 115 c 1xb8
EndSplineSet
Validated: 1
EndChar

StartChar: b
Encoding: 67 98 67
Width: 631
GlyphClass: 1
Flags: MW
HStem: -14 44<335.5 387 319 428> -9 40 0 21G<43 43> 483 43<343.5 393> 745 29
VStem: 131 70<443 639> 505 76<179.5 334.5>
CounterMasks: 1 06
LayerCount: 2
Fore
SplineSet
363 -14 m 0x9e
 308 -14 249 9 201 68 c 1x9e
 192 -9 l 1x5e
 43 0 l 1x3e
 43 27 l 1
 129 35 l 1x5e
 130 90 131 173 131 227 c 2
 131 743 l 1
 41 747 l 1
 41 774 l 1
 188 802 l 1
 204 793 l 1
 201 639 l 1
 201 443 l 1
 253 502 314 526 373 526 c 0
 495 526 581 422 581 261 c 0
 581 98 493 -14 363 -14 c 0x9e
202 413 m 1
 202 96 l 1
 250 49 294 30 344 30 c 0
 430 30 505 94 505 260 c 0
 505 409 439 483 347 483 c 0
 303 483 257 468 202 413 c 1
EndSplineSet
Validated: 1
EndChar

StartChar: c
Encoding: 68 99 68
Width: 532
GlyphClass: 1
Flags: MW
HStem: -14 46<260 340.5> 495 31<256 320.5>
VStem: 50 75<186.5 331 186.5 338>
LayerCount: 2
Fore
SplineSet
294 -14 m 0
 148 -14 50 85 50 250 c 0
 50 426 172 526 306 526 c 0
 392 526 464 477 488 399 c 1
 482 376 469 366 449 366 c 0
 423 366 410 379 403 408 c 2
 382 480 l 1
 357 491 333 495 308 495 c 0
 204 495 125 404 125 258 c 0
 125 115 204 32 316 32 c 0
 376 32 429 55 474 104 c 1
 490 91 l 1
 446 25 387 -14 294 -14 c 0
EndSplineSet
Validated: 1
EndChar

StartChar: d
Encoding: 69 100 69
Width: 622
GlyphClass: 1
Flags: MW
HStem: -14 44<243 298.5> -9 39.5 0 21G<596 596> 483 43<249.5 307 216 320> 745 29
VStem: 50 76<175.5 332.5 175.5 334.5> 429 70<99 418 418 418> 431 68<449 643 34 743>
CounterMasks: 1 06
LayerCount: 2
Fore
SplineSet
432 -9 m 1x55
 430 67 l 1
 386 11 330 -14 267 -14 c 0x95
 140 -14 50 93 50 249 c 0
 50 420 151 526 281 526 c 0
 333 526 384 504 431 449 c 1
 431 743 l 1
 339 747 l 1
 339 774 l 1
 487 802 l 1
 502 793 l 1
 499 643 l 1
 499 34 l 1
 596 27 l 1x5d
 596 0 l 1x35
 432 -9 l 1x55
429 99 m 1x96
 429 418 l 1
 384 464 344 483 296 483 c 0
 203 483 126 414 126 251 c 0
 126 100 196 30 290 30 c 0
 343 30 384 49 429 99 c 1x96
EndSplineSet
Validated: 1
EndChar

StartChar: e
Encoding: 70 101 70
Width: 541
GlyphClass: 1
Flags: MW
HStem: -14 46<262 344> 261 31<126 383 383 399.5 126 488 125 383> 495 31<247 333>
VStem: 50 75<261 261 261 337> 425 69<327.5 379.5 309 388.5>
CounterMasks: 1 f8
LayerCount: 2
Fore
SplineSet
300 -14 m 0
 155 -14 50 74 50 254 c 0
 50 420 161 526 292 526 c 0
 418 526 494 438 494 321 c 0
 494 297 492 277 488 261 c 1
 125 261 l 1
 127 102 206 32 318 32 c 0
 388 32 440 57 482 105 c 1
 497 91 l 1
 453 26 388 -14 300 -14 c 0
126 292 m 1
 383 292 l 2
 416 292 425 309 425 346 c 0
 425 431 376 495 290 495 c 0
 204 495 134 418 126 292 c 1
EndSplineSet
Validated: 1
EndChar

StartChar: f
Encoding: 71 102 71
Width: 385
GlyphClass: 1
Flags: MW
HStem: 0 31.5 475 37<203 203 203 361> 475 39<131 131 131 132> 727 86<327 414.5>
VStem: 131 72<227 514> 132 70<227 512 475 512> 132 71<227 475 227 475>
LayerCount: 2
Fore
SplineSet
128 0 m 1xc2
 37 0 l 1
 37 27 l 1
 129 36 l 1
 131 99 132 164 132 227 c 2
 132 475 l 1
 34 475 l 1xc2
 34 505 l 1xa2
 131 514 l 1
 138 638 164 709 217 759 c 0xb8
 257 796 304 813 350 813 c 0
 397 813 437 795 447 764 c 1
 446 743 428 727 401 727 c 0
 376 727 356 739 328 765 c 2
 309 784 l 1
 282 773 259 753 243 728 c 0
 213 682 200 628 202 512 c 1xd4
 361 512 l 1
 361 475 l 1
 203 475 l 1
 203 227 l 1
 205 36 l 1
 308 27 l 1
 308 0 l 1
 128 0 l 1xc2
EndSplineSet
Validated: 33
EndChar

StartChar: g
Encoding: 72 103 72
Width: 560
GlyphClass: 1
Flags: MW
HStem: -260 35<203 320.5 203 338> -12 63<213 224 224 348> -1 21G 171 29<242.5 295.5 221 316> 461.5 23.5 461.5 60.5 491 20G<529 529> 497 29<222.5 285.5 201.5 296.5>
VStem: 44 58<-152 -100.5> 69 67<313.5 392.5 304 402> 79 52<92.5 103> 383 66<305 371 294.5 393.5> 463 62<-124.5 -73.5> 513 16<460 522>
CounterMasks: 2 5188 0050
LayerCount: 2
Fore
SplineSet
258 200 m 0xd154
 333 200 383 261 383 349 c 0
 383 438 333 497 260 497 c 0
 185 497 136 437 136 348 c 0
 136 260 184 200 258 200 c 0xd154
259 171 m 0
 226 171 196 177 171 187 c 1
 143 159 131 138 131 110 c 0
 131 75 153 51 208 51 c 2xd134
 355 51 l 2
 469 51 525 4 525 -79 c 0
 525 -170 429 -260 247 -260 c 0
 103 -260 44 -205 44 -128 c 0xd198
 44 -73 79 -34 145 -1 c 1
 101 13 79 41 79 83 c 0xb134
 79 123 100 155 152 197 c 1
 99 226 69 279 69 348 c 0
 69 456 144 526 259 526 c 0xd154
 312 526 357 511 388 485 c 1xd954
 513 522 l 1xd454
 529 511 l 1xd254
 529 460 l 1
 412 463 l 1xd454
 437 434 449 394 449 348 c 0
 449 241 373 171 259 171 c 0
166 -8 m 1xd198
 122 -43 102 -71 102 -116 c 0
 102 -188 155 -225 251 -225 c 0
 390 -225 463 -169 463 -97 c 0
 463 -50 435 -12 348 -12 c 2
 224 -12 l 2
 202 -12 183 -11 166 -8 c 1xd198
EndSplineSet
Validated: 1
EndChar

StartChar: h
Encoding: 73 104 73
Width: 657
GlyphClass: 1
Flags: MW
HStem: 0 31 0 31.5 475 51<370.5 405> 745 29
VStem: 131 71<227 384 227 743> 471 70<227 337>
CounterMasks: 1 0c
LayerCount: 2
Fore
SplineSet
468 0 m 1x6c
 384 0 l 1
 384 27 l 1
 469 36 l 1x6c
 471 227 l 1
 471 339 l 2
 471 440 435 475 375 475 c 0
 331 475 271 455 202 384 c 1
 202 227 l 1
 204 35 l 1
 282 27 l 1xac
 282 0 l 1
 43 0 l 1
 43 27 l 1
 129 36 l 1
 131 227 l 1
 131 743 l 1
 41 747 l 1
 41 774 l 1
 188 802 l 1x7c
 204 793 l 1
 201 639 l 1
 201 416 l 1
 268 493 337 526 404 526 c 0
 490 526 541 474 541 337 c 2
 541 227 l 2
 541 172 542 90 543 35 c 1
 622 27 l 1xbc
 622 0 l 1
 468 0 l 1x6c
EndSplineSet
Validated: 1
EndChar

StartChar: i
Encoding: 74 105 74
Width: 328
GlyphClass: 1
Flags: MW
HStem: 0 32 459 28 495 20G<206 206> 503 20G<194 194> 655 105<145 174.5>
VStem: 107 108<691.5 722.5> 134 70<227 285 285 318.5>
CounterMasks: 1 88
LayerCount: 2
Fore
SplineSet
160 655 m 0xdc
 130 655 107 676 107 707 c 0
 107 738 130 760 160 760 c 0
 189 760 215 738 215 707 c 0
 215 676 189 655 160 655 c 0xdc
130 0 m 1xda
 44 0 l 1
 44 27 l 1
 131 36 l 1
 133 91 134 173 134 227 c 2
 134 285 l 2
 134 352 132 407 130 457 c 1
 39 461 l 1
 39 487 l 1
 194 523 l 1xda
 206 515 l 1
 204 378 l 1
 204 227 l 1
 206 35 l 1
 285 27 l 1xea
 285 0 l 1
 130 0 l 1xda
EndSplineSet
Validated: 1
EndChar

StartChar: j
Encoding: 75 106 75
Width: 306
GlyphClass: 1
Flags: MW
HStem: -271 79<-19 -13 -37.5 32> 459 28 495 20G<202 202> 503 20G<187 187> 655 105<142.5 171.5>
VStem: 103 107<691.5 722.5> 129 69<94 110 110 284 284 318>
LayerCount: 2
Fore
SplineSet
157 655 m 0xdc
 128 655 103 676 103 707 c 0
 103 738 128 760 157 760 c 0
 186 760 210 738 210 707 c 0
 210 676 186 655 157 655 c 0xdc
7 -271 m 0
 -45 -271 -71 -251 -75 -229 c 1
 -70 -205 -51 -192 -24 -192 c 0
 -2 -192 18 -199 41 -220 c 2
 60 -235 l 1
 75 -225 89 -212 99 -195 c 0
 126 -145 129 -43 129 94 c 2
 129 284 l 2
 129 352 128 407 126 457 c 1
 36 461 l 1
 36 487 l 1
 187 523 l 1xda
 202 515 l 1
 198 378 l 1
 198 110 l 2
 198 -78 191 -158 130 -218 c 0xea
 93 -255 57 -271 7 -271 c 0
EndSplineSet
Validated: 1
EndChar

StartChar: k
Encoding: 76 107 76
Width: 598
GlyphClass: 1
Flags: MW
HStem: 0 30.5 0 31 0 31.5 477.5 34.5 478.5 33.5 745 29
VStem: 131 71<209 250 250 639>
LayerCount: 2
Fore
SplineSet
326 483 m 1x36
 326 512 l 1
 570 512 l 1
 570 483 l 1
 470 474 l 1
 333 338 l 1
 515 34 l 1
 594 27 l 1x8a
 594 0 l 1
 457 0 l 1x2a
 283 289 l 1
 202 209 l 1
 204 35 l 1
 287 27 l 1x4a
 287 0 l 1
 41 0 l 1
 41 27 l 1
 129 36 l 1
 131 227 l 1
 131 743 l 1
 41 747 l 1
 41 774 l 1
 190 802 l 1
 205 793 l 1
 202 639 l 1
 202 250 l 1
 315 365 l 1
 421 472 l 1
 326 483 l 1x36
EndSplineSet
Validated: 1
EndChar

StartChar: l
Encoding: 77 108 77
Width: 330
GlyphClass: 1
Flags: MW
HStem: 0 31.5 745 29
VStem: 131 71<227 639 227 743>
LayerCount: 2
Fore
SplineSet
128 0 m 1
 35 0 l 1
 35 27 l 1
 129 36 l 1
 131 227 l 1
 131 743 l 1
 41 747 l 1
 41 774 l 1
 190 802 l 1
 205 793 l 1
 202 639 l 1
 202 227 l 1
 204 36 l 1
 295 27 l 1
 295 0 l 1
 128 0 l 1
EndSplineSet
Validated: 1
EndChar

StartChar: m
Encoding: 78 109 78
Width: 967
GlyphClass: 1
Flags: MW
HStem: 0 31 0 31.5 458.5 27.5 475 51<358.5 395 679 717.5> 495 20G<195 195> 503 20G<182 182>
VStem: 131 66.5 131 70<227 286 286 320> 457 69<227 338 227 388> 783 69<227 338 338 340 227 389.5>
CounterMasks: 1 01c0
LayerCount: 2
Fore
SplineSet
779 0 m 1x51c0
 695 0 l 1
 695 27 l 1
 781 36 l 1x51c0
 782 91 783 172 783 227 c 2
 783 338 l 2
 783 441 747 475 688 475 c 0
 642 475 587 455 523 388 c 1
 525 373 526 356 526 338 c 2
 526 227 l 1
 528 35 l 1
 607 27 l 1x91c0
 607 0 l 1
 370 0 l 1
 370 27 l 1
 455 36 l 1x51c0
 457 227 l 1
 457 338 l 2
 457 438 422 475 368 475 c 0
 320 475 267 452 201 383 c 1
 201 227 l 1
 203 35 l 1
 281 27 l 1x91c0
 281 0 l 1
 43 0 l 1
 43 27 l 1
 129 36 l 1
 131 227 l 1
 131 286 l 2
 131 354 130 406 128 456 c 1
 38 461 l 1
 38 486 l 1
 182 523 l 1x65c0
 195 515 l 1x4ac0
 200 417 l 1
 261 489 325 526 392 526 c 0
 458 526 502 495 518 418 c 1
 580 492 645 526 713 526 c 0
 802 526 852 474 852 340 c 2
 852 227 l 1
 854 35 l 1
 933 27 l 1x92c0
 933 0 l 1
 779 0 l 1x51c0
EndSplineSet
Validated: 1
EndChar

StartChar: n
Encoding: 79 110 79
Width: 655
GlyphClass: 1
Flags: MW
HStem: 0 31 0 31.5 458.5 27.5 475 51<370 404> 495 20G<195 195> 503 20G<182 182>
VStem: 131 66.5 131 70<227 285 285 319> 470 69<227 338 227 339 227 389.5>
CounterMasks: 1 0180
LayerCount: 2
Fore
SplineSet
467 0 m 1x5180
 382 0 l 1
 382 27 l 1
 468 36 l 1x5180
 470 227 l 1
 470 339 l 2
 470 440 434 475 374 475 c 0
 331 475 271 455 201 384 c 1
 201 227 l 1
 203 35 l 1
 281 27 l 1x9180
 281 0 l 1
 43 0 l 1
 43 27 l 1
 129 36 l 1
 131 227 l 1
 131 285 l 2
 131 353 130 406 128 456 c 1
 38 461 l 1
 38 486 l 1
 182 523 l 1x6580
 195 515 l 1x4a80
 200 417 l 1
 269 494 337 526 403 526 c 0
 489 526 539 474 539 338 c 2
 539 227 l 1
 541 35 l 1
 620 27 l 1x9280
 620 0 l 1
 467 0 l 1x5180
EndSplineSet
Validated: 1
EndChar

StartChar: o
Encoding: 80 111 80
Width: 590
GlyphClass: 1
Flags: MW
HStem: -14 30<242.5 345.5 242.5 357.5> 495 31<242.5 345.5>
VStem: 50 77<177.5 330.5 177.5 345> 462 78<177.5 330.5>
CounterMasks: 1 30
LayerCount: 2
Fore
SplineSet
294 -14 m 0
 168 -14 50 75 50 255 c 0
 50 435 170 526 294 526 c 0
 419 526 540 435 540 255 c 0
 540 74 421 -14 294 -14 c 0
294 16 m 0
 397 16 462 101 462 254 c 0
 462 407 397 495 294 495 c 0
 191 495 127 407 127 254 c 0
 127 101 191 16 294 16 c 0
EndSplineSet
Validated: 1
EndChar

StartChar: p
Encoding: 81 112 81
Width: 630
GlyphClass: 1
Flags: MW
HStem: -260 31 -14 44<333 387 317 424.5> 458.5 27.5 483 43<342.5 393> 495 20G<195 195> 503 20G<182 182>
VStem: 132 65.5 132 71<90 282 282 316.5> 504 76<176.5 334>
CounterMasks: 1 0180
LayerCount: 2
Fore
SplineSet
360 -14 m 0xd180
 306 -14 250 3 202 58 c 1
 202 -30 l 1
 204 -225 l 1
 303 -233 l 1
 303 -260 l 1xd180
 41 -260 l 1
 41 -233 l 1
 130 -225 l 1
 132 -30 l 1
 132 282 l 2
 132 351 131 406 129 456 c 1
 38 461 l 1
 38 486 l 1
 182 523 l 1xe580
 195 515 l 1xca80
 200 441 l 1xd280
 250 501 313 526 372 526 c 0
 494 526 580 422 580 261 c 0
 580 91 489 -14 360 -14 c 0xd180
203 413 m 1
 203 90 l 1
 249 44 291 30 343 30 c 0
 431 30 504 94 504 259 c 0
 504 409 439 483 347 483 c 0
 301 483 256 467 203 413 c 1
EndSplineSet
Validated: 1
EndChar

StartChar: q
Encoding: 82 113 82
Width: 600
GlyphClass: 1
Flags: MW
HStem: -260 31 -14 44<243 296.5> 483 43<248.5 307 216 319.5> 494 20G<504 504> 500 20G<486 486>
VStem: 50 76<173.5 330.5 173.5 334> 430 70<100 367>
CounterMasks: 1 06
LayerCount: 2
Fore
SplineSet
429 -260 m 1xe6
 330 -260 l 1
 330 -233 l 1
 430 -225 l 1
 431 -161 432 -96 432 -32 c 2
 432 70 l 1
 384 10 327 -14 266 -14 c 0
 139 -14 50 91 50 249 c 0
 50 419 151 526 281 526 c 0
 333 526 389 503 436 445 c 1xe6
 486 520 l 1xce
 504 514 l 1xd6
 500 367 l 1
 500 -32 l 2
 500 -96 501 -161 503 -225 c 1
 591 -233 l 1
 591 -260 l 1
 429 -260 l 1xe6
430 100 m 1
 430 418 l 1
 385 463 344 483 295 483 c 0
 202 483 126 412 126 249 c 0
 126 98 196 30 290 30 c 0
 343 30 385 49 430 100 c 1
EndSplineSet
Validated: 1
EndChar

StartChar: r
Encoding: 83 114 83
Width: 453
GlyphClass: 1
Flags: MW
HStem: 0 31.5 0 32 433 93<386 388 335 415> 458.5 27.5 476 50<325 388> 495 20G<195 195> 503 20G<182 182>
VStem: 131 70<227 285 285 318 227 319.5>
LayerCount: 2
Fore
SplineSet
201 318 m 1x53
 201 227 l 1
 203 37 l 1
 298 27 l 1
 298 0 l 1
 43 0 l 1x53
 43 27 l 1
 129 36 l 1
 131 227 l 1
 131 285 l 2
 131 354 130 406 128 456 c 1
 38 461 l 1
 38 486 l 1
 182 523 l 1x93
 195 515 l 1x55
 201 380 l 1
 234 468 301 526 369 526 c 0
 407 526 437 511 447 486 c 1
 446 452 432 433 398 433 c 0x61
 374 433 358 445 335 468 c 2
 325 476 l 1x49
 271 452 232 401 201 318 c 1x53
EndSplineSet
Validated: 1
EndChar

StartChar: s
Encoding: 84 115 84
Width: 468
GlyphClass: 1
Flags: MW
HStem: -14 31<196.5 263 196.5 285.5> 494 32<206 261>
VStem: 56 40 65 63<378 422.5> 354 65<94 139.5> 355 39
CounterMasks: 1 28
LayerCount: 2
Fore
SplineSet
219 -14 m 0xd8
 156 -14 110 -1 56 24 c 1
 55 140 l 1
 96 140 l 1
 114 38 l 1
 143 24 175 17 218 17 c 0
 308 17 354 57 354 115 c 0xe8
 354 164 328 192 246 219 c 2
 195 238 l 2
 115 267 65 309 65 382 c 0
 65 463 130 526 246 526 c 0
 305 526 347 512 396 482 c 1
 392 378 l 1
 355 378 l 1
 338 470 l 1xd4
 307 487 277 494 245 494 c 0
 167 494 128 456 128 403 c 0
 128 353 159 326 231 302 c 2
 280 284 l 2
 381 248 419 204 419 135 c 0
 419 53 352 -14 219 -14 c 0xd8
EndSplineSet
Validated: 1
EndChar

StartChar: t
Encoding: 85 116 85
Width: 362
GlyphClass: 1
Flags: MW
HStem: -14 40<233.5 258.5> 475 37<187 334 187 334> 475 39<14 119>
VStem: 117 70<201 475>
LayerCount: 2
Fore
SplineSet
234 -14 m 0xd0
 153 -14 116 28 116 115 c 0
 116 146 117 165 117 201 c 2
 117 475 l 1
 14 475 l 1xd0
 14 505 l 1
 119 514 l 1xb0
 143 667 l 1
 192 667 l 1
 187 512 l 1
 334 512 l 1
 334 475 l 1
 187 475 l 1
 187 116 l 2
 187 53 211 26 256 26 c 0
 286 26 306 35 333 50 c 1
 347 33 l 1
 320 2 283 -14 234 -14 c 0xd0
EndSplineSet
Validated: 1
EndChar

StartChar: u
Encoding: 86 117 86
Width: 648
GlyphClass: 1
Flags: MW
HStem: -14 51<257.5 301> -9 40 0 21G<602 602> 472.5 45.5 473 45
VStem: 118 69 457 68
CounterMasks: 1 06
LayerCount: 2
Fore
SplineSet
458 -9 m 1x56
 456 93 l 1
 405 29 340 -14 262 -14 c 0
 168 -14 115 37 116 185 c 2
 119 467 l 1
 34 478 l 1
 34 504 l 1
 181 518 l 1
 191 506 l 1x96
 187 379 l 1
 187 187 l 2
 187 76 224 37 291 37 c 0
 350 37 407 71 455 128 c 1
 456 469 l 1
 373 477 l 1x8e
 373 504 l 1
 519 518 l 1
 529 506 l 1
 525 379 l 1
 525 35 l 1
 602 27 l 1x56
 602 0 l 1x36
 458 -9 l 1x56
EndSplineSet
Validated: 33
EndChar

StartChar: v
Encoding: 87 118 87
Width: 541
GlyphClass: 1
Flags: MW
HStem: -6 21G<253 289 253 253> 478.5 33.5 479 33 479.5 32.5
VStem: -8 546<483 512 483 512> 340 198<483 512 483 512>
LayerCount: 2
Fore
SplineSet
340 483 m 1xc4
 340 512 l 1
 538 512 l 1
 538 483 l 1
 468 474 l 1xc4
 289 -6 l 1
 253 -6 l 1
 61 476 l 1
 -8 483 l 1x98
 -8 512 l 1
 232 512 l 1xc8
 232 483 l 1
 141 475 l 1xa8
 290 76 l 1
 431 474 l 1
 340 483 l 1xc4
EndSplineSet
Validated: 1
EndChar

StartChar: w
Encoding: 88 119 88
Width: 830
GlyphClass: 1
Flags: MW
HStem: -6 21G<231 264 231 231 565 596 565 565> 478.5 33.5 479 33 479.5 32.5 483 29<-4 229 -4 229>
VStem: -4 828<483 512 483 512> 626 198<483 512 483 512>
LayerCount: 2
Fore
SplineSet
626 483 m 1xc2
 626 512 l 1
 824 512 l 1xa2
 824 483 l 1
 755 474 l 1xc2
 596 -6 l 1
 565 -6 l 1
 416 424 l 1
 264 -6 l 1
 231 -6 l 1
 64 476 l 1x94
 -4 483 l 1x8c
 -4 512 l 1
 229 512 l 1
 229 483 l 1
 138 475 l 1
 265 85 l 1
 403 475 l 1
 323 483 l 1
 323 512 l 1
 542 512 l 1
 542 483 l 1
 461 475 l 1xa4
 598 84 l 1
 717 474 l 1
 626 483 l 1xc2
EndSplineSet
Validated: 1
EndChar

StartChar: x
Encoding: 89 120 89
Width: 556
GlyphClass: 1
Flags: MW
HStem: 0 31 0 31.5 478.5 33.5 479 33 479.5 32.5 483 29<18 245 18 245>
VStem: 11 195<0 27 0 27> 11 535<0 27 0 27> 344 190<483 512 483 512>
LayerCount: 2
Fore
SplineSet
344 483 m 1x8480
 344 512 l 1
 534 512 l 1
 534 483 l 1
 467 475 l 1
 311 270 l 1
 476 35 l 1
 546 27 l 1
 546 0 l 1
 310 0 l 1
 310 27 l 1
 393 35 l 1x9080
 262 225 l 1
 193 129 l 1
 127 36 l 1
 206 27 l 1x52
 206 0 l 1
 11 0 l 1
 11 27 l 1
 83 35 l 1
 245 249 l 1
 88 476 l 1
 18 483 l 1x8a
 18 512 l 1
 245 512 l 1
 245 483 l 1
 168 475 l 1x91
 295 294 l 1
 361 388 l 1
 424 474 l 1xa080
 344 483 l 1x8480
EndSplineSet
Validated: 1
EndChar

StartChar: y
Encoding: 90 121 90
Width: 546
GlyphClass: 1
Flags: MW
HStem: -271 88<30 116> 479.5 32.5 480 32 480.5 31.5
VStem: -11 556 344 201<484 512 484 512>
LayerCount: 2
Fore
SplineSet
344 484 m 1xa4
 344 512 l 1
 545 512 l 1
 545 484 l 1
 478 477 l 1
 282 -47 l 2
 223 -204 156 -271 76 -271 c 0
 34 -271 -7 -253 -11 -220 c 1
 -7 -195 17 -183 43 -183 c 0
 67 -183 90 -196 112 -218 c 2
 123 -228 l 1
 173 -201 215 -141 246 -60 c 2
 260 -24 l 1
 60 477 l 1
 -8 484 l 1
 -8 512 l 1
 231 512 l 1x94
 231 484 l 1
 139 475 l 1xc8
 292 62 l 1
 368 271 l 1
 439 476 l 1
 344 484 l 1xa4
EndSplineSet
Validated: 1
EndChar

StartChar: z
Encoding: 91 122 91
Width: 494
GlyphClass: 1
Flags: MW
HStem: 0 30<124 394 124 452> 0 162<424 452> 362.5 149.5 481 31<111 367 111 111>
VStem: 44 418<0 162 27 162>
LayerCount: 2
Fore
SplineSet
44 0 m 1x98
 44 27 l 1
 367 481 l 1
 111 481 l 1x98
 83 361 l 1
 47 364 l 1xa8
 55 512 l 1
 445 512 l 1
 445 484 l 1
 124 30 l 1
 394 30 l 1x98
 424 162 l 1
 462 162 l 1x58
 452 0 l 1
 44 0 l 1x98
EndSplineSet
Validated: 1
EndChar

StartChar: braceleft
Encoding: 92 123 92
Width: 373
GlyphClass: 1
Flags: MW
HStem: -172 32 286 29<43 43> 740.5 32.5
VStem: 126 59<-70.5 4 -70.5 4 596 671> 177 44<155 204.5 145 209.5 397 446>
CounterMasks: 1 a0
LayerCount: 2
Fore
SplineSet
43 286 m 1xf0
 43 315 l 1xe8
 143 326 177 364 177 419 c 0
 177 473 126 553 126 639 c 0
 126 725 181 773 300 773 c 2
 341 773 l 1
 341 742 l 1
 305 739 l 2xf0
 213 732 185 705 185 637 c 0
 185 555 221 483 221 429 c 0
 221 365 193 314 103 300 c 1xe8
 193 287 221 236 221 173 c 0
 221 117 185 45 185 -37 c 0
 185 -104 213 -131 305 -139 c 2
 341 -141 l 1
 341 -172 l 1
 300 -172 l 2xf0
 181 -172 126 -125 126 -39 c 0
 126 47 177 128 177 182 c 0xe8
 177 237 143 275 43 286 c 1xf0
EndSplineSet
Validated: 1
EndChar

StartChar: bar
Encoding: 93 124 93
Width: 311
GlyphClass: 1
Flags: MW
HStem: -270 1080<132 178 132 178>
VStem: 132 46<-270 810 -270 810>
LayerCount: 2
Fore
SplineSet
132 -270 m 1
 132 810 l 1
 178 810 l 1
 178 -270 l 1
 132 -270 l 1
EndSplineSet
Validated: 1
EndChar

StartChar: braceright
Encoding: 94 125 94
Width: 373
GlyphClass: 1
Flags: MW
HStem: -172 32 286 29<330 330> 740.5 32.5
VStem: 152 44<155 204.5 397 446> 188 59<-70.5 4 596 671>
CounterMasks: 1 a0
LayerCount: 2
Fore
SplineSet
330 315 m 1xe8
 330 286 l 1xf0
 230 275 196 237 196 182 c 0
 196 128 247 47 247 -39 c 0
 247 -125 192 -172 73 -172 c 2
 32 -172 l 1
 32 -141 l 1
 68 -139 l 2xe8
 160 -131 188 -104 188 -37 c 0
 188 45 152 117 152 173 c 0
 152 236 180 287 270 301 c 1xf0
 180 314 152 365 152 429 c 0
 152 483 188 555 188 637 c 0
 188 705 160 732 68 739 c 2
 32 742 l 1
 32 773 l 1
 73 773 l 2xe8
 192 773 247 725 247 639 c 0
 247 553 196 473 196 419 c 0xf0
 196 364 230 326 330 315 c 1xe8
EndSplineSet
Validated: 1
EndChar

StartChar: asciitilde
Encoding: 95 126 95
Width: 575
GlyphClass: 1
Flags: MW
HStem: 300 41<382.5 421.5 382.5 431.5> 404 41<159 198>
VStem: 60 37<304 310> 481 37<434 440>
LayerCount: 2
Fore
SplineSet
305 387 m 0
 338 355 365 341 400 341 c 0
 443 341 473 368 481 440 c 1
 518 434 l 1
 512 349 468 300 395 300 c 0
 348 300 315 319 275 358 c 0
 239 391 215 404 181 404 c 0
 137 404 106 377 97 304 c 1
 60 310 l 1
 65 396 112 445 184 445 c 0
 231 445 267 422 305 387 c 0
EndSplineSet
Validated: 1
EndChar

StartChar: exclamdown
Encoding: 96 161 96
Width: 298
GlyphClass: 1
Flags: MW
HStem: 419 107<132.5 164>
VStem: 95 109<458 487> 130.5 36.5
LayerCount: 2
Fore
SplineSet
148 526 m 0xc0
 180 526 204 501 204 473 c 0
 204 443 180 419 148 419 c 0
 117 419 95 443 95 473 c 0
 95 501 117 526 148 526 c 0xc0
148 -230 m 0xa0
 120 -230 103 -213 103 -180 c 0
 103 -126 113 -41 125 100 c 1
 136 303 l 1
 162 303 l 1
 172 100 l 1
 185 -41 194 -126 194 -180 c 0
 194 -213 176 -230 148 -230 c 0xa0
EndSplineSet
Validated: 1
EndChar

StartChar: cent
Encoding: 97 162 97
Width: 541
GlyphClass: 1
Flags: MW
HStem: 68 46<278 314 314 314> 581 30<314 314>
VStem: 51 72<280.5 410.5 280.5 418.5> 278 36<-52 68 116 578 578 578 611 717>
CounterMasks: 1 f0
LayerCount: 2
Fore
SplineSet
314 -52 m 1
 278 -52 l 1
 278 68 l 1
 146 76 51 180 51 339 c 0
 51 498 155 597 278 610 c 1
 278 717 l 1
 314 717 l 1
 314 611 l 1
 400 608 468 560 491 483 c 1
 486 462 472 451 452 451 c 0
 430 451 415 465 406 498 c 2
 385 565 l 1
 361 576 338 580 314 581 c 1
 314 114 l 1
 376 116 433 140 475 189 c 1
 491 176 l 1
 455 115 398 73 314 68 c 1
 314 -52 l 1
278 116 m 1
 278 578 l 1
 187 563 123 476 123 345 c 0
 123 216 186 131 278 116 c 1
EndSplineSet
Validated: 1
EndChar

StartChar: sterling
Encoding: 98 163 98
Width: 541
GlyphClass: 1
Flags: MW
HStem: 0 61<105 501 105 501> 316 38<46 149 46 160 46 149 212 212 212 422> 685 30<266 320>
VStem: 101 72<498.5 580.5 498.5 587> 166 49<227 269.5>
CounterMasks: 1 e0
LayerCount: 2
Fore
SplineSet
44 0 m 1xe8
 44 46 l 1
 128 103 166 170 166 259 c 0
 166 280 164 299 160 316 c 1xe8
 46 316 l 1
 46 354 l 1
 149 354 l 1
 130 409 101 457 101 531 c 0
 101 643 183 715 297 715 c 0
 394 715 467 659 490 576 c 1
 483 558 470 548 452 548 c 0
 432 548 416 562 407 597 c 1
 379 670 l 1
 354 681 332 685 308 685 c 0
 224 685 173 627 173 534 c 0
 173 463 194 413 206 354 c 1xf0
 422 354 l 1
 422 316 l 1
 212 316 l 1
 214 302 215 288 215 272 c 0
 215 182 179 114 105 61 c 1
 501 61 l 1
 501 0 l 1
 44 0 l 1xe8
EndSplineSet
Validated: 1
EndChar

StartChar: currency
Encoding: 99 164 99
Width: 542
GlyphClass: 1
Flags: MW
HStem: 183 34<249.5 294> 502 33<249.5 294>
VStem: 93 38<335 383> 411 39<335 382.5 335 400.5>
CounterMasks: 1 f0
LayerCount: 2
Fore
SplineSet
131 359 m 0
 131 275 198 217 272 217 c 0
 349 217 411 276 411 359 c 0
 411 442 349 502 272 502 c 0
 195 502 131 442 131 359 c 0
93 359 m 0
 93 407 110 447 138 477 c 1
 97 505 l 2
 56 530 31 547 31 570 c 0
 31 587 45 601 60 601 c 0
 83 601 101 576 126 535 c 2
 154 493 l 1
 186 520 227 535 272 535 c 0
 316 535 357 520 389 493 c 1
 417 534 l 2
 443 574 461 599 483 599 c 0
 499 599 512 586 512 570 c 0
 512 547 488 529 447 505 c 2
 406 477 l 1
 433 447 450 406 450 359 c 0
 450 311 433 270 405 240 c 1
 447 213 l 2
 487 188 512 170 512 147 c 0
 512 131 498 117 482 117 c 0
 460 117 442 142 417 183 c 2
 388 224 l 1
 357 198 316 183 272 183 c 0
 227 183 185 198 153 226 c 1
 126 183 l 2
 101 143 81 117 60 117 c 0
 44 117 30 131 30 148 c 0
 30 171 55 188 96 213 c 2
 137 241 l 1
 110 271 93 311 93 359 c 0
EndSplineSet
Validated: 1
EndChar

StartChar: yen
Encoding: 100 165 100
Width: 541
GlyphClass: 1
Flags: MW
HStem: 0 32 158 38<61 238 61 238 305 480> 287 37<61 224 61 224 61 238 320 480> 668.5 32.5
VStem: 237 68.5 238 67<158 158 196 287> 341 206<673 701 673 701>
CounterMasks: 1 f0
LayerCount: 2
Fore
SplineSet
61 287 m 1xf8
 61 324 l 1
 224 324 l 1
 63 666 l 1
 -5 673 l 1
 -5 701 l 1
 236 701 l 1
 236 673 l 1
 139 665 l 1xf8
 287 328 l 1
 438 664 l 1
 341 673 l 1
 341 701 l 1
 547 701 l 1
 547 673 l 1
 475 664 l 1
 320 324 l 1
 480 324 l 1
 480 287 l 1
 305 287 l 1
 305 196 l 1xf6
 480 196 l 1
 480 158 l 1
 305 158 l 1
 306 36 l 1
 419 28 l 1
 419 0 l 1
 123 0 l 1
 123 28 l 1
 236 36 l 1
 238 158 l 1xf8
 61 158 l 1
 61 196 l 1
 238 196 l 1
 238 287 l 1xf4
 61 287 l 1xf8
EndSplineSet
Validated: 1
EndChar

StartChar: brokenbar
Encoding: 101 166 101
Width: 311
GlyphClass: 1
Flags: MW
HStem: -270 1080<133 179 133 179>
VStem: 133 46<-270 216 -270 216 346 810>
LayerCount: 2
Fore
SplineSet
133 -270 m 1
 133 216 l 1
 179 216 l 1
 179 -270 l 1
 133 -270 l 1
179 346 m 1
 133 346 l 1
 133 810 l 1
 179 810 l 1
 179 346 l 1
EndSplineSet
Validated: 1
EndChar

StartChar: section
Encoding: 102 167 102
Width: 1000
GlyphClass: 1
Flags: MW
HStem: -120 30<463 522.5 463 542> 722 29<483 541>
VStem: 292 50 342 52<585.5 650.5> 610 52<-20 44.5> 660 52<271 313>
CounterMasks: 1 e4
LayerCount: 2
Fore
SplineSet
523 751 m 0xd8
 614 751 679 714 704 628 c 1
 702 609 688 599 671 599 c 0
 655 599 640 607 631 635 c 2
 602 710 l 1
 580 718 557 722 525 722 c 0
 441 722 394 687 394 620 c 0
 394 551 439 523 550 475 c 0
 677 419 712 375 712 300 c 0xd4
 712 242 677 182 588 150 c 1
 629 122 662 87 662 20 c 0
 662 -60 601 -120 483 -120 c 0
 383 -120 318 -77 296 4 c 1
 298 23 311 33 328 33 c 0
 345 33 360 25 369 -3 c 2
 396 -75 l 1
 419 -85 446 -90 480 -90 c 0
 565 -90 610 -52 610 10 c 0
 610 79 566 108 450 159 c 0
 330 213 292 258 292 331 c 0xe8
 292 395 329 452 416 482 c 1
 369 510 342 547 342 606 c 0
 342 695 412 751 523 751 c 0xd8
562 170 m 1xe4
 633 197 660 231 660 288 c 0
 660 338 645 371 523 424 c 0
 489 437 463 450 439 464 c 1
 365 435 343 397 343 345 c 0
 343 291 365 260 477 211 c 0
 511 196 539 183 562 170 c 1xe4
EndSplineSet
Validated: 1
EndChar

StartChar: dieresis
Encoding: 103 168 103
Width: 432
GlyphClass: 1
Flags: MW
HStem: 670 95<95.5 121 311 337>
VStem: 59 98<702.5 731.5> 275 98<702.5 731.5>
CounterMasks: 1 60
LayerCount: 2
Fore
SplineSet
108 670 m 0
 83 670 59 688 59 717 c 0
 59 746 83 765 108 765 c 0
 134 765 157 746 157 717 c 0
 157 688 134 670 108 670 c 0
324 670 m 0
 298 670 275 688 275 717 c 0
 275 746 298 765 324 765 c 0
 350 765 373 746 373 717 c 0
 373 688 350 670 324 670 c 0
EndSplineSet
Validated: 1
EndChar

StartChar: copyright
Encoding: 104 169 104
Width: 817
GlyphClass: 1
Flags: MW
HStem: -15 30<314.5 504 314.5 511.5> 140 28<386 444 386 449.5> 563 28<386.5 447> 709 33<314.5 503.5>
VStem: 32 39<256 471 256 482> 213 60<303 426.5 303 432.5> 518 32.5 521 34 747 38<258 470.5>
CounterMasks: 1 fc80
LayerCount: 2
Fore
SplineSet
409 -15 m 0xfd80
 203 -15 32 129 32 364 c 0
 32 600 203 742 409 742 c 0
 614 742 785 600 785 364 c 0
 785 129 614 -15 409 -15 c 0xfd80
409 15 m 0
 599 15 747 152 747 364 c 0
 747 577 598 709 409 709 c 0
 220 709 71 578 71 364 c 0
 71 148 220 15 409 15 c 0
426 140 m 0
 300 140 213 229 213 364 c 0
 213 501 305 591 426 591 c 0
 477 591 509 581 549 559 c 1
 552 460 l 1
 518 460 l 1
 504 547 l 1xfe80
 482 558 460 563 434 563 c 0
 339 563 273 488 273 365 c 0
 273 241 340 168 432 168 c 0
 456 168 483 172 507 183 c 1
 521 271 l 1
 557 271 l 1
 553 172 l 1
 513 149 473 140 426 140 c 0
EndSplineSet
Validated: 1
EndChar

StartChar: ordfeminine
Encoding: 105 170 105
Width: 367
GlyphClass: 1
Flags: MW
HStem: 451 36<130 147.5> 454 30<308 312.5> 786 24<156.5 190>
VStem: 31 55<526 562.5> 238 51<538 651 651 651 672 692> 239 50
CounterMasks: 1 b8
LayerCount: 2
Fore
SplineSet
124 451 m 0xb8
 71 451 31 483 31 538 c 0xb8
 31 587 61 620 147 647 c 0
 178 657 209 665 238 672 c 1
 238 696 l 2
 238 766 216 786 164 786 c 0
 149 786 134 784 116 778 c 1
 104 733 l 2
 99 710 86 699 70 699 c 0
 54 699 44 707 41 723 c 1
 56 776 108 810 180 810 c 0
 254 810 289 776 289 692 c 2
 289 533 l 2
 289 497 299 484 317 484 c 0
 328 484 336 488 347 500 c 1
 359 489 l 1x78
 344 463 324 454 301 454 c 0x74
 263 454 243 476 239 515 c 1xb4
 198 474 171 451 124 451 c 0xb8
238 538 m 1
 238 651 l 1
 160 629 l 1
 105 608 86 580 86 547 c 0
 86 505 114 487 146 487 c 0
 175 487 198 501 238 538 c 1
EndSplineSet
Validated: 1
EndChar

StartChar: guillemotleft
Encoding: 106 171 106
Width: 529
GlyphClass: 1
Flags: MW
HStem: 51 444<264 264 264 477>
VStem: 238 69<273 273 273 291 273 291>
LayerCount: 2
Fore
SplineSet
264 51 m 1
 26 255 l 1
 26 291 l 1
 264 495 l 1
 281 476 l 1
 94 273 l 1
 281 69 l 1
 264 51 l 1
477 51 m 1
 238 255 l 1
 238 291 l 1
 477 495 l 1
 494 476 l 1
 307 273 l 1
 494 69 l 1
 477 51 l 1
EndSplineSet
Validated: 1
EndChar

StartChar: logicalnot
Encoding: 107 172 107
Width: 575
GlyphClass: 1
Flags: MW
HStem: 379 41<39 534 39 489>
VStem: 489 45<182 379 379 379>
LayerCount: 2
Fore
SplineSet
39 379 m 1
 39 420 l 1
 534 420 l 1
 534 182 l 1
 489 182 l 1
 489 379 l 1
 39 379 l 1
EndSplineSet
Validated: 1
EndChar

StartChar: registered
Encoding: 108 174 108
Width: 497
GlyphClass: 1
Flags: MW
HStem: 342 27<198.5 298 198.5 305> 450 18<332 332 332 337> 452 16 551 14<225 243 225 245> 558 7 656 15<225 225 225 243> 743 26<198.5 297.5>
VStem: 32 30<501.5 614 501.5 623> 188 37<452 551 469 551 469 565 565 654 654 654> 292 38<602 626> 434 30<501.5 614>
CounterMasks: 2 b7e0 c2
LayerCount: 2
Fore
SplineSet
62 558 m 0xb7e0
 62 445 149 369 248 369 c 0
 348 369 434 445 434 558 c 0
 434 670 347 743 248 743 c 0
 149 743 62 670 62 558 c 0xb7e0
32 558 m 0
 32 688 135 769 248 769 c 0
 362 769 464 688 464 558 c 0
 464 427 362 342 248 342 c 0
 134 342 32 427 32 558 c 0
188 452 m 1
 159 452 l 1
 159 466 l 1
 188 469 l 1
 188 654 l 1
 159 657 l 1xb7e0
 159 671 l 1
 250 671 l 2
 302 671 330 649 330 615 c 0
 330 589 311 565 271 558 c 1
 298 554 311 542 318 520 c 2
 332 468 l 1
 359 466 l 1
 359 452 l 1
 347 450 342 450 332 450 c 0
 307 450 297 455 293 473 c 2xcfe0
 278 521 l 2
 274 542 265 551 243 551 c 2
 225 551 l 1
 225 469 l 1
 254 466 l 1
 254 452 l 1
 188 452 l 1
225 656 m 1
 225 565 l 1
 245 565 l 2
 277 565 292 587 292 614 c 0
 292 638 278 656 243 656 c 2
 225 656 l 1
EndSplineSet
Validated: 1
EndChar

StartChar: macron
Encoding: 109 175 109
Width: 432
GlyphClass: 1
Flags: MW
HStem: 666 46<84 348 84 348>
VStem: 84 264<666 712 666 712>
LayerCount: 2
Fore
SplineSet
84 666 m 1
 84 712 l 1
 348 712 l 1
 348 666 l 1
 84 666 l 1
EndSplineSet
Validated: 1
EndChar

StartChar: degree
Encoding: 110 176 110
Width: 339
GlyphClass: 1
Flags: MW
HStem: 477 31<143.5 196.5 143.5 204.5> 712 30<143.5 196.5>
VStem: 41 34<578.5 640 578.5 648.5> 264 36<578.5 640>
CounterMasks: 1 30
LayerCount: 2
Fore
SplineSet
170 508 m 0
 223 508 264 548 264 609 c 0
 264 671 223 712 170 712 c 0
 117 712 75 671 75 609 c 0
 75 548 117 508 170 508 c 0
170 477 m 0
 101 477 41 529 41 609 c 0
 41 688 101 742 170 742 c 0
 239 742 300 688 300 609 c 0
 300 529 239 477 170 477 c 0
EndSplineSet
Validated: 1
EndChar

StartChar: plusminus
Encoding: 111 177 111
Width: 1000
GlyphClass: 1
Flags: MW
HStem: 10 43<125 875 125 875> 439 43<125 479 125 479 125 521 521 875>
VStem: 479 42<132 439 482 788>
CounterMasks: 1 c0
LayerCount: 2
Fore
SplineSet
521 132 m 1
 479 132 l 1
 479 439 l 1
 125 439 l 1
 125 482 l 1
 479 482 l 1
 479 788 l 1
 521 788 l 1
 521 482 l 1
 875 482 l 1
 875 439 l 1
 521 439 l 1
 521 132 l 1
125 53 m 1
 875 53 l 1
 875 10 l 1
 125 10 l 1
 125 53 l 1
EndSplineSet
Validated: 1
EndChar

StartChar: uni00B2
Encoding: 112 178 112
Width: 381
GlyphClass: 1
Flags: MW
HStem: 462 54<54 339 106 339 106 339> 871 25<166 201>
VStem: 261 59<755.5 807.5>
CounterMasks: 1 c0
LayerCount: 2
Fore
SplineSet
54 462 m 1
 54 502 l 1
 174 621 l 2
 233 682 261 728 261 780 c 0
 261 835 229 871 173 871 c 0
 159 871 145 869 129 864 c 1
 115 819 l 2
 107 790 96 779 81 779 c 0
 68 779 58 787 51 799 c 1
 64 864 123 896 191 896 c 0
 279 896 320 848 320 784 c 0
 320 727 284 681 204 606 c 2
 106 516 l 1
 339 516 l 1
 339 462 l 1
 54 462 l 1
EndSplineSet
Validated: 1
EndChar

StartChar: uni00B3
Encoding: 113 179 113
Width: 381
GlyphClass: 1
Flags: MW
HStem: 451 26<159 203 159 225.5> 671 28<134 160 160 163 134 160> 871 25<169 203>
VStem: 261 58<767 813.5> 276 59<545.5 605 536.5 605.5>
CounterMasks: 1 e0
LayerCount: 2
Fore
SplineSet
183 451 m 0xe8
 108 451 59 483 47 543 c 1
 53 559 63 565 76 565 c 0
 92 565 102 555 108 526 c 2
 121 484 l 1
 136 479 150 477 168 477 c 0
 238 477 276 515 276 576 c 0xe8
 276 635 240 671 163 671 c 2
 134 671 l 1
 134 699 l 1
 160 699 l 2
 221 699 261 730 261 787 c 0
 261 840 230 871 176 871 c 0
 162 871 148 869 133 865 c 1
 122 823 l 2
 117 798 105 789 88 789 c 0
 77 789 66 794 61 807 c 1
 72 869 128 896 190 896 c 0
 270 896 319 853 319 792 c 0xf0
 319 742 283 700 223 686 c 1
 297 675 335 635 335 575 c 0
 335 498 268 451 183 451 c 0xe8
EndSplineSet
Validated: 1
EndChar

StartChar: acute
Encoding: 114 180 114
Width: 432
GlyphClass: 1
Flags: MW
HStem: 606 204<174 314.5>
VStem: 156 181<620 789>
LayerCount: 2
Fore
SplineSet
156 620 m 1
 191 670 224 719 256 768 c 0
 277 799 289 810 307 810 c 0
 322 810 337 799 337 779 c 0
 337 763 327 748 299 722 c 0
 257 687 216 647 174 606 c 1
 156 620 l 1
EndSplineSet
Validated: 1
EndChar

StartChar: mu
Encoding: 115 181 115
Width: 620
GlyphClass: 1
Flags: MW
HStem: -14 50<528 538.5> -14 59<268.5 319> 497 20G<178 178 510 510> 503 20G<169 169 502 502>
VStem: 110.5 56.5 110.5 67.5 439 55 441 53<157 157>
LayerCount: 2
Fore
SplineSet
285 -14 m 0x56
 236 -14 185 16 157 70 c 1
 177 -189 l 1
 112 -205 l 1
 101 -198 l 1
 118 98 l 1
 103 508 l 1
 169 523 l 1
 178 517 l 1x66
 172 317 168 219 167 123 c 1
 201 65 244 45 293 45 c 0x5a
 353 45 402 81 441 157 c 1
 437 508 l 1
 502 523 l 1
 510 517 l 1
 499 288 494 198 494 117 c 0
 494 51 511 36 545 36 c 0
 564 36 577 42 591 49 c 1xa6
 598 31 l 1
 583 6 557 -14 520 -14 c 0
 470 -14 445 24 441 113 c 1x55
 406 31 353 -14 285 -14 c 0x56
EndSplineSet
Validated: 1
EndChar

StartChar: paragraph
Encoding: 116 182 116
Width: 1000
GlyphClass: 1
Flags: MW
HStem: 700.5 34.5 701 34<569 608>
VStem: 218 312<361.5 543.5> 608 66<202 203 203 395> 608 175<202 735 701 735>
CounterMasks: 1 30
LayerCount: 2
Fore
SplineSet
606 -136 m 1x50
 608 -25 608 89 608 202 c 2
 608 701 l 1x50
 530 701 l 1
 530 174 l 1
 360 174 218 269 218 454 c 0
 218 633 356 735 569 735 c 2
 783 735 l 1x68
 783 704 l 1x88
 675 697 l 1x90
 674 598 674 496 674 395 c 2
 674 203 l 2
 674 89 674 -25 676 -136 c 1
 606 -136 l 1x50
EndSplineSet
Validated: 1
EndChar

StartChar: periodcentered
Encoding: 117 183 117
Width: 325
GlyphClass: 1
Flags: MW
HStem: 303 114<145.5 178.5>
VStem: 105 114<345 376>
LayerCount: 2
Fore
SplineSet
162 303 m 0
 129 303 105 330 105 360 c 0
 105 392 129 417 162 417 c 0
 195 417 219 392 219 360 c 0
 219 330 195 303 162 303 c 0
EndSplineSet
Validated: 1
EndChar

StartChar: cedilla
Encoding: 118 184 118
Width: 432
GlyphClass: 1
Flags: MW
HStem: -235 28<173 202.5 170.5 224> -88 23
VStem: 247 52<-166.5 -131>
LayerCount: 2
Fore
SplineSet
160 -88 m 1
 174 1 l 1
 202 1 l 1
 193 -65 l 1
 260 -70 299 -103 299 -149 c 0
 299 -198 260 -235 188 -235 c 0
 158 -235 135 -230 115 -223 c 1
 121 -200 l 1
 142 -204 161 -207 180 -207 c 0
 225 -207 247 -184 247 -149 c 0
 247 -113 223 -91 160 -88 c 1
EndSplineSet
Validated: 1
EndChar

StartChar: uni00B9
Encoding: 119 185 119
Width: 381
GlyphClass: 1
Flags: MW
HStem: 462 27 462 27.5
VStem: 174 58<462 889 495 847 847 847>
LayerCount: 2
Fore
SplineSet
174 462 m 1xa0
 73 462 l 1
 73 484 l 1
 174 494 l 1xa0
 174 847 l 1
 82 834 l 1
 82 861 l 1
 223 895 l 1
 232 889 l 1
 232 495 l 1
 329 484 l 1x60
 329 462 l 1
 174 462 l 1xa0
EndSplineSet
Validated: 1
EndChar

StartChar: ordmasculine
Encoding: 120 186 120
Width: 393
GlyphClass: 1
Flags: MW
HStem: 451 25<164.5 230.5 164.5 240> 785 25<164.5 230.5>
VStem: 33 57<579.5 680 579.5 688.5> 304 57<579.5 680>
CounterMasks: 1 f0
LayerCount: 2
Fore
SplineSet
198 451 m 0
 112 451 33 514 33 631 c 0
 33 746 114 810 198 810 c 0
 281 810 361 746 361 631 c 0
 361 514 282 451 198 451 c 0
198 476 m 0
 263 476 304 529 304 630 c 0
 304 730 263 785 198 785 c 0
 131 785 90 730 90 630 c 0
 90 529 131 476 198 476 c 0
EndSplineSet
Validated: 1
EndChar

StartChar: guillemotright
Encoding: 121 187 121
Width: 529
GlyphClass: 1
Flags: MW
HStem: 51 444<53 53 53 265>
VStem: 222 69<273 273> 435 69<273 273>
CounterMasks: 1 60
LayerCount: 2
Fore
SplineSet
265 495 m 1
 504 291 l 1
 504 255 l 1
 265 51 l 1
 248 69 l 1
 435 273 l 1
 248 476 l 1
 265 495 l 1
53 495 m 1
 291 291 l 1
 291 255 l 1
 53 51 l 1
 35 69 l 1
 222 273 l 1
 35 476 l 1
 53 495 l 1
EndSplineSet
Validated: 1
EndChar

StartChar: onequarter
Encoding: 122 188 122
Width: 882
GlyphClass: 1
Flags: MW
HStem: -9 21G<190 190> 0 167<569 725 569 777> 123 44<569 725 569 725 534 725 777 853> 301 26.5 301 27 705 20G<697 697> 708 20G<232 232> 714 20G<223 223>
VStem: 174 58<301 728 334 685 685 685> 725 52<0 123 0 123 167 374 374 374>
LayerCount: 2
Fore
SplineSet
215 -27 m 1xb1c0
 190 -9 l 1
 697 725 l 1xb4c0
 722 707 l 1xb2c0
 215 -27 l 1xb1c0
725 0 m 1x51c0
 725 123 l 1
 534 123 l 1
 534 159 l 1
 739 431 l 1
 777 431 l 1
 777 167 l 1
 853 167 l 1
 853 123 l 1
 777 123 l 1xb1c0
 777 0 l 1
 725 0 l 1x51c0
569 167 m 1
 725 167 l 1
 725 374 l 1
 654 281 l 1
 569 167 l 1
174 301 m 1
 73 301 l 1
 73 322 l 1
 174 333 l 1xb1c0
 174 685 l 1
 82 673 l 1
 82 700 l 1
 223 734 l 1
 232 728 l 1
 232 334 l 1
 329 322 l 1xaac0
 329 301 l 1
 174 301 l 1
EndSplineSet
Validated: 1
EndChar

StartChar: onehalf
Encoding: 123 189 123
Width: 914
GlyphClass: 1
Flags: MW
HStem: -9 21G<190 190> 0 54<587 872 639 872 639 872> 301 26.5 301 27 409 26<698 733.5> 705 20G<697 697> 708 20G<232 232> 714 20G<223 223>
VStem: 174 58<301 728 334 685 685 685> 793 60<294 346>
CounterMasks: 1 48
LayerCount: 2
Fore
SplineSet
215 -27 m 1x69c0
 190 -9 l 1
 697 725 l 1xacc0
 722 707 l 1x6ac0
 215 -27 l 1x69c0
587 0 m 1x69c0
 587 40 l 1
 706 158 l 2
 766 219 793 266 793 318 c 0
 793 374 762 409 705 409 c 0
 691 409 677 407 662 403 c 1
 647 358 l 2
 639 327 628 317 613 317 c 0
 601 317 590 326 583 338 c 1
 595 401 654 435 723 435 c 0
 811 435 853 386 853 322 c 0
 853 266 818 219 737 144 c 2
 639 54 l 1
 872 54 l 1
 872 0 l 1
 587 0 l 1x69c0
174 301 m 1
 73 301 l 1
 73 322 l 1
 174 333 l 1x69c0
 174 685 l 1
 82 673 l 1
 82 700 l 1
 223 734 l 1
 232 728 l 1
 232 334 l 1
 329 322 l 1x5ac0
 329 301 l 1
 174 301 l 1
EndSplineSet
Validated: 1
EndChar

StartChar: threequarters
Encoding: 124 190 124
Width: 882
GlyphClass: 1
Flags: MW
HStem: -9 21G<190 190> 0 167<569 725 569 777> 123 44<569 725 569 725 534 725 777 853> 290 25<159.5 203 159.5 225.5> 509 16 509 28<134 160 160 163 134 160> 705 20G<697 697> 709 26<169 203>
VStem: 261 58<606.5 653> 276 59<384.5 444 374.5 444.5> 725 52<0 123 0 123 167 374 374 374>
CounterMasks: 1 1560
LayerCount: 2
Fore
SplineSet
215 -27 m 1xb560
 190 -9 l 1
 697 725 l 1xba60
 722 707 l 1
 215 -27 l 1xb560
183 290 m 0
 108 290 59 321 47 382 c 1
 53 398 63 403 76 403 c 0
 92 403 102 394 108 364 c 2
 121 322 l 1
 136 317 151 315 168 315 c 0
 238 315 276 354 276 415 c 0xb560
 276 474 240 509 163 509 c 2
 134 509 l 1
 134 537 l 1
 160 537 l 2
 221 537 261 569 261 627 c 0
 261 679 230 709 176 709 c 0
 162 709 148 708 133 703 c 1
 122 662 l 2
 117 636 105 627 88 627 c 0
 77 627 66 633 61 646 c 1
 72 708 128 735 190 735 c 0
 270 735 319 692 319 631 c 0xb5a0
 319 582 284 541 225 525 c 1
 298 513 335 474 335 414 c 0
 335 335 268 290 183 290 c 0
725 0 m 1x5560
 725 123 l 1
 534 123 l 1
 534 159 l 1
 739 431 l 1
 777 431 l 1
 777 167 l 1
 853 167 l 1
 853 123 l 1
 777 123 l 1xb560
 777 0 l 1
 725 0 l 1x5560
569 167 m 1
 725 167 l 1
 725 374 l 1
 654 281 l 1
 569 167 l 1
EndSplineSet
Validated: 1
EndChar

StartChar: questiondown
Encoding: 125 191 125
Width: 423
GlyphClass: 1
Flags: MW
HStem: 419 107<250.5 281.5>
VStem: 57 39<-24 2 -24 29.5> 213 107<458 487> 253.5 24.5 253.5 48.5
LayerCount: 2
Fore
SplineSet
266 526 m 0xe0
 297 526 320 501 320 473 c 0
 320 443 297 419 266 419 c 0
 235 419 213 443 213 473 c 0
 213 501 235 526 266 526 c 0xe0
57 -8 m 0
 57 67 90 111 157 143 c 2
 195 162 l 2
 244 187 256 197 255 233 c 2
 252 305 l 1xc8
 278 305 l 1xd0
 288 265 l 2
 296 228 302 211 302 193 c 0
 302 158 281 139 221 109 c 2xc8
 175 88 l 1
 115 56 96 28 96 -24 c 0
 97 -60 109 -90 134 -117 c 1
 285 -139 l 2
 329 -146 342 -164 342 -188 c 0
 342 -213 327 -225 302 -232 c 1
 187 -209 57 -141 57 -8 c 0
EndSplineSet
Validated: 33
EndChar

StartChar: Agrave
Encoding: 126 192 126
Width: 712
GlyphClass: 1
Flags: MW
HStem: 0 34 251 31<216 453 216 463 206 453> 712 20G<328 376 376 376>
VStem: 11 695<0 29 29 29>
CounterMasks: 1 c0
LayerCount: 2
Fore
SplineSet
412 799 m 1
 399 781 l 1
 354 806 309 831 265 855 c 0
 226 877 211 892 211 908 c 0
 211 924 226 938 244 938 c 0
 259 938 273 928 303 899 c 0
 337 868 376 833 412 799 c 1
333 647 m 1
 216 282 l 1
 453 282 l 1
 333 647 l 1
420 0 m 1
 420 30 l 1
 532 38 l 1
 463 251 l 1
 206 251 l 1
 138 39 l 1
 235 29 l 1
 235 0 l 1
 11 0 l 1
 11 29 l 1
 98 39 l 1
 328 732 l 1
 376 732 l 1
 610 37 l 1
 706 30 l 1
 706 0 l 1
 420 0 l 1
EndSplineSet
Validated: 1
EndChar

StartChar: Aacute
Encoding: 127 193 127
Width: 712
GlyphClass: 1
Flags: MW
HStem: 0 34 251 31<216 453 216 463 206 453> 712 20G<328 376 376 376>
VStem: 11 695<0 29 29 29>
CounterMasks: 1 c0
LayerCount: 2
Fore
SplineSet
290 799 m 1
 328 834 364 869 399 900 c 0
 429 928 444 938 459 938 c 0
 476 938 490 924 490 908 c 0
 490 892 477 878 437 856 c 0
 394 831 348 806 303 781 c 1
 290 799 l 1
333 647 m 1
 216 282 l 1
 453 282 l 1
 333 647 l 1
420 0 m 1
 420 30 l 1
 532 38 l 1
 463 251 l 1
 206 251 l 1
 138 39 l 1
 235 29 l 1
 235 0 l 1
 11 0 l 1
 11 29 l 1
 98 39 l 1
 328 732 l 1
 376 732 l 1
 610 37 l 1
 706 30 l 1
 706 0 l 1
 420 0 l 1
EndSplineSet
Validated: 1
EndChar

StartChar: Acircumflex
Encoding: 128 194 128
Width: 712
GlyphClass: 1
Flags: MW
HStem: 0 34 251 31<216 453 216 463 206 453> 712 20G<328 376 376 376>
VStem: 11 695<0 29 29 29>
CounterMasks: 1 c0
LayerCount: 2
Fore
SplineSet
367 920 m 1
 509 789 l 1
 496 773 l 1
 351 859 l 1
 206 773 l 1
 193 789 l 1
 335 920 l 1
 367 920 l 1
333 647 m 1
 216 282 l 1
 453 282 l 1
 333 647 l 1
420 0 m 1
 420 30 l 1
 532 38 l 1
 463 251 l 1
 206 251 l 1
 138 39 l 1
 235 29 l 1
 235 0 l 1
 11 0 l 1
 11 29 l 1
 98 39 l 1
 328 732 l 1
 376 732 l 1
 610 37 l 1
 706 30 l 1
 706 0 l 1
 420 0 l 1
EndSplineSet
Validated: 1
EndChar

StartChar: Atilde
Encoding: 129 195 129
Width: 712
GlyphClass: 1
Flags: MW
HStem: 0 34 251 31<216 453 216 463 206 453> 712 20G<328 376 376 376> 789 47<421 457 421 459> 874 47<245 280>
VStem: 11 695<0 29 29 29>
CounterMasks: 2 d0 48
LayerCount: 2
Fore
SplineSet
166 803 m 1
 177 874 215 921 273 921 c 0
 313 921 338 901 361 879 c 0
 385 856 404 836 438 836 c 0
 476 836 498 864 513 914 c 1
 536 907 l 1
 524 835 489 789 429 789 c 0
 388 789 363 808 342 830 c 0
 318 852 297 874 263 874 c 0
 227 874 204 846 188 796 c 1
 166 803 l 1
333 647 m 1
 216 282 l 1
 453 282 l 1
 333 647 l 1
420 0 m 1
 420 30 l 1
 532 38 l 1
 463 251 l 1
 206 251 l 1
 138 39 l 1
 235 29 l 1
 235 0 l 1
 11 0 l 1
 11 29 l 1
 98 39 l 1
 328 732 l 1
 376 732 l 1
 610 37 l 1
 706 30 l 1
 706 0 l 1
 420 0 l 1
EndSplineSet
Validated: 1
EndChar

StartChar: Adieresis
Encoding: 130 196 130
Width: 712
GlyphClass: 1
Flags: MW
HStem: 0 34 251 31<216 453 216 463 206 453> 712 20G<328 376 376 376> 806 95<220 246.5 455.5 481.5>
VStem: 183 99<839 868> 419 99<839 868>
CounterMasks: 1 dc
LayerCount: 2
Fore
SplineSet
233 806 m 0
 207 806 183 825 183 853 c 0
 183 883 207 901 233 901 c 0
 260 901 282 883 282 853 c 0
 282 825 260 806 233 806 c 0
469 806 m 0
 442 806 419 825 419 853 c 0
 419 883 442 901 469 901 c 0
 494 901 518 883 518 853 c 0
 518 825 494 806 469 806 c 0
333 647 m 1
 216 282 l 1
 453 282 l 1
 333 647 l 1
420 0 m 1
 420 30 l 1
 532 38 l 1
 463 251 l 1
 206 251 l 1
 138 39 l 1
 235 29 l 1
 235 0 l 1
 11 0 l 1
 11 29 l 1
 98 39 l 1
 328 732 l 1
 376 732 l 1
 610 37 l 1
 706 30 l 1
 706 0 l 1
 420 0 l 1
EndSplineSet
Validated: 1
EndChar

StartChar: Aring
Encoding: 131 197 131
Width: 712
GlyphClass: 1
Flags: MW
HStem: 0 34 251 31<216 453 216 463 206 453> 712 20G<328 376 376 376> 776 29<332.5 370 332.5 376.5> 937 30<332.5 370>
VStem: 255 34<854 889 854 900.5> 414 33<854 889>
CounterMasks: 1 de
LayerCount: 2
Fore
SplineSet
351 776 m 0
 301 776 255 812 255 872 c 0
 255 929 301 967 351 967 c 0
 402 967 447 930 447 872 c 0
 447 813 402 776 351 776 c 0
351 805 m 0
 389 805 414 836 414 872 c 0
 414 906 389 937 351 937 c 0
 314 937 289 906 289 872 c 0
 289 836 314 805 351 805 c 0
333 647 m 1
 216 282 l 1
 453 282 l 1
 333 647 l 1
420 0 m 1
 420 30 l 1
 532 38 l 1
 463 251 l 1
 206 251 l 1
 138 39 l 1
 235 29 l 1
 235 0 l 1
 11 0 l 1
 11 29 l 1
 98 39 l 1
 328 732 l 1
 376 732 l 1
 610 37 l 1
 706 30 l 1
 706 0 l 1
 420 0 l 1
EndSplineSet
Validated: 1
EndChar

StartChar: AE
Encoding: 132 198 132
Width: 978
GlyphClass: 1
Flags: MW
HStem: 0 34<568 869 568 926> 0 179<894 926> 278 33<284 492 284 492 267 492> 351 34<566 750 566 750> 548 177<875 909 352 916 875 875> 685 40<479 492 479 479> 691 34<568 850 568 568>
VStem: 492 74<241 351 311 351 385 439.5> 763 32<250 489 250 489> 850 62.5 875 37.5
CounterMasks: 2 a380 92
LayerCount: 2
Fore
SplineSet
78 0 m 1xb380
 11 0 l 1
 11 29 l 1
 99 39 l 1
 440 687 l 1
 352 696 l 1xb380
 352 725 l 1
 909 725 l 1xb3a0
 916 548 l 1
 875 548 l 1xb9a0
 850 691 l 1
 568 691 l 1
 566 595 566 494 566 385 c 1
 750 385 l 1
 763 489 l 1
 795 489 l 1
 795 250 l 1
 763 250 l 1
 750 351 l 1
 566 351 l 1
 566 232 566 132 568 34 c 1
 869 34 l 1xb3c0
 894 179 l 1
 935 179 l 1x7380
 926 0 l 1
 386 0 l 1
 386 29 l 1
 490 38 l 1
 492 122 492 204 492 278 c 1
 267 278 l 1
 141 40 l 1
 236 29 l 1
 236 0 l 1
 78 0 l 1xb380
492 685 m 1xb580
 479 685 l 1
 284 311 l 1
 492 311 l 1
 492 685 l 1xb580
EndSplineSet
Validated: 1
EndChar

StartChar: Ccedilla
Encoding: 133 199 133
Width: 688
GlyphClass: 1
Flags: MW
HStem: -235 28<401 430 398 452> -88 23 -15 33<400 400 428 428> 706 36<345.5 454.5>
VStem: 58 83<252 471 252 476> 475 51<-166.5 -131> 585 41.5 593 42
LayerCount: 2
Fore
SplineSet
388 -88 m 1xfd
 400 -15 l 1
 196 -6 58 138 58 361 c 0
 58 591 212 742 419 742 c 0
 499 742 560 724 625 686 c 1
 628 529 l 1
 585 529 l 1
 560 675 l 1xfe
 519 697 479 706 430 706 c 0
 261 706 141 580 141 362 c 0
 141 142 261 18 425 18 c 0
 476 18 522 27 567 51 c 1
 593 196 l 1
 636 196 l 1
 634 40 l 1
 568 1 504 -14 428 -15 c 1
 421 -65 l 1
 487 -70 526 -103 526 -149 c 0
 526 -198 488 -235 416 -235 c 0
 386 -235 362 -230 343 -223 c 1
 348 -200 l 1
 370 -204 389 -207 407 -207 c 0
 453 -207 475 -184 475 -149 c 0
 475 -113 450 -91 388 -88 c 1xfd
EndSplineSet
Validated: 1
EndChar

StartChar: Egrave
Encoding: 134 200 134
Width: 649
GlyphClass: 1
Flags: MW
HStem: 0 34<239 538 239 597> 0 179<564 597> 351 34<238 420 238 421 238 420> 548 177<547 547 547 580 55 588> 691 34<239 522 239 239>
VStem: 161 77<335 351 385 390 390 439.5> 427 39
CounterMasks: 1 ae
LayerCount: 2
Fore
SplineSet
428 799 m 1xae
 415 781 l 1
 369 806 324 831 281 855 c 0
 240 877 226 892 226 908 c 0
 226 924 240 938 259 938 c 0
 274 938 287 928 318 899 c 0
 352 868 391 833 428 799 c 1xae
547 548 m 1xb6
 522 691 l 1
 239 691 l 1
 238 595 238 494 238 385 c 1
 420 385 l 1
 433 489 l 1
 466 489 l 1
 466 249 l 1
 433 249 l 1
 421 351 l 1
 238 351 l 1
 238 232 238 132 239 34 c 1
 538 34 l 1xae
 564 179 l 1
 605 179 l 1x6e
 597 0 l 1
 55 0 l 1
 55 29 l 1
 160 38 l 1
 161 136 161 235 161 335 c 2
 161 390 l 2
 161 490 161 590 160 687 c 1
 55 696 l 1
 55 725 l 1
 580 725 l 1xae
 588 548 l 1
 547 548 l 1xb6
EndSplineSet
Validated: 1
EndChar

StartChar: Eacute
Encoding: 135 201 135
Width: 649
GlyphClass: 1
Flags: MW
HStem: 0 34<239 538 239 597> 0 179<564 597> 351 34<238 420 238 421 238 420> 548 177<547 547 547 580 55 588> 691 34<239 522 239 239>
VStem: 161 77<335 351 385 390 390 439.5> 427 39
CounterMasks: 1 ae
LayerCount: 2
Fore
SplineSet
304 799 m 1xae
 343 834 380 869 414 900 c 0
 444 928 459 938 474 938 c 0
 491 938 505 924 505 908 c 0
 505 892 492 878 453 856 c 0
 408 831 363 806 318 781 c 1
 304 799 l 1xae
547 548 m 1xb6
 522 691 l 1
 239 691 l 1
 238 595 238 494 238 385 c 1
 420 385 l 1
 433 489 l 1
 466 489 l 1
 466 249 l 1
 433 249 l 1
 421 351 l 1
 238 351 l 1
 238 232 238 132 239 34 c 1
 538 34 l 1xae
 564 179 l 1
 605 179 l 1x6e
 597 0 l 1
 55 0 l 1
 55 29 l 1
 160 38 l 1
 161 136 161 235 161 335 c 2
 161 390 l 2
 161 490 161 590 160 687 c 1
 55 696 l 1
 55 725 l 1
 580 725 l 1xae
 588 548 l 1
 547 548 l 1xb6
EndSplineSet
Validated: 1
EndChar

StartChar: Ecircumflex
Encoding: 136 202 136
Width: 649
GlyphClass: 1
Flags: MW
HStem: 0 34<239 538 239 597> 0 179<564 597> 351 34<238 420 238 421 238 420> 548 177<547 547 547 580 55 588> 691 34<239 522 239 239>
VStem: 161 77<335 351 385 390 390 439.5> 427 39
CounterMasks: 1 ae
LayerCount: 2
Fore
SplineSet
381 920 m 1xae
 524 789 l 1
 511 773 l 1
 366 859 l 1
 222 773 l 1
 208 789 l 1
 351 920 l 1
 381 920 l 1xae
547 548 m 1xb6
 522 691 l 1
 239 691 l 1
 238 595 238 494 238 385 c 1
 420 385 l 1
 433 489 l 1
 466 489 l 1
 466 249 l 1
 433 249 l 1
 421 351 l 1
 238 351 l 1
 238 232 238 132 239 34 c 1
 538 34 l 1xae
 564 179 l 1
 605 179 l 1x6e
 597 0 l 1
 55 0 l 1
 55 29 l 1
 160 38 l 1
 161 136 161 235 161 335 c 2
 161 390 l 2
 161 490 161 590 160 687 c 1
 55 696 l 1
 55 725 l 1
 580 725 l 1xae
 588 548 l 1
 547 548 l 1xb6
EndSplineSet
Validated: 1
EndChar

StartChar: Edieresis
Encoding: 137 203 137
Width: 649
GlyphClass: 1
Flags: MW
HStem: 0 34<239 538 239 597> 0 179<564 597> 351 34<238 420 238 421 238 420> 548 177<547 547 547 580 55 588> 691 34<239 522 239 239> 806 95<235.5 261.5 470.5 496.5>
VStem: 161 77<335 351 385 390 390 439.5> 198 100<839 868> 427 39 435 98<839 868>
CounterMasks: 2 aa80 0d40
LayerCount: 2
Fore
SplineSet
248 806 m 0xb540
 223 806 198 825 198 853 c 0
 198 883 223 901 248 901 c 0
 275 901 298 883 298 853 c 0
 298 825 275 806 248 806 c 0xb540
484 806 m 0
 457 806 435 825 435 853 c 0
 435 883 457 901 484 901 c 0
 509 901 533 883 533 853 c 0
 533 825 509 806 484 806 c 0
547 548 m 1
 522 691 l 1
 239 691 l 1
 238 595 238 494 238 385 c 1
 420 385 l 1
 433 489 l 1
 466 489 l 1
 466 249 l 1
 433 249 l 1
 421 351 l 1
 238 351 l 1
 238 232 238 132 239 34 c 1
 538 34 l 1xaa80
 564 179 l 1
 605 179 l 1x6a80
 597 0 l 1
 55 0 l 1
 55 29 l 1
 160 38 l 1
 161 136 161 235 161 335 c 2
 161 390 l 2
 161 490 161 590 160 687 c 1
 55 696 l 1
 55 725 l 1
 580 725 l 1xaa80
 588 548 l 1
 547 548 l 1
EndSplineSet
Validated: 1
EndChar

StartChar: Igrave
Encoding: 138 204 138
Width: 400
GlyphClass: 1
Flags: MW
HStem: 0 33.5 691.5 33.5
VStem: 161 77<335 390 285 440>
LayerCount: 2
Fore
SplineSet
261 799 m 1
 248 781 l 1
 203 806 158 831 115 855 c 0
 74 877 60 892 60 908 c 0
 60 924 74 938 92 938 c 0
 107 938 121 928 152 899 c 0
 187 868 223 833 261 799 c 1
55 696 m 1
 55 725 l 1
 345 725 l 1
 345 696 l 1
 239 687 l 1
 238 590 238 490 238 390 c 2
 238 335 l 2
 238 235 238 137 239 38 c 1
 345 29 l 1
 345 0 l 1
 55 0 l 1
 55 29 l 1
 160 38 l 1
 161 136 161 235 161 335 c 2
 161 390 l 2
 161 490 161 590 160 687 c 1
 55 696 l 1
EndSplineSet
Validated: 1
EndChar

StartChar: Iacute
Encoding: 139 205 139
Width: 400
GlyphClass: 1
Flags: MW
HStem: 0 33.5 691.5 33.5
VStem: 161 77<335 390 285 440>
LayerCount: 2
Fore
SplineSet
139 799 m 1
 177 834 214 869 247 900 c 0
 278 928 292 938 307 938 c 0
 325 938 339 924 339 908 c 0
 339 892 326 878 287 856 c 0
 243 831 198 806 152 781 c 1
 139 799 l 1
55 696 m 1
 55 725 l 1
 345 725 l 1
 345 696 l 1
 239 687 l 1
 238 590 238 490 238 390 c 2
 238 335 l 2
 238 235 238 137 239 38 c 1
 345 29 l 1
 345 0 l 1
 55 0 l 1
 55 29 l 1
 160 38 l 1
 161 136 161 235 161 335 c 2
 161 390 l 2
 161 490 161 590 160 687 c 1
 55 696 l 1
EndSplineSet
Validated: 1
EndChar

StartChar: Icircumflex
Encoding: 140 206 140
Width: 400
GlyphClass: 1
Flags: MW
HStem: 0 33.5 691.5 33.5
VStem: 161 77<335 390 285 440>
LayerCount: 2
Fore
SplineSet
216 920 m 1
 359 789 l 1
 346 773 l 1
 200 859 l 1
 55 773 l 1
 42 789 l 1
 185 920 l 1
 216 920 l 1
55 696 m 1
 55 725 l 1
 345 725 l 1
 345 696 l 1
 239 687 l 1
 238 590 238 490 238 390 c 2
 238 335 l 2
 238 235 238 137 239 38 c 1
 345 29 l 1
 345 0 l 1
 55 0 l 1
 55 29 l 1
 160 38 l 1
 161 136 161 235 161 335 c 2
 161 390 l 2
 161 490 161 590 160 687 c 1
 55 696 l 1
EndSplineSet
Validated: 1
EndChar

StartChar: Idieresis
Encoding: 141 207 141
Width: 400
GlyphClass: 1
Flags: MW
HStem: 0 33.5 692 33 806 95<87.5 113.5 286.5 312>
VStem: 52 96<839 868> 161 77<335 390 285 440> 250 98<839 868>
CounterMasks: 1 74
LayerCount: 2
Fore
SplineSet
100 806 m 0
 75 806 52 825 52 853 c 0
 52 883 75 901 100 901 c 0
 127 901 148 883 148 853 c 0
 148 825 127 806 100 806 c 0
300 806 m 0
 273 806 250 825 250 853 c 0
 250 883 273 901 300 901 c 0
 324 901 348 883 348 853 c 0
 348 825 324 806 300 806 c 0
55 696 m 1
 55 725 l 1
 345 725 l 1
 345 696 l 1
 239 687 l 1
 238 590 238 490 238 390 c 2
 238 335 l 2
 238 235 238 137 239 38 c 1
 345 29 l 1
 345 0 l 1
 55 0 l 1
 55 29 l 1
 160 38 l 1
 161 136 161 235 161 335 c 2
 161 390 l 2
 161 490 161 590 160 687 c 1xc8
 55 696 l 1
EndSplineSet
Validated: 1
EndChar

StartChar: Eth
Encoding: 142 208 142
Width: 766
GlyphClass: 1
Flags: MW
HStem: 0 32<239 326 326 336> 355 34<55 161 55 161 238 420> 693 32<239 338 239 239>
VStem: 55 183<294.5 389 294.5 389> 161 77<296 355 389 441> 625 82<260 470>
CounterMasks: 1 ec
LayerCount: 2
Fore
SplineSet
420 355 m 1xec
 238 355 l 1
 238 234 238 132 239 32 c 1
 326 32 l 2
 524 32 625 158 625 362 c 0
 625 578 523 693 338 693 c 2
 239 693 l 1
 238 595 238 495 238 389 c 1
 420 389 l 1
 420 355 l 1xec
55 696 m 1xf4
 55 725 l 1
 350 725 l 2
 572 725 707 594 707 362 c 0
 707 139 567 0 336 0 c 2
 55 0 l 1
 55 29 l 1xf4
 160 38 l 1
 161 136 161 237 161 355 c 1xec
 55 355 l 1
 55 389 l 1xf4
 161 389 l 1
 161 493 161 591 160 687 c 1xec
 55 696 l 1xf4
EndSplineSet
Validated: 1
EndChar

StartChar: Ntilde
Encoding: 143 209 143
Width: 792
GlyphClass: 1
Flags: MW
HStem: -7 21G<618 618 618 654> 0 34.5 691 34 693 32 789 47<469 504.5 469 506> 874 47<293 327.5>
VStem: 141 38<40 332 40 690> 141 158<0 690> 499 155<-7 725 -7 725> 618 36<-7 686 383 686 -7 686>
CounterMasks: 2 2a40 24
LayerCount: 2
Fore
SplineSet
213 803 m 1x6e40
 225 874 262 921 321 921 c 0
 360 921 385 901 408 879 c 0
 431 856 452 836 486 836 c 0
 523 836 546 864 562 914 c 1
 584 907 l 1
 572 835 536 789 476 789 c 0
 435 789 411 808 389 830 c 0
 367 852 344 874 311 874 c 0
 275 874 252 846 237 796 c 1
 213 803 l 1x6e40
618 -7 m 1xae40
 176 643 l 1
 179 332 l 1
 179 40 l 1x6e40
 299 29 l 1
 299 0 l 1x6d40
 46 0 l 1
 46 29 l 1
 141 40 l 1
 141 690 l 1
 43 696 l 1x5e40
 43 725 l 1
 209 725 l 1
 620 116 l 1
 618 383 l 1
 618 686 l 1x6e40
 499 696 l 1
 499 725 l 1x6e80
 751 725 l 1
 751 696 l 1
 654 686 l 1
 654 -7 l 1
 618 -7 l 1xae40
EndSplineSet
Validated: 1
EndChar

StartChar: Ograve
Encoding: 144 210 144
Width: 762
GlyphClass: 1
Flags: MW
HStem: -15 33<302.5 459.5 302.5 469> 706 36<302.5 459.5>
VStem: 58 82<269 455 269 479.5> 621 83<269 455>
CounterMasks: 1 30
LayerCount: 2
Fore
SplineSet
443 799 m 1
 430 781 l 1
 385 806 340 831 296 855 c 0
 256 877 242 892 242 908 c 0
 242 924 256 938 273 938 c 0
 289 938 303 928 333 899 c 0
 368 868 405 833 443 799 c 1
381 -15 m 0
 205 -15 58 125 58 362 c 0
 58 597 205 742 381 742 c 0
 557 742 704 600 704 362 c 0
 704 128 557 -15 381 -15 c 0
381 18 m 0
 538 18 621 176 621 362 c 0
 621 548 538 706 381 706 c 0
 224 706 140 548 140 362 c 0
 140 176 224 18 381 18 c 0
EndSplineSet
Validated: 1
EndChar

StartChar: Oacute
Encoding: 145 211 145
Width: 762
GlyphClass: 1
Flags: MW
HStem: -15 33<302.5 459.5 302.5 469> 706 36<302.5 459.5>
VStem: 58 82<269 455 269 479.5> 621 83<269 455>
CounterMasks: 1 30
LayerCount: 2
Fore
SplineSet
320 799 m 1
 357 834 396 869 429 900 c 0
 459 928 474 938 489 938 c 0
 507 938 521 924 521 908 c 0
 521 892 508 878 467 856 c 0
 423 831 378 806 332 781 c 1
 320 799 l 1
381 -15 m 0
 205 -15 58 125 58 362 c 0
 58 597 205 742 381 742 c 0
 557 742 704 600 704 362 c 0
 704 128 557 -15 381 -15 c 0
381 18 m 0
 538 18 621 176 621 362 c 0
 621 548 538 706 381 706 c 0
 224 706 140 548 140 362 c 0
 140 176 224 18 381 18 c 0
EndSplineSet
Validated: 1
EndChar

StartChar: Ocircumflex
Encoding: 146 212 146
Width: 762
GlyphClass: 1
Flags: MW
HStem: -15 33<302.5 459.5 302.5 469> 706 36<302.5 459.5>
VStem: 58 82<269 455 269 479.5> 621 83<269 455>
CounterMasks: 1 30
LayerCount: 2
Fore
SplineSet
381 -15 m 0
 205 -15 58 125 58 362 c 0
 58 597 205 742 381 742 c 0
 557 742 704 600 704 362 c 0
 704 128 557 -15 381 -15 c 0
381 18 m 0
 538 18 621 176 621 362 c 0
 621 548 538 706 381 706 c 0
 224 706 140 548 140 362 c 0
 140 176 224 18 381 18 c 0
396 920 m 1
 539 789 l 1
 526 773 l 1
 382 859 l 1
 236 773 l 1
 224 789 l 1
 367 920 l 1
 396 920 l 1
EndSplineSet
Validated: 1
EndChar

StartChar: Otilde
Encoding: 147 213 147
Width: 762
GlyphClass: 1
Flags: MW
HStem: -15 33<302.5 459.5 302.5 469> 706 36<302.5 459.5> 789 47<451.5 487 451.5 488.5> 874 47<275 310.5>
VStem: 58 82<269 455 269 479.5> 621 83<269 455>
CounterMasks: 2 6c 50
LayerCount: 2
Fore
SplineSet
197 803 m 1
 207 874 245 921 303 921 c 0
 343 921 369 901 391 879 c 0
 415 856 435 836 468 836 c 0
 506 836 529 864 544 914 c 1
 566 907 l 1
 554 835 518 789 459 789 c 0
 419 789 394 808 373 830 c 0
 349 852 328 874 293 874 c 0
 257 874 233 846 218 796 c 1
 197 803 l 1
381 -15 m 0
 205 -15 58 125 58 362 c 0
 58 597 205 742 381 742 c 0
 557 742 704 600 704 362 c 0
 704 128 557 -15 381 -15 c 0
381 18 m 0
 538 18 621 176 621 362 c 0
 621 548 538 706 381 706 c 0
 224 706 140 548 140 362 c 0
 140 176 224 18 381 18 c 0
EndSplineSet
Validated: 1
EndChar

StartChar: Odieresis
Encoding: 148 214 148
Width: 762
GlyphClass: 1
Flags: MW
HStem: -15 33<302.5 459.5 302.5 469> 706 36<302.5 459.5> 806 95<251 277 485.5 512>
VStem: 58 82<269 455 269 479.5> 214 99<839 868> 449 100<839 868> 621 83<269 455>
CounterMasks: 2 72 0c
LayerCount: 2
Fore
SplineSet
264 806 m 0
 238 806 214 825 214 853 c 0
 214 883 238 901 264 901 c 0
 290 901 313 883 313 853 c 0
 313 825 290 806 264 806 c 0
499 806 m 0
 472 806 449 825 449 853 c 0
 449 883 472 901 499 901 c 0
 525 901 549 883 549 853 c 0
 549 825 525 806 499 806 c 0
381 -15 m 0
 205 -15 58 125 58 362 c 0
 58 597 205 742 381 742 c 0
 557 742 704 600 704 362 c 0
 704 128 557 -15 381 -15 c 0
381 18 m 0
 538 18 621 176 621 362 c 0
 621 548 538 706 381 706 c 0
 224 706 140 548 140 362 c 0
 140 176 224 18 381 18 c 0
EndSplineSet
Validated: 1
EndChar

StartChar: multiply
Encoding: 149 215 149
Width: 1000
GlyphClass: 1
Flags: MW
HStem: 62 612<224 224 224 776>
VStem: 194 612<92 92 92 644>
LayerCount: 2
Fore
SplineSet
224 62 m 1
 194 92 l 1
 469 368 l 1
 194 644 l 1
 224 674 l 1
 500 399 l 1
 776 674 l 1
 806 644 l 1
 531 368 l 1
 806 92 l 1
 776 62 l 1
 500 337 l 1
 224 62 l 1
EndSplineSet
Validated: 1
EndChar

StartChar: Oslash
Encoding: 150 216 150
Width: 762
GlyphClass: 1
Flags: MW
HStem: -15 33<342.5 461 342.5 469> 706 20 706 36<301 418.5>
VStem: 58 78<321.5 455 321.5 479.5> 626 78<269 403.5>
CounterMasks: 1 18
LayerCount: 2
Fore
SplineSet
136 362 m 0xb8
 136 281 152 206 183 147 c 1
 555 615 l 1
 514 671 456 706 381 706 c 0
 221 706 136 548 136 362 c 0xb8
577 582 m 1
 204 113 l 1
 245 54 304 18 381 18 c 0
 541 18 626 176 626 362 c 0
 626 445 609 522 577 582 c 1
381 742 m 0
 460 742 534 713 590 660 c 1
 663 751 l 1xb8
 691 726 l 1
 616 632 l 1xd8
 671 567 704 476 704 362 c 0
 704 128 557 -15 381 -15 c 0
 301 -15 226 14 169 69 c 1
 97 -22 l 1
 68 2 l 1
 143 97 l 1
 90 161 58 251 58 362 c 0
 58 597 205 742 381 742 c 0
EndSplineSet
Validated: 1
EndChar

StartChar: Ugrave
Encoding: 151 217 151
Width: 792
GlyphClass: 1
Flags: MW
HStem: -15 50<353.5 480.5> 691 34 691.5 33.5 692 33
VStem: 145 76<273 288 288 389> 616 36.5
CounterMasks: 1 0c
LayerCount: 2
Fore
SplineSet
479 799 m 1xcc
 466 781 l 1
 421 806 376 831 332 855 c 0
 292 877 278 892 278 908 c 0
 278 924 292 938 309 938 c 0
 324 938 339 928 369 899 c 0
 405 868 441 833 479 799 c 1xcc
493 696 m 1
 493 725 l 1
 749 725 l 1
 749 696 l 1
 653 686 l 1xcc
 652 281 l 2
 651 81 562 -15 399 -15 c 0
 246 -15 145 66 145 273 c 2
 145 389 l 2
 145 489 145 589 144 688 c 1
 47 696 l 1x9c
 47 725 l 1
 333 725 l 1xcc
 333 696 l 1
 222 687 l 1xac
 221 589 221 491 221 389 c 2
 221 288 l 2
 221 102 294 35 413 35 c 0
 552 35 616 111 616 304 c 2
 615 686 l 1
 493 696 l 1
EndSplineSet
Validated: 1
EndChar

StartChar: Uacute
Encoding: 152 218 152
Width: 792
GlyphClass: 1
Flags: MW
HStem: -15 50<353.5 480.5> 691 34 691.5 33.5 692 33
VStem: 145 76<273 288 288 389> 616 36.5
CounterMasks: 1 0c
LayerCount: 2
Fore
SplineSet
357 799 m 1xcc
 393 834 432 869 465 900 c 0
 495 928 510 938 525 938 c 0
 543 938 557 924 557 908 c 0
 557 892 544 878 504 856 c 0
 460 831 415 806 369 781 c 1
 357 799 l 1xcc
493 696 m 1
 493 725 l 1
 749 725 l 1
 749 696 l 1
 653 686 l 1xcc
 652 281 l 2
 651 81 562 -15 399 -15 c 0
 246 -15 145 66 145 273 c 2
 145 389 l 2
 145 489 145 589 144 688 c 1
 47 696 l 1x9c
 47 725 l 1
 333 725 l 1xcc
 333 696 l 1
 222 687 l 1xac
 221 589 221 491 221 389 c 2
 221 288 l 2
 221 102 294 35 413 35 c 0
 552 35 616 111 616 304 c 2
 615 686 l 1
 493 696 l 1
EndSplineSet
Validated: 1
EndChar

StartChar: Ucircumflex
Encoding: 153 219 153
Width: 792
GlyphClass: 1
Flags: MW
HStem: -15 50<353.5 480.5> 691 34 691.5 33.5 692 33
VStem: 145 76<273 288 288 389> 616 36.5
CounterMasks: 1 0c
LayerCount: 2
Fore
SplineSet
433 920 m 1xcc
 576 789 l 1
 563 773 l 1
 418 860 l 1
 272 773 l 1
 260 789 l 1
 403 920 l 1
 433 920 l 1xcc
493 696 m 1
 493 725 l 1
 749 725 l 1
 749 696 l 1
 653 686 l 1xcc
 652 281 l 2
 651 81 562 -15 399 -15 c 0
 246 -15 145 66 145 273 c 2
 145 389 l 2
 145 489 145 589 144 688 c 1
 47 696 l 1x9c
 47 725 l 1
 333 725 l 1xcc
 333 696 l 1
 222 687 l 1xac
 221 589 221 491 221 389 c 2
 221 288 l 2
 221 102 294 35 413 35 c 0
 552 35 616 111 616 304 c 2
 615 686 l 1
 493 696 l 1
EndSplineSet
Validated: 1
EndChar

StartChar: Udieresis
Encoding: 154 220 154
Width: 792
GlyphClass: 1
Flags: MW
HStem: -15 50<353.5 480.5> 691 34 806 95<287 313.5 522 548>
VStem: 145 76<273 288 288 389> 250 99<839 868> 486 99<839 868> 616 36.5
CounterMasks: 2 72 0c
LayerCount: 2
Fore
SplineSet
300 806 m 0
 274 806 250 825 250 853 c 0
 250 883 274 901 300 901 c 0
 327 901 349 883 349 853 c 0
 349 825 327 806 300 806 c 0
535 806 m 0
 509 806 486 825 486 853 c 0
 486 883 509 901 535 901 c 0
 561 901 585 883 585 853 c 0
 585 825 561 806 535 806 c 0
493 696 m 1
 493 725 l 1
 749 725 l 1
 749 696 l 1
 653 686 l 1
 652 281 l 2
 651 81 562 -15 399 -15 c 0
 246 -15 145 66 145 273 c 2
 145 389 l 2
 145 489 145 589 144 688 c 1
 47 696 l 1
 47 725 l 1
 333 725 l 1
 333 696 l 1
 222 687 l 1
 221 589 221 491 221 389 c 2
 221 288 l 2xd6
 221 102 294 35 413 35 c 0
 552 35 616 111 616 304 c 2
 615 686 l 1
 493 696 l 1
EndSplineSet
Validated: 1
EndChar

StartChar: Yacute
Encoding: 155 221 155
Width: 684
GlyphClass: 1
Flags: MW
HStem: 0 34 691 34 691.5 33.5 692.5 32.5
VStem: 305 75<229.5 288>
LayerCount: 2
Fore
SplineSet
306 799 m 1xc8
 344 834 380 869 415 900 c 0
 446 928 460 938 475 938 c 0
 493 938 507 924 507 908 c 0
 507 892 494 878 454 856 c 0
 409 831 364 806 319 781 c 1
 306 799 l 1xc8
426 696 m 1
 426 725 l 1
 666 725 l 1
 666 696 l 1
 575 686 l 1xc8
 380 292 l 1
 380 167 380 112 382 39 c 1
 500 29 l 1
 500 0 l 1
 186 0 l 1
 186 29 l 1
 303 39 l 1
 305 111 305 166 305 288 c 1
 105 689 l 1
 29 696 l 1x98
 29 725 l 1
 301 725 l 1xc8
 301 696 l 1
 190 687 l 1xa8
 363 330 l 1
 534 686 l 1
 426 696 l 1
EndSplineSet
Validated: 1
EndChar

StartChar: Thorn
Encoding: 156 222 156
Width: 651
GlyphClass: 1
Flags: MW
HStem: 0 33.5 0 34 177 33<237 327 237 332> 550 34<237 335 238 331> 691.5 33.5
VStem: 161 76<335 390 390 392 392 440> 538 74<329 435.5>
CounterMasks: 1 36
LayerCount: 2
Fore
SplineSet
55 0 m 1x7e
 55 29 l 1
 160 38 l 1
 161 136 161 235 161 335 c 2
 161 390 l 2
 161 490 161 590 160 687 c 1xbe
 55 696 l 1
 55 725 l 1
 350 725 l 1
 350 696 l 1
 239 687 l 1
 238 584 l 1
 335 584 l 2
 531 584 612 500 612 378 c 0
 612 269 541 177 327 177 c 2
 237 177 l 1
 239 39 l 1
 350 29 l 1
 350 0 l 1
 55 0 l 1x7e
237 550 m 1
 237 392 l 1
 237 335 l 1
 237 210 l 1
 332 210 l 2
 473 210 538 276 538 382 c 0
 538 489 475 550 331 550 c 2
 237 550 l 1
EndSplineSet
Validated: 1
EndChar

StartChar: germandbls
Encoding: 157 223 157
Width: 638
GlyphClass: 1
Flags: MW
HStem: -14 31<409.5 463.5 409.5 483> 0 31.5 781 32<350 413>
VStem: 128 70<227 484 484 493> 282 38<138 138> 322 61<383.5 410.5> 485 64<646.5 699.5> 537 64<89 138.5>
CounterMasks: 2 b9 14
LayerCount: 2
Fore
SplineSet
125 0 m 1x76
 32 0 l 1
 32 27 l 1
 126 36 l 1
 127 99 128 164 128 227 c 2
 128 484 l 2
 128 624 154 695 211 750 c 0
 260 796 318 813 382 813 c 0
 488 813 549 757 549 675 c 0
 549 618 513 575 455 525 c 0
 408 484 383 448 383 406 c 0x76
 383 361 409 336 472 299 c 0
 571 241 601 194 601 133 c 0
 601 45 540 -14 426 -14 c 0
 377 -14 331 -3 283 16 c 1
 282 138 l 1
 320 138 l 1
 341 33 l 1
 368 22 394 17 425 17 c 0
 502 17 537 57 537 117 c 0xb9
 537 160 516 195 433 239 c 0
 368 274 322 313 322 381 c 0
 322 440 359 483 408 529 c 0
 458 575 485 613 485 667 c 0
 485 732 453 781 373 781 c 0
 324 781 285 768 254 735 c 0
 216 693 198 634 198 493 c 2
 198 227 l 2
 198 152 201 75 203 0 c 1
 125 0 l 1x76
EndSplineSet
Validated: 1
EndChar

StartChar: agrave
Encoding: 158 224 158
Width: 551
GlyphClass: 1
Flags: MW
HStem: -14 46<191 226> -13 39<464.5 472.5> 495 31<236.5 290>
VStem: 53 71<95 152> 366 69<115 291 291 291 316 354> 368 67
CounterMasks: 1 18
LayerCount: 2
Fore
SplineSet
319 620 m 1xb8
 301 606 l 1
 259 647 217 688 177 723 c 0
 148 748 137 763 137 779 c 0
 137 799 153 810 169 810 c 0
 186 810 199 799 219 768 c 0
 251 719 286 669 319 620 c 1xb8
455 -13 m 0x74
 402 -13 375 23 368 83 c 1
 307 18 262 -14 190 -14 c 0xb4
 113 -14 53 31 53 114 c 0
 53 190 100 241 228 279 c 0
 272 292 321 305 366 316 c 1
 366 354 l 2
 366 466 330 495 250 495 c 0
 223 495 195 490 166 478 c 1
 150 407 l 2
 145 376 130 365 107 365 c 0
 85 365 71 377 67 398 c 1
 88 479 160 526 267 526 c 0
 379 526 435 476 435 354 c 2
 435 111 l 2
 435 45 450 26 479 26 c 0
 496 26 508 32 524 49 c 1x78
 539 33 l 1
 519 2 490 -13 455 -13 c 0x74
366 115 m 1xb8
 366 291 l 1
 323 279 279 266 242 253 c 0
 155 221 124 179 124 126 c 0
 124 64 162 32 220 32 c 0
 262 32 300 52 366 115 c 1xb8
EndSplineSet
Validated: 1
EndChar

StartChar: aacute
Encoding: 159 225 159
Width: 551
GlyphClass: 1
Flags: MW
HStem: -14 46<191 226> -13 39<464.5 472.5> 495 31<236.5 290>
VStem: 53 71<95 152> 366 69<115 291 291 291 316 354> 368 67
CounterMasks: 1 18
LayerCount: 2
Fore
SplineSet
207 620 m 1xb8
 242 670 276 719 309 768 c 0
 328 799 341 810 359 810 c 0
 374 810 390 799 390 779 c 0
 390 763 378 748 350 722 c 0
 310 687 268 647 226 606 c 1
 207 620 l 1xb8
455 -13 m 0x74
 402 -13 375 23 368 83 c 1
 307 18 262 -14 190 -14 c 0xb4
 113 -14 53 31 53 114 c 0
 53 190 100 241 228 279 c 0
 272 292 321 305 366 316 c 1
 366 354 l 2
 366 466 330 495 250 495 c 0
 223 495 195 490 166 478 c 1
 150 407 l 2
 145 376 130 365 107 365 c 0
 85 365 71 377 67 398 c 1
 88 479 160 526 267 526 c 0
 379 526 435 476 435 354 c 2
 435 111 l 2
 435 45 450 26 479 26 c 0
 496 26 508 32 524 49 c 1x78
 539 33 l 1
 519 2 490 -13 455 -13 c 0x74
366 115 m 1xb8
 366 291 l 1
 323 279 279 266 242 253 c 0
 155 221 124 179 124 126 c 0
 124 64 162 32 220 32 c 0
 262 32 300 52 366 115 c 1xb8
EndSplineSet
Validated: 1
EndChar

StartChar: acircumflex
Encoding: 160 226 160
Width: 551
GlyphClass: 1
Flags: MW
HStem: -14 46<191 226> -13 39<464.5 472.5> 495 31<236.5 290>
VStem: 53 71<95 152> 366 69<115 291 291 291 316 354> 368 67
CounterMasks: 1 18
LayerCount: 2
Fore
SplineSet
455 -13 m 0x74
 402 -13 375 23 368 83 c 1
 307 18 262 -14 190 -14 c 0xb4
 113 -14 53 31 53 114 c 0
 53 190 100 241 228 279 c 0
 272 292 321 305 366 316 c 1
 366 354 l 2
 366 466 330 495 250 495 c 0
 223 495 195 490 166 478 c 1
 150 407 l 2
 145 376 130 365 107 365 c 0
 85 365 71 377 67 398 c 1
 88 479 160 526 267 526 c 0
 379 526 435 476 435 354 c 2
 435 111 l 2
 435 45 450 26 479 26 c 0
 496 26 508 32 524 49 c 1x78
 539 33 l 1
 519 2 490 -13 455 -13 c 0x74
392 595 m 1
 264 722 l 1
 136 595 l 1
 119 610 l 1
 249 791 l 1
 279 791 l 1
 408 610 l 1
 392 595 l 1
366 115 m 1xb8
 366 291 l 1
 323 279 279 266 242 253 c 0
 155 221 124 179 124 126 c 0
 124 64 162 32 220 32 c 0
 262 32 300 52 366 115 c 1xb8
EndSplineSet
Validated: 1
EndChar

StartChar: atilde
Encoding: 161 227 161
Width: 551
GlyphClass: 1
Flags: MW
HStem: -14 46<191 226> -13 39<464.5 472.5> 495 31<236.5 290> 629 47<328.5 360 328.5 362> 714 47<167.5 200.5>
VStem: 53 71<95 152> 366 69<115 291 291 291 316 354> 368 67
CounterMasks: 2 36 28
LayerCount: 2
Fore
SplineSet
95 642 m 1xbe
 106 712 140 761 193 761 c 0
 229 761 253 741 273 719 c 0
 295 694 314 676 343 676 c 0
 377 676 398 704 412 754 c 1
 433 747 l 1
 422 676 389 629 335 629 c 0
 298 629 275 648 256 669 c 0
 233 692 216 714 185 714 c 0
 150 714 130 686 116 634 c 1
 95 642 l 1xbe
455 -13 m 0x7d
 402 -13 375 23 368 83 c 1
 307 18 262 -14 190 -14 c 0xbd
 113 -14 53 31 53 114 c 0
 53 190 100 241 228 279 c 0
 272 292 321 305 366 316 c 1
 366 354 l 2
 366 466 330 495 250 495 c 0
 223 495 195 490 166 478 c 1
 150 407 l 2
 145 376 130 365 107 365 c 0
 85 365 71 377 67 398 c 1
 88 479 160 526 267 526 c 0
 379 526 435 476 435 354 c 2
 435 111 l 2
 435 45 450 26 479 26 c 0
 496 26 508 32 524 49 c 1x7e
 539 33 l 1
 519 2 490 -13 455 -13 c 0x7d
366 115 m 1xbe
 366 291 l 1
 323 279 279 266 242 253 c 0
 155 221 124 179 124 126 c 0
 124 64 162 32 220 32 c 0
 262 32 300 52 366 115 c 1xbe
EndSplineSet
Validated: 1
EndChar

StartChar: adieresis
Encoding: 162 228 162
Width: 551
GlyphClass: 1
Flags: MW
HStem: -14 46<191 226> -13 39<464.5 472.5> 495 31<236.5 290> 670 95<143.5 169.5 359.5 385>
VStem: 53 71<95 152> 108 97<702.5 731.5> 323 98<702.5 731.5> 366 69<115 291 291 291 316 354> 368 67
CounterMasks: 2 39 06
LayerCount: 2
Fore
SplineSet
156 670 m 0xb6
 131 670 108 688 108 717 c 0
 108 746 131 765 156 765 c 0
 183 765 205 746 205 717 c 0
 205 688 183 670 156 670 c 0xb6
373 670 m 0
 346 670 323 688 323 717 c 0
 323 746 346 765 373 765 c 0
 397 765 421 746 421 717 c 0
 421 688 397 670 373 670 c 0
455 -13 m 0x7880
 402 -13 375 23 368 83 c 1
 307 18 262 -14 190 -14 c 0xb880
 113 -14 53 31 53 114 c 0
 53 190 100 241 228 279 c 0
 272 292 321 305 366 316 c 1
 366 354 l 2
 366 466 330 495 250 495 c 0
 223 495 195 490 166 478 c 1
 150 407 l 2
 145 376 130 365 107 365 c 0
 85 365 71 377 67 398 c 1
 88 479 160 526 267 526 c 0
 379 526 435 476 435 354 c 2
 435 111 l 2
 435 45 450 26 479 26 c 0
 496 26 508 32 524 49 c 1x79
 539 33 l 1
 519 2 490 -13 455 -13 c 0x7880
366 115 m 1xb9
 366 291 l 1
 323 279 279 266 242 253 c 0
 155 221 124 179 124 126 c 0
 124 64 162 32 220 32 c 0
 262 32 300 52 366 115 c 1xb9
EndSplineSet
Validated: 1
EndChar

StartChar: aring
Encoding: 163 229 163
Width: 551
GlyphClass: 1
Flags: MW
HStem: -14 46<191 226> -13 39<464.5 472.5> 495 31<236.5 290> 607 30<243 285 243 291.5> 782 30<243 285>
VStem: 53 71<95 152> 159 37<691 729 691 741> 332 37<691 729> 366 69<115 291 291 291 316 354> 368 67
CounterMasks: 2 3b 0480
LayerCount: 2
Fore
SplineSet
264 637 m 0xbf
 306 637 332 672 332 710 c 0
 332 748 306 782 264 782 c 0
 222 782 196 748 196 710 c 0
 196 672 222 637 264 637 c 0xbf
264 607 m 0
 210 607 159 646 159 710 c 0
 159 772 210 812 264 812 c 0
 319 812 369 774 369 710 c 0
 369 646 319 607 264 607 c 0
455 -13 m 0x7e40
 402 -13 375 23 368 83 c 1
 307 18 262 -14 190 -14 c 0xbe40
 113 -14 53 31 53 114 c 0
 53 190 100 241 228 279 c 0
 272 292 321 305 366 316 c 1
 366 354 l 2
 366 466 330 495 250 495 c 0
 223 495 195 490 166 478 c 1
 150 407 l 2
 145 376 130 365 107 365 c 0
 85 365 71 377 67 398 c 1
 88 479 160 526 267 526 c 0
 379 526 435 476 435 354 c 2
 435 111 l 2
 435 45 450 26 479 26 c 0
 496 26 508 32 524 49 c 1x7e80
 539 33 l 1
 519 2 490 -13 455 -13 c 0x7e40
366 115 m 1xbe80
 366 291 l 1
 323 279 279 266 242 253 c 0
 155 221 124 179 124 126 c 0
 124 64 162 32 220 32 c 0
 262 32 300 52 366 115 c 1xbe80
EndSplineSet
Validated: 1
EndChar

StartChar: ae
Encoding: 164 230 164
Width: 853
GlyphClass: 1
Flags: MW
HStem: -14 46<193 232 573.5 654.5> 261 31<437 695 695 711.5 437 799 436 695> 495 31<236 289 567 645>
VStem: 53 71<98 152.5 98 153> 365 72<261 292 290 292 292 354 292 410> 737 69<327.5 379.5 309 388.5>
CounterMasks: 1 fc
LayerCount: 2
Fore
SplineSet
609 -14 m 0
 517 -14 440 24 399 104 c 1
 319 19 270 -14 194 -14 c 0
 112 -14 53 31 53 116 c 0
 53 190 101 237 228 279 c 0
 269 293 319 306 365 316 c 1
 365 354 l 2
 365 466 328 495 250 495 c 0
 222 495 195 491 166 478 c 1
 151 405 l 2
 147 376 129 363 107 363 c 0
 86 363 71 375 68 396 c 1
 87 478 160 526 267 526 c 0
 351 526 406 495 422 423 c 1
 464 487 530 526 604 526 c 0
 729 526 806 438 806 321 c 0
 806 297 804 277 799 261 c 1
 436 261 l 1
 438 103 517 32 630 32 c 0
 699 32 752 58 794 105 c 1
 809 91 l 1
 766 26 700 -14 609 -14 c 0
437 292 m 1
 695 292 l 2
 728 292 737 309 737 346 c 0
 737 431 688 495 602 495 c 0
 516 495 445 418 437 292 c 1
388 127 m 1
 373 164 365 209 365 261 c 2
 365 290 l 1
 321 279 276 265 242 252 c 0
 155 220 124 178 124 127 c 0
 124 69 162 32 224 32 c 0
 276 32 310 54 388 127 c 1
EndSplineSet
Validated: 1
EndChar

StartChar: ccedilla
Encoding: 165 231 165
Width: 532
GlyphClass: 1
Flags: MW
HStem: -235 28<284 313 281.5 335.5> -88 23 -14 46<284 284 311 311> 495 31<256 320.5>
VStem: 50 75<186.5 331 186.5 338> 358 52<-166.5 -131>
LayerCount: 2
Fore
SplineSet
272 -88 m 1
 284 -14 l 1
 143 -9 50 89 50 250 c 0
 50 426 172 526 306 526 c 0
 392 526 464 477 488 399 c 1
 482 376 469 366 449 366 c 0
 423 366 410 379 403 408 c 2
 382 480 l 1
 357 491 333 495 308 495 c 0
 204 495 125 404 125 258 c 0
 125 115 204 32 316 32 c 0
 376 32 429 55 474 104 c 1
 490 91 l 1
 449 29 394 -9 311 -14 c 1
 304 -65 l 1
 370 -70 410 -102 410 -149 c 0
 410 -198 372 -235 299 -235 c 0
 269 -235 246 -230 227 -223 c 1
 232 -200 l 1
 253 -204 273 -207 290 -207 c 0
 336 -207 358 -184 358 -149 c 0
 358 -113 334 -91 272 -88 c 1
EndSplineSet
Validated: 1
EndChar

StartChar: egrave
Encoding: 166 232 166
Width: 541
GlyphClass: 1
Flags: MW
HStem: -14 46<262 344> 261 31<126 383 383 399.5 126 488 125 383> 495 31<247 333>
VStem: 50 75<261 261 261 337> 425 69<327.5 379.5 309 388.5>
CounterMasks: 1 f8
LayerCount: 2
Fore
SplineSet
347 620 m 1
 330 606 l 1
 288 647 246 688 205 723 c 0
 176 748 166 763 166 779 c 0
 166 799 181 810 197 810 c 0
 214 810 227 799 248 768 c 0
 280 719 314 669 347 620 c 1
300 -14 m 0
 155 -14 50 74 50 254 c 0
 50 420 161 526 292 526 c 0
 418 526 494 438 494 321 c 0
 494 297 492 277 488 261 c 1
 125 261 l 1
 127 102 206 32 318 32 c 0
 388 32 440 57 482 105 c 1
 497 91 l 1
 453 26 388 -14 300 -14 c 0
126 292 m 1
 383 292 l 2
 416 292 425 309 425 346 c 0
 425 431 376 495 290 495 c 0
 204 495 134 418 126 292 c 1
EndSplineSet
Validated: 1
EndChar

StartChar: eacute
Encoding: 167 233 167
Width: 541
GlyphClass: 1
Flags: MW
HStem: -14 46<262 344> 261 31<126 383 383 399.5 126 488 125 383> 495 31<247 333>
VStem: 50 75<261 261 261 337> 425 69<327.5 379.5 309 388.5>
CounterMasks: 1 f8
LayerCount: 2
Fore
SplineSet
236 620 m 1
 270 670 304 719 337 768 c 0
 357 799 370 810 387 810 c 0
 403 810 418 799 418 779 c 0
 418 763 407 748 379 722 c 0
 338 687 297 647 254 606 c 1
 236 620 l 1
300 -14 m 0
 155 -14 50 74 50 254 c 0
 50 420 161 526 292 526 c 0
 418 526 494 438 494 321 c 0
 494 297 492 277 488 261 c 1
 125 261 l 1
 127 102 206 32 318 32 c 0
 388 32 440 57 482 105 c 1
 497 91 l 1
 453 26 388 -14 300 -14 c 0
126 292 m 1
 383 292 l 2
 416 292 425 309 425 346 c 0
 425 431 376 495 290 495 c 0
 204 495 134 418 126 292 c 1
EndSplineSet
Validated: 1
EndChar

StartChar: ecircumflex
Encoding: 168 234 168
Width: 541
GlyphClass: 1
Flags: MW
HStem: -14 46<262 344> 261 31<126 383 383 399.5 126 488 125 383> 495 31<247 333>
VStem: 50 75<261 261 261 337> 425 69<327.5 379.5 309 388.5>
CounterMasks: 1 f8
LayerCount: 2
Fore
SplineSet
300 -14 m 0
 155 -14 50 74 50 254 c 0
 50 420 161 526 292 526 c 0
 418 526 494 438 494 321 c 0
 494 297 492 277 488 261 c 1
 125 261 l 1
 127 102 206 32 318 32 c 0
 388 32 440 57 482 105 c 1
 497 91 l 1
 453 26 388 -14 300 -14 c 0
126 292 m 1
 383 292 l 2
 416 292 425 309 425 346 c 0
 425 431 376 495 290 495 c 0
 204 495 134 418 126 292 c 1
420 595 m 1
 292 722 l 1
 164 595 l 1
 148 610 l 1
 277 791 l 1
 307 791 l 1
 437 610 l 1
 420 595 l 1
EndSplineSet
Validated: 1
EndChar

StartChar: edieresis
Encoding: 169 235 169
Width: 541
GlyphClass: 1
Flags: MW
HStem: -14 46<262 344> 261 31<126 383 383 399.5 126 488 125 383> 495 31<247 333> 670 95<171.5 197.5 387.5 413.5>
VStem: 50 75<261 261 261 337> 136 98<702.5 731.5> 351 98<702.5 731.5> 425 69<327.5 379.5 309 388.5>
CounterMasks: 2 e9 36
LayerCount: 2
Fore
SplineSet
184 670 m 0xfe
 159 670 136 688 136 717 c 0
 136 746 159 765 184 765 c 0
 211 765 234 746 234 717 c 0
 234 688 211 670 184 670 c 0xfe
401 670 m 0
 374 670 351 688 351 717 c 0
 351 746 374 765 401 765 c 0
 426 765 449 746 449 717 c 0
 449 688 426 670 401 670 c 0
300 -14 m 0xe9
 155 -14 50 74 50 254 c 0
 50 420 161 526 292 526 c 0
 418 526 494 438 494 321 c 0
 494 297 492 277 488 261 c 1
 125 261 l 1
 127 102 206 32 318 32 c 0
 388 32 440 57 482 105 c 1
 497 91 l 1
 453 26 388 -14 300 -14 c 0xe9
126 292 m 1
 383 292 l 2
 416 292 425 309 425 346 c 0
 425 431 376 495 290 495 c 0
 204 495 134 418 126 292 c 1
EndSplineSet
Validated: 1
EndChar

StartChar: igrave
Encoding: 170 236 170
Width: 328
GlyphClass: 1
Flags: MW
HStem: 0 31 0 31.5 459 28 495 20G<206 206> 503 20G<194 194>
VStem: 134 70<227 285 285 318.5>
LayerCount: 2
Fore
SplineSet
219 620 m 1x6c
 201 606 l 1
 159 647 117 688 77 723 c 0
 48 748 37 763 37 779 c 0
 37 799 53 810 69 810 c 0
 86 810 99 799 119 768 c 0
 151 719 186 669 219 620 c 1x6c
130 0 m 1
 44 0 l 1
 44 27 l 1
 131 36 l 1
 133 91 134 173 134 227 c 2
 134 285 l 2
 134 352 132 407 130 457 c 1
 39 461 l 1
 39 487 l 1
 194 523 l 1x6c
 206 515 l 1
 204 378 l 1
 204 227 l 1
 206 35 l 1
 285 27 l 1xb4
 285 0 l 1
 130 0 l 1
EndSplineSet
Validated: 1
EndChar

StartChar: iacute
Encoding: 171 237 171
Width: 328
GlyphClass: 1
Flags: MW
HStem: 0 31 0 31.5 459 28 495 20G<206 206> 503 20G<194 194>
VStem: 134 70<227 285 285 318.5>
LayerCount: 2
Fore
SplineSet
108 620 m 1x6c
 142 670 176 719 209 768 c 0
 228 799 241 810 259 810 c 0
 274 810 290 799 290 779 c 0
 290 763 279 748 251 722 c 0
 210 687 169 647 126 606 c 1
 108 620 l 1x6c
130 0 m 1
 44 0 l 1
 44 27 l 1
 131 36 l 1
 133 91 134 173 134 227 c 2
 134 285 l 2
 134 352 132 407 130 457 c 1
 39 461 l 1
 39 487 l 1
 194 523 l 1x6c
 206 515 l 1
 204 378 l 1
 204 227 l 1
 206 35 l 1
 285 27 l 1xb4
 285 0 l 1
 130 0 l 1
EndSplineSet
Validated: 1
EndChar

StartChar: icircumflex
Encoding: 172 238 172
Width: 328
GlyphClass: 1
Flags: MW
HStem: 0 31 0 31.5 459 28 495 20G<206 206> 503 20G<194 194>
VStem: 134 70<227 285 285 318.5>
LayerCount: 2
Fore
SplineSet
292 595 m 1x6c
 164 722 l 1
 37 595 l 1
 19 610 l 1
 149 791 l 1
 179 791 l 1
 308 610 l 1
 292 595 l 1x6c
130 0 m 1
 44 0 l 1
 44 27 l 1
 131 36 l 1
 133 91 134 173 134 227 c 2
 134 285 l 2
 134 352 132 407 130 457 c 1
 39 461 l 1
 39 487 l 1
 194 523 l 1x6c
 206 515 l 1
 204 378 l 1
 204 227 l 1
 206 35 l 1
 285 27 l 1xb4
 285 0 l 1
 130 0 l 1
EndSplineSet
Validated: 1
EndChar

StartChar: idieresis
Encoding: 173 239 173
Width: 328
GlyphClass: 1
Flags: MW
HStem: 0 32 459 28 495 20G<206 206> 503 20G<194 194> 670 95<52 76.5 243.5 269>
VStem: 17 96<702.5 731.5> 134 70<227 285 285 318.5> 208 96<702.5 731.5>
CounterMasks: 1 8d
LayerCount: 2
Fore
SplineSet
64 670 m 0xdd
 40 670 17 688 17 717 c 0
 17 746 40 765 64 765 c 0
 89 765 113 746 113 717 c 0
 113 688 89 670 64 670 c 0xdd
256 670 m 0
 231 670 208 688 208 717 c 0
 208 746 231 765 256 765 c 0
 282 765 304 746 304 717 c 0
 304 688 282 670 256 670 c 0
130 0 m 1xda
 44 0 l 1
 44 27 l 1
 131 36 l 1
 133 91 134 173 134 227 c 2
 134 285 l 2
 134 352 132 407 130 457 c 1
 39 461 l 1
 39 487 l 1
 194 523 l 1xda
 206 515 l 1
 204 378 l 1
 204 227 l 1
 206 35 l 1
 285 27 l 1xea
 285 0 l 1
 130 0 l 1xda
EndSplineSet
Validated: 1
EndChar

StartChar: eth
Encoding: 174 240 174
Width: 589
GlyphClass: 1
Flags: MW
HStem: -14 30<243.5 343 243.5 359> 480 32<242.5 322 223 337.5>
VStem: 50 77<176 323.5 176 332> 458 73<193.5 330.5>
CounterMasks: 1 30
LayerCount: 2
Fore
SplineSet
291 16 m 0
 395 16 458 113 458 255 c 0
 458 406 384 480 291 480 c 0
 194 480 127 399 127 248 c 0
 127 104 196 16 291 16 c 0
167 580 m 1
 153 609 l 1
 304 686 l 1
 265 722 217 756 157 788 c 1
 172 814 l 1
 239 784 296 747 345 706 c 1
 516 793 l 1
 530 765 l 1
 370 683 l 1
 476 581 531 449 531 292 c 0
 531 95 431 -14 287 -14 c 0
 157 -14 50 84 50 250 c 0
 50 414 158 512 288 512 c 0
 356 512 413 479 450 421 c 1
 431 514 395 593 328 662 c 1
 167 580 l 1
EndSplineSet
Validated: 1
EndChar

StartChar: ntilde
Encoding: 175 241 175
Width: 655
GlyphClass: 1
Flags: MW
HStem: 0 32 458.5 27.5 475 51<370 404> 495 20G<195 195> 503 20G<182 182> 629 47<401 433 401 434> 714 47<240.5 273>
VStem: 131 66.5 131 70<227 285 285 319> 470 69<227 338 227 339 227 389.5>
CounterMasks: 2 24c0 82
LayerCount: 2
Fore
SplineSet
168 642 m 1xa6c0
 178 712 212 761 265 761 c 0
 301 761 326 741 345 719 c 0
 368 694 386 676 416 676 c 0
 450 676 470 704 484 754 c 1
 505 747 l 1
 494 676 461 629 407 629 c 0
 370 629 347 648 328 669 c 0
 306 692 288 714 258 714 c 0
 223 714 202 686 188 634 c 1
 168 642 l 1xa6c0
467 0 m 1
 382 0 l 1
 382 27 l 1
 468 36 l 1
 470 227 l 1
 470 339 l 2
 470 440 434 475 374 475 c 0
 331 475 271 455 201 384 c 1
 201 227 l 1
 203 35 l 1
 281 27 l 1xa6c0
 281 0 l 1
 43 0 l 1
 43 27 l 1
 129 36 l 1
 131 227 l 1
 131 285 l 2
 131 353 130 406 128 456 c 1
 38 461 l 1
 38 486 l 1
 182 523 l 1xcec0
 195 515 l 1x9740
 200 417 l 1
 269 494 337 526 403 526 c 0
 489 526 539 474 539 338 c 2
 539 227 l 1
 541 35 l 1
 620 27 l 1xa740
 620 0 l 1
 467 0 l 1
EndSplineSet
Validated: 1
EndChar

StartChar: ograve
Encoding: 176 242 176
Width: 590
GlyphClass: 1
Flags: MW
HStem: -14 30<242.5 345.5 242.5 357.5> 495 31<242.5 345.5>
VStem: 50 77<177.5 330.5 177.5 345> 462 78<177.5 330.5>
CounterMasks: 1 30
LayerCount: 2
Fore
SplineSet
294 -14 m 0
 168 -14 50 75 50 255 c 0
 50 435 170 526 294 526 c 0
 419 526 540 435 540 255 c 0
 540 74 421 -14 294 -14 c 0
294 16 m 0
 397 16 462 101 462 254 c 0
 462 407 397 495 294 495 c 0
 191 495 127 407 127 254 c 0
 127 101 191 16 294 16 c 0
349 620 m 1
 332 606 l 1
 290 647 248 688 207 723 c 0
 179 748 168 763 168 779 c 0
 168 799 183 810 199 810 c 0
 216 810 230 799 250 768 c 0
 282 719 316 669 349 620 c 1
EndSplineSet
Validated: 1
EndChar

StartChar: oacute
Encoding: 177 243 177
Width: 590
GlyphClass: 1
Flags: MW
HStem: -14 30<242.5 345.5 242.5 357.5> 495 31<242.5 345.5>
VStem: 50 77<177.5 330.5 177.5 345> 462 78<177.5 330.5>
CounterMasks: 1 30
LayerCount: 2
Fore
SplineSet
294 -14 m 0
 168 -14 50 75 50 255 c 0
 50 435 170 526 294 526 c 0
 419 526 540 435 540 255 c 0
 540 74 421 -14 294 -14 c 0
294 16 m 0
 397 16 462 101 462 254 c 0
 462 407 397 495 294 495 c 0
 191 495 127 407 127 254 c 0
 127 101 191 16 294 16 c 0
239 620 m 1
 273 670 307 719 339 768 c 0
 359 799 372 810 390 810 c 0
 405 810 420 799 420 779 c 0
 420 763 409 748 381 722 c 0
 340 687 299 647 256 606 c 1
 239 620 l 1
EndSplineSet
Validated: 1
EndChar

StartChar: ocircumflex
Encoding: 178 244 178
Width: 590
GlyphClass: 1
Flags: MW
HStem: -14 30<242.5 345.5 242.5 357.5> 495 31<242.5 345.5>
VStem: 50 77<177.5 330.5 177.5 345> 462 78<177.5 330.5>
CounterMasks: 1 30
LayerCount: 2
Fore
SplineSet
294 -14 m 0
 168 -14 50 75 50 255 c 0
 50 435 170 526 294 526 c 0
 419 526 540 435 540 255 c 0
 540 74 421 -14 294 -14 c 0
294 16 m 0
 397 16 462 101 462 254 c 0
 462 407 397 495 294 495 c 0
 191 495 127 407 127 254 c 0
 127 101 191 16 294 16 c 0
423 595 m 1
 295 721 l 1
 167 595 l 1
 151 610 l 1
 281 791 l 1
 309 791 l 1
 439 610 l 1
 423 595 l 1
EndSplineSet
Validated: 1
EndChar

StartChar: otilde
Encoding: 179 245 179
Width: 590
GlyphClass: 1
Flags: MW
HStem: -14 30<242.5 345.5 242.5 357.5> 495 31<242.5 345.5> 629 47<359.5 391 359.5 393> 714 47<199 231>
VStem: 50 77<177.5 330.5 177.5 345> 462 78<177.5 330.5>
CounterMasks: 2 6c 50
LayerCount: 2
Fore
SplineSet
294 -14 m 0
 168 -14 50 75 50 255 c 0
 50 435 170 526 294 526 c 0
 419 526 540 435 540 255 c 0
 540 74 421 -14 294 -14 c 0
294 16 m 0
 397 16 462 101 462 254 c 0
 462 407 397 495 294 495 c 0
 191 495 127 407 127 254 c 0
 127 101 191 16 294 16 c 0
126 642 m 1
 137 712 171 761 224 761 c 0
 259 761 284 741 304 719 c 0
 327 694 345 676 374 676 c 0
 408 676 429 704 443 754 c 1
 464 747 l 1
 453 676 420 629 366 629 c 0
 329 629 306 648 286 669 c 0
 264 692 246 714 216 714 c 0
 182 714 160 686 147 634 c 1
 126 642 l 1
EndSplineSet
Validated: 1
EndChar

StartChar: odieresis
Encoding: 180 246 180
Width: 590
GlyphClass: 1
Flags: MW
HStem: -14 30<242.5 345.5 242.5 357.5> 495 31<242.5 345.5> 670 95<174 200 390 415.5>
VStem: 50 77<177.5 330.5 177.5 345> 139 97<702.5 731.5> 354 97<702.5 731.5> 462 78<177.5 330.5>
CounterMasks: 2 72 0c
LayerCount: 2
Fore
SplineSet
294 -14 m 0xd2
 168 -14 50 75 50 255 c 0
 50 435 170 526 294 526 c 0
 419 526 540 435 540 255 c 0
 540 74 421 -14 294 -14 c 0xd2
294 16 m 0
 397 16 462 101 462 254 c 0
 462 407 397 495 294 495 c 0
 191 495 127 407 127 254 c 0
 127 101 191 16 294 16 c 0
187 670 m 0xfe
 161 670 139 688 139 717 c 0
 139 746 161 765 187 765 c 0
 213 765 236 746 236 717 c 0
 236 688 213 670 187 670 c 0xfe
403 670 m 0
 377 670 354 688 354 717 c 0
 354 746 377 765 403 765 c 0
 428 765 451 746 451 717 c 0
 451 688 428 670 403 670 c 0
EndSplineSet
Validated: 1
EndChar

StartChar: divide
Encoding: 181 247 181
Width: 1000
GlyphClass: 1
Flags: MW
HStem: 27 134<481 519> 347 42<120 880 120 880> 575 134<481 519>
VStem: 433 134<75 113 623 661>
CounterMasks: 1 e0
LayerCount: 2
Fore
SplineSet
433 642 m 0
 433 680 462 709 500 709 c 0
 538 709 567 680 567 642 c 0
 567 604 538 575 500 575 c 0
 462 575 433 604 433 642 c 0
880 347 m 1
 120 347 l 1
 120 389 l 1
 880 389 l 1
 880 347 l 1
433 94 m 0
 433 132 462 161 500 161 c 0
 538 161 567 132 567 94 c 0
 567 56 538 27 500 27 c 0
 462 27 433 56 433 94 c 0
EndSplineSet
Validated: 1
EndChar

StartChar: oslash
Encoding: 182 248 182
Width: 590
GlyphClass: 1
Flags: MW
HStem: -14 30<267.5 347 267.5 357.5> -5 21G 495 31<241.5 319.5> 500 20G<524 524>
VStem: 50 74<224.5 330.5 224.5 345> 465 75<177.5 285.5>
CounterMasks: 1 0c
LayerCount: 2
Fore
SplineSet
294 -14 m 0xac
 237 -14 182 4 139 40 c 1
 85 -27 l 1xac
 59 -5 l 1
 115 64 l 1
 75 108 50 172 50 255 c 0
 50 435 170 526 294 526 c 0
 349 526 403 508 446 474 c 1
 500 540 l 1x6c
 524 520 l 1
 470 452 l 1x9c
 512 407 540 341 540 255 c 0
 540 74 421 -14 294 -14 c 0xac
151 109 m 1
 416 436 l 1
 387 475 345 495 294 495 c 0
 189 495 124 407 124 254 c 0
 124 195 133 146 151 109 c 1
294 16 m 0
 400 16 465 101 465 254 c 0
 465 317 454 369 434 408 c 1
 169 78 l 1
 198 37 241 16 294 16 c 0
EndSplineSet
Validated: 1
EndChar

StartChar: ugrave
Encoding: 183 249 183
Width: 648
GlyphClass: 1
Flags: MW
HStem: -14 51<257.5 301> -9 40 0 21G<602 602> 472.5 45.5 473 45
VStem: 118 69 456 69<93 93> 457 68
CounterMasks: 1 06
LayerCount: 2
Fore
SplineSet
370 620 m 1x96
 352 606 l 1
 310 647 268 688 228 723 c 0
 199 748 188 763 188 779 c 0
 188 799 203 810 219 810 c 0
 236 810 249 799 270 768 c 0
 303 719 336 669 370 620 c 1x96
458 -9 m 1x55
 456 93 l 1
 405 29 340 -14 262 -14 c 0
 168 -14 115 37 116 185 c 2
 119 467 l 1
 34 478 l 1
 34 504 l 1
 181 518 l 1
 191 506 l 1x95
 187 379 l 1
 187 187 l 2
 187 76 224 37 291 37 c 0
 350 37 407 71 455 128 c 1
 456 469 l 1
 373 477 l 1x8e
 373 504 l 1
 519 518 l 1
 529 506 l 1
 525 379 l 1
 525 35 l 1
 602 27 l 1x56
 602 0 l 1x36
 458 -9 l 1x55
EndSplineSet
Validated: 33
EndChar

StartChar: uacute
Encoding: 184 250 184
Width: 648
GlyphClass: 1
Flags: MW
HStem: -14 51<257.5 301> -9 40 0 21G<602 602> 472.5 45.5 473 45
VStem: 118 69 456 69<93 93> 457 68
CounterMasks: 1 06
LayerCount: 2
Fore
SplineSet
259 620 m 1x96
 292 670 327 719 359 768 c 0
 379 799 392 810 409 810 c 0
 425 810 440 799 440 779 c 0
 440 763 430 748 402 722 c 0
 360 687 319 647 276 606 c 1
 259 620 l 1x96
458 -9 m 1x55
 456 93 l 1
 405 29 340 -14 262 -14 c 0
 168 -14 115 37 116 185 c 2
 119 467 l 1
 34 478 l 1
 34 504 l 1
 181 518 l 1
 191 506 l 1x95
 187 379 l 1
 187 187 l 2
 187 76 224 37 291 37 c 0
 350 37 407 71 455 128 c 1
 456 469 l 1
 373 477 l 1x8e
 373 504 l 1
 519 518 l 1
 529 506 l 1
 525 379 l 1
 525 35 l 1
 602 27 l 1x56
 602 0 l 1x36
 458 -9 l 1x55
EndSplineSet
Validated: 33
EndChar

StartChar: ucircumflex
Encoding: 185 251 185
Width: 648
GlyphClass: 1
Flags: MW
HStem: -14 51<257.5 301> -9 40 0 21G<602 602> 472.5 45.5 473 45
VStem: 118 69 457 68
CounterMasks: 1 06
LayerCount: 2
Fore
SplineSet
458 -9 m 1x56
 456 93 l 1
 405 29 340 -14 262 -14 c 0
 168 -14 115 37 116 185 c 2
 119 467 l 1
 34 478 l 1
 34 504 l 1
 181 518 l 1
 191 506 l 1x96
 187 379 l 1
 187 187 l 2
 187 76 224 37 291 37 c 0
 350 37 407 71 455 128 c 1
 456 469 l 1
 373 477 l 1x8e
 373 504 l 1
 519 518 l 1
 529 506 l 1
 525 379 l 1
 525 35 l 1
 602 27 l 1x56
 602 0 l 1x36
 458 -9 l 1x56
443 595 m 1
 315 722 l 1
 187 595 l 1
 171 610 l 1
 300 791 l 1
 330 791 l 1
 460 610 l 1
 443 595 l 1
EndSplineSet
Validated: 33
EndChar

StartChar: udieresis
Encoding: 186 252 186
Width: 648
GlyphClass: 1
Flags: MW
HStem: -14 51<257.5 301> -9 40 0 21G<602 602> 472.5 45.5 473 45 670 95<194.5 220 409.5 436>
VStem: 118 69 158 99<702.5 731.5> 374 97<702.5 731.5> 457 68
CounterMasks: 2 8640 0180
LayerCount: 2
Fore
SplineSet
207 670 m 0x9580
 182 670 158 688 158 717 c 0
 158 746 182 765 207 765 c 0
 233 765 257 746 257 717 c 0
 257 688 233 670 207 670 c 0x9580
423 670 m 0
 396 670 374 688 374 717 c 0
 374 746 396 765 423 765 c 0
 449 765 471 746 471 717 c 0
 471 688 449 670 423 670 c 0
458 -9 m 1x5640
 456 93 l 1
 405 29 340 -14 262 -14 c 0
 168 -14 115 37 116 185 c 2
 119 467 l 1
 34 478 l 1
 34 504 l 1
 181 518 l 1
 191 506 l 1x9640
 187 379 l 1
 187 187 l 2
 187 76 224 37 291 37 c 0
 350 37 407 71 455 128 c 1
 456 469 l 1
 373 477 l 1x8e40
 373 504 l 1
 519 518 l 1
 529 506 l 1
 525 379 l 1
 525 35 l 1
 602 27 l 1x5640
 602 0 l 1x3640
 458 -9 l 1x5640
EndSplineSet
Validated: 33
EndChar

StartChar: yacute
Encoding: 187 253 187
Width: 546
GlyphClass: 1
Flags: MW
HStem: -271 88<30 116> 479.5 32.5 480 32 480.5 31.5
VStem: -11 556 344 201<484 512 484 512>
LayerCount: 2
Fore
SplineSet
232 620 m 1x98
 266 670 301 719 333 768 c 0
 352 799 366 810 383 810 c 0
 398 810 414 799 414 779 c 0
 414 763 404 748 376 722 c 0
 334 687 293 647 250 606 c 1
 232 620 l 1x98
344 484 m 1xa4
 344 512 l 1
 545 512 l 1
 545 484 l 1
 478 477 l 1
 282 -47 l 2
 223 -204 156 -271 76 -271 c 0
 34 -271 -7 -253 -11 -220 c 1
 -7 -195 17 -183 43 -183 c 0
 67 -183 90 -196 112 -218 c 2
 123 -228 l 1
 173 -201 215 -141 246 -60 c 2
 260 -24 l 1
 60 477 l 1
 -8 484 l 1
 -8 512 l 1
 231 512 l 1x94
 231 484 l 1
 139 475 l 1xc8
 292 62 l 1
 368 271 l 1
 439 476 l 1
 344 484 l 1xa4
EndSplineSet
Validated: 1
EndChar

StartChar: thorn
Encoding: 188 254 188
Width: 623
GlyphClass: 1
Flags: MW
HStem: -260 31 -14 44<326.5 380 311 417> 483 43<336 386> 745 29
VStem: 125 69<-30 64 444 639> 498 75<178 334.5>
CounterMasks: 1 0c
LayerCount: 2
Fore
SplineSet
35 -260 m 1
 35 -233 l 1
 123 -225 l 1
 125 -30 l 1
 125 743 l 1
 34 747 l 1
 34 774 l 1
 181 802 l 1
 197 793 l 1
 194 639 l 1
 194 444 l 1
 246 503 307 526 365 526 c 0
 486 526 573 422 573 262 c 0
 573 92 481 -14 353 -14 c 0
 300 -14 243 6 194 64 c 1
 194 -30 l 1
 196 -225 l 1
 296 -233 l 1
 296 -260 l 1
 35 -260 l 1
195 412 m 1
 195 94 l 1
 242 49 286 30 336 30 c 0
 424 30 498 96 498 260 c 0
 498 409 432 483 340 483 c 0
 294 483 248 467 195 412 c 1
EndSplineSet
Validated: 1
EndChar

StartChar: ydieresis
Encoding: 189 255 189
Width: 546
GlyphClass: 1
Flags: MW
HStem: -271 88<30 116> 480 32 670 95<168 193.5 384 409.5>
VStem: 132 98<702.5 731.5> 344 201<484 512 484 512> 348 97<702.5 731.5>
CounterMasks: 2 74 18
LayerCount: 2
Fore
SplineSet
180 670 m 0xf4
 156 670 132 688 132 717 c 0
 132 746 156 765 180 765 c 0
 207 765 230 746 230 717 c 0
 230 688 207 670 180 670 c 0xf4
397 670 m 0
 371 670 348 688 348 717 c 0
 348 746 371 765 397 765 c 0
 422 765 445 746 445 717 c 0
 445 688 422 670 397 670 c 0
344 484 m 1xf8
 344 512 l 1
 545 512 l 1
 545 484 l 1
 478 477 l 1
 282 -47 l 2
 223 -204 156 -271 76 -271 c 0
 34 -271 -7 -253 -11 -220 c 1
 -7 -195 17 -183 43 -183 c 0
 67 -183 90 -196 112 -218 c 2
 123 -228 l 1
 173 -201 215 -141 246 -60 c 2
 260 -24 l 1
 60 477 l 1
 -8 484 l 1
 -8 512 l 1
 231 512 l 1xf8
 231 484 l 1
 139 475 l 1xf4
 292 62 l 1
 368 271 l 1
 439 476 l 1
 344 484 l 1xf8
EndSplineSet
Validated: 1
EndChar

StartChar: Amacron
Encoding: 190 256 190
Width: 712
GlyphClass: 1
Flags: MW
HStem: 0 34 251 31<216 453 216 463 206 453> 712 20G<328 376 376 376> 822 46<194 508 194 508>
VStem: 11 695<0 29 29 29>
CounterMasks: 1 d0
LayerCount: 2
Fore
SplineSet
194 822 m 1
 194 868 l 1
 508 868 l 1
 508 822 l 1
 194 822 l 1
333 647 m 1
 216 282 l 1
 453 282 l 1
 333 647 l 1
420 0 m 1
 420 30 l 1
 532 38 l 1
 463 251 l 1
 206 251 l 1
 138 39 l 1
 235 29 l 1
 235 0 l 1
 11 0 l 1
 11 29 l 1
 98 39 l 1
 328 732 l 1
 376 732 l 1
 610 37 l 1
 706 30 l 1
 706 0 l 1
 420 0 l 1
EndSplineSet
Validated: 1
EndChar

StartChar: amacron
Encoding: 191 257 191
Width: 551
GlyphClass: 1
Flags: MW
HStem: -14 46<191 226> -13 39<464.5 472.5> 495 31<236.5 290> 666 46<132 396 132 396>
VStem: 53 71<95 152> 366 69<115 291 291 291 316 354> 368 67
CounterMasks: 1 3c
LayerCount: 2
Fore
SplineSet
132 666 m 1xbc
 132 712 l 1
 396 712 l 1
 396 666 l 1
 132 666 l 1xbc
455 -13 m 0x7a
 402 -13 375 23 368 83 c 1
 307 18 262 -14 190 -14 c 0xba
 113 -14 53 31 53 114 c 0
 53 190 100 241 228 279 c 0
 272 292 321 305 366 316 c 1
 366 354 l 2
 366 466 330 495 250 495 c 0
 223 495 195 490 166 478 c 1
 150 407 l 2
 145 376 130 365 107 365 c 0
 85 365 71 377 67 398 c 1
 88 479 160 526 267 526 c 0
 379 526 435 476 435 354 c 2
 435 111 l 2
 435 45 450 26 479 26 c 0
 496 26 508 32 524 49 c 1x7c
 539 33 l 1
 519 2 490 -13 455 -13 c 0x7a
366 115 m 1xbc
 366 291 l 1
 323 279 279 266 242 253 c 0
 155 221 124 179 124 126 c 0
 124 64 162 32 220 32 c 0
 262 32 300 52 366 115 c 1xbc
EndSplineSet
Validated: 1
EndChar

StartChar: Abreve
Encoding: 192 258 192
Width: 712
GlyphClass: 1
Flags: MW
HStem: 0 34 251 31<216 453 216 463 206 453> 712 20G<328 376 376 376> 790 48<318 384.5 318 398>
VStem: 11 695<0 29 29 29>
CounterMasks: 1 d0
LayerCount: 2
Fore
SplineSet
198 922 m 1
 220 931 l 1
 241 874 285 838 351 838 c 0
 418 838 461 874 482 931 c 1
 505 922 l 1
 492 859 445 790 351 790 c 0
 257 790 211 859 198 922 c 1
333 647 m 1
 216 282 l 1
 453 282 l 1
 333 647 l 1
420 0 m 1
 420 30 l 1
 532 38 l 1
 463 251 l 1
 206 251 l 1
 138 39 l 1
 235 29 l 1
 235 0 l 1
 11 0 l 1
 11 29 l 1
 98 39 l 1
 328 732 l 1
 376 732 l 1
 610 37 l 1
 706 30 l 1
 706 0 l 1
 420 0 l 1
EndSplineSet
Validated: 1
EndChar

StartChar: abreve
Encoding: 193 259 193
Width: 551
GlyphClass: 1
Flags: MW
HStem: -14 46<191 226> -13 39<464.5 472.5> 495 31<236.5 290> 626 51<226.5 301 226.5 310>
VStem: 53 71<95 152> 366 69<115 291 291 291 316 354> 368 67
CounterMasks: 1 3c
LayerCount: 2
Fore
SplineSet
105 783 m 1xbc
 127 790 l 1
 147 723 189 677 264 677 c 0
 338 677 381 724 402 790 c 1
 423 783 l 1
 412 697 356 626 264 626 c 0
 172 626 116 697 105 783 c 1xbc
455 -13 m 0x7a
 402 -13 375 23 368 83 c 1
 307 18 262 -14 190 -14 c 0xba
 113 -14 53 31 53 114 c 0
 53 190 100 241 228 279 c 0
 272 292 321 305 366 316 c 1
 366 354 l 2
 366 466 330 495 250 495 c 0
 223 495 195 490 166 478 c 1
 150 407 l 2
 145 376 130 365 107 365 c 0
 85 365 71 377 67 398 c 1
 88 479 160 526 267 526 c 0
 379 526 435 476 435 354 c 2
 435 111 l 2
 435 45 450 26 479 26 c 0
 496 26 508 32 524 49 c 1x7c
 539 33 l 1
 519 2 490 -13 455 -13 c 0x7a
366 115 m 1xbc
 366 291 l 1
 323 279 279 266 242 253 c 0
 155 221 124 179 124 126 c 0
 124 64 162 32 220 32 c 0
 262 32 300 52 366 115 c 1xbc
EndSplineSet
Validated: 1
EndChar

StartChar: Dcroat
Encoding: 194 272 194
Width: 766
GlyphClass: 1
Flags: MW
HStem: 0 32<239 326 326 336> 355 34<55 161 55 161 238 420> 693 32<239 338 239 239>
VStem: 55 183<294.5 389 294.5 389> 161 77<296 355 389 441> 625 82<260 470>
CounterMasks: 1 ec
LayerCount: 2
Fore
SplineSet
420 355 m 1xec
 238 355 l 1
 238 234 238 132 239 32 c 1
 326 32 l 2
 524 32 625 158 625 362 c 0
 625 578 523 693 338 693 c 2
 239 693 l 1
 238 595 238 495 238 389 c 1
 420 389 l 1
 420 355 l 1xec
55 696 m 1xf4
 55 725 l 1
 350 725 l 2
 572 725 707 594 707 362 c 0
 707 139 567 0 336 0 c 2
 55 0 l 1
 55 29 l 1xf4
 160 38 l 1
 161 136 161 237 161 355 c 1xec
 55 355 l 1
 55 389 l 1xf4
 161 389 l 1
 161 493 161 591 160 687 c 1xec
 55 696 l 1xf4
EndSplineSet
Validated: 1
EndChar

StartChar: dcroat
Encoding: 195 273 195
Width: 622
GlyphClass: 1
Flags: MW
HStem: -14 44<243 297.5> -9 39.5 0 21G<596 596> 469 43<249.5 307 215.5 320> 613 33<227 431 227 431 499 589> 746 28
VStem: 50 76<173 322.5 173 327> 429 70<99 403 403 403> 431 68<434 613 34 613 34 745> 431 69.5 431.5 67.5
CounterMasks: 1 1f
LayerCount: 2
Fore
SplineSet
596 0 m 1x3b
 433 -9 l 1x5a20
 430 67 l 1x9a20
 384 10 328 -14 267 -14 c 0
 140 -14 50 90 50 245 c 0
 50 409 151 512 280 512 c 0
 334 512 386 489 431 434 c 1
 431 613 l 1
 227 613 l 1
 227 646 l 1
 431 646 l 1
 431 745 l 1
 339 747 l 1
 339 774 l 1
 487 802 l 1x9e80
 502 793 l 1x9e40
 499 646 l 1
 589 646 l 1
 589 613 l 1x9a80
 499 613 l 1
 499 34 l 1
 596 27 l 1x5b
 596 0 l 1x3b
126 246 m 0x9b
 126 100 196 30 290 30 c 0
 342 30 384 49 429 99 c 1
 429 403 l 1
 384 449 344 469 296 469 c 0
 203 469 126 399 126 246 c 0x9b
EndSplineSet
Validated: 1
EndChar

StartChar: Emacron
Encoding: 196 274 196
Width: 649
GlyphClass: 1
Flags: MW
HStem: 0 34<239 538 239 597> 0 179<564 597> 351 34<238 420 238 421 238 420> 548 177<547 547 547 580 55 588> 691 34<239 522 239 239> 822 46<210 522 210 522>
VStem: 161 77<335 351 385 390 390 439.5> 427 39
CounterMasks: 2 ab 0c
LayerCount: 2
Fore
SplineSet
210 822 m 1xaf
 210 868 l 1
 522 868 l 1
 522 822 l 1
 210 822 l 1xaf
547 548 m 1xb7
 522 691 l 1
 239 691 l 1
 238 595 238 494 238 385 c 1
 420 385 l 1
 433 489 l 1
 466 489 l 1
 466 249 l 1
 433 249 l 1
 421 351 l 1
 238 351 l 1
 238 232 238 132 239 34 c 1
 538 34 l 1xaf
 564 179 l 1
 605 179 l 1x6f
 597 0 l 1
 55 0 l 1
 55 29 l 1
 160 38 l 1
 161 136 161 235 161 335 c 2
 161 390 l 2
 161 490 161 590 160 687 c 1
 55 696 l 1
 55 725 l 1
 580 725 l 1xaf
 588 548 l 1
 547 548 l 1xb7
EndSplineSet
Validated: 1
EndChar

StartChar: emacron
Encoding: 197 275 197
Width: 541
GlyphClass: 1
Flags: MW
HStem: -14 46<262 344> 261 31<126 383 383 399.5 126 488 125 383> 495 31<247 333> 666 46<160 424 160 424>
VStem: 50 75<261 261 261 337> 425 69<327.5 379.5 309 388.5>
CounterMasks: 2 ec 30
LayerCount: 2
Fore
SplineSet
160 666 m 1
 160 712 l 1
 424 712 l 1
 424 666 l 1
 160 666 l 1
300 -14 m 0
 155 -14 50 74 50 254 c 0
 50 420 161 526 292 526 c 0
 418 526 494 438 494 321 c 0
 494 297 492 277 488 261 c 1
 125 261 l 1
 127 102 206 32 318 32 c 0
 388 32 440 57 482 105 c 1
 497 91 l 1
 453 26 388 -14 300 -14 c 0
126 292 m 1
 383 292 l 2
 416 292 425 309 425 346 c 0
 425 431 376 495 290 495 c 0
 204 495 134 418 126 292 c 1
EndSplineSet
Validated: 1
EndChar

StartChar: Ecaron
Encoding: 198 282 198
Width: 649
GlyphClass: 1
Flags: MW
HStem: 0 34<239 538 239 597> 0 179<564 597> 351 34<238 420 238 421 238 420> 548 177<547 547 547 580 55 588> 691 34<239 522 239 239> 790 52<366 366 366 391 341 366>
VStem: 161 77<335 351 385 390 390 439.5> 427 39
CounterMasks: 2 ab 0c
LayerCount: 2
Fore
SplineSet
238 938 m 1xaf
 366 842 l 1
 494 938 l 1
 511 923 l 1
 391 790 l 1
 341 790 l 1
 222 923 l 1
 238 938 l 1xaf
547 548 m 1xb7
 522 691 l 1
 239 691 l 1
 238 595 238 494 238 385 c 1
 420 385 l 1
 433 489 l 1
 466 489 l 1
 466 249 l 1
 433 249 l 1
 421 351 l 1
 238 351 l 1
 238 232 238 132 239 34 c 1
 538 34 l 1xaf
 564 179 l 1
 605 179 l 1x6f
 597 0 l 1
 55 0 l 1
 55 29 l 1
 160 38 l 1
 161 136 161 235 161 335 c 2
 161 390 l 2
 161 490 161 590 160 687 c 1
 55 696 l 1
 55 725 l 1
 580 725 l 1xaf
 588 548 l 1
 547 548 l 1xb7
EndSplineSet
Validated: 1
EndChar

StartChar: ecaron
Encoding: 199 283 199
Width: 541
GlyphClass: 1
Flags: MW
HStem: -14 46<262 344> 261 31<126 383 383 399.5 126 488 125 383> 495 31<247 333>
VStem: 50 75<261 261 261 337> 425 69<327.5 379.5 309 388.5>
CounterMasks: 1 f8
LayerCount: 2
Fore
SplineSet
300 -14 m 0
 155 -14 50 74 50 254 c 0
 50 420 161 526 292 526 c 0
 418 526 494 438 494 321 c 0
 494 297 492 277 488 261 c 1
 125 261 l 1
 127 102 206 32 318 32 c 0
 388 32 440 57 482 105 c 1
 497 91 l 1
 453 26 388 -14 300 -14 c 0
126 292 m 1
 383 292 l 2
 416 292 425 309 425 346 c 0
 425 431 376 495 290 495 c 0
 204 495 134 418 126 292 c 1
160 789 m 1
 293 673 l 1
 424 789 l 1
 440 773 l 1
 317 616 l 1
 268 616 l 1
 145 773 l 1
 160 789 l 1
EndSplineSet
Validated: 1
EndChar

StartChar: Itilde
Encoding: 200 296 200
Width: 400
GlyphClass: 1
Flags: MW
HStem: 0 33.5 692 33 789 47<270 306 270 307> 874 47<94 129>
VStem: 161 77<335 390 285 440>
CounterMasks: 2 60 50
LayerCount: 2
Fore
SplineSet
15 803 m 1
 26 874 64 921 121 921 c 0
 161 921 187 901 209 879 c 0
 233 856 253 836 287 836 c 0
 325 836 348 864 362 914 c 1
 386 907 l 1
 374 835 336 789 278 789 c 0
 237 789 213 808 191 830 c 0
 168 852 146 874 112 874 c 0
 76 874 52 846 38 796 c 1
 15 803 l 1
55 696 m 1
 55 725 l 1
 345 725 l 1
 345 696 l 1
 239 687 l 1
 238 590 238 490 238 390 c 2
 238 335 l 2
 238 235 238 137 239 38 c 1
 345 29 l 1
 345 0 l 1
 55 0 l 1
 55 29 l 1
 160 38 l 1
 161 136 161 235 161 335 c 2
 161 390 l 2
 161 490 161 590 160 687 c 1
 55 696 l 1
EndSplineSet
Validated: 1
EndChar

StartChar: itilde
Encoding: 201 297 201
Width: 328
GlyphClass: 1
Flags: MW
HStem: 0 32 459 28 495 20G<206 206> 503 20G<194 194> 629 47<228.5 260 228.5 262> 714 47<68 100.5>
VStem: 134 70<227 285 285 318.5>
CounterMasks: 2 88 84
LayerCount: 2
Fore
SplineSet
-4 642 m 1xde
 6 712 40 761 93 761 c 0
 129 761 154 741 173 719 c 0
 196 694 214 676 243 676 c 0
 277 676 299 704 313 754 c 1
 333 747 l 1
 322 676 289 629 235 629 c 0
 198 629 175 648 156 669 c 0
 133 692 116 714 85 714 c 0
 51 714 30 686 16 634 c 1
 -4 642 l 1xde
130 0 m 1
 44 0 l 1
 44 27 l 1
 131 36 l 1
 133 91 134 173 134 227 c 2
 134 285 l 2
 134 352 132 407 130 457 c 1
 39 461 l 1
 39 487 l 1
 194 523 l 1xde
 206 515 l 1
 204 378 l 1
 204 227 l 1
 206 35 l 1
 285 27 l 1xee
 285 0 l 1
 130 0 l 1
EndSplineSet
Validated: 1
EndChar

StartChar: Imacron
Encoding: 202 298 202
Width: 400
GlyphClass: 1
Flags: MW
HStem: 0 33.5 692 33 822 46<44 356 44 356>
VStem: 161 77<335 390 285 440>
CounterMasks: 1 60
LayerCount: 2
Fore
SplineSet
44 822 m 1
 44 868 l 1
 356 868 l 1
 356 822 l 1
 44 822 l 1
55 696 m 1
 55 725 l 1
 345 725 l 1
 345 696 l 1
 239 687 l 1
 238 590 238 490 238 390 c 2
 238 335 l 2
 238 235 238 137 239 38 c 1
 345 29 l 1
 345 0 l 1
 55 0 l 1
 55 29 l 1
 160 38 l 1
 161 136 161 235 161 335 c 2
 161 390 l 2
 161 490 161 590 160 687 c 1
 55 696 l 1
EndSplineSet
Validated: 1
EndChar

StartChar: imacron
Encoding: 203 299 203
Width: 328
GlyphClass: 1
Flags: MW
HStem: 0 32 459 28 495 20G<206 206> 503 20G<194 194> 666 46<32 296 32 296>
VStem: 134 70<227 285 285 318.5>
CounterMasks: 1 88
LayerCount: 2
Fore
SplineSet
32 666 m 1xdc
 32 712 l 1
 296 712 l 1
 296 666 l 1
 32 666 l 1xdc
130 0 m 1
 44 0 l 1
 44 27 l 1
 131 36 l 1
 133 91 134 173 134 227 c 2
 134 285 l 2
 134 352 132 407 130 457 c 1
 39 461 l 1
 39 487 l 1
 194 523 l 1xdc
 206 515 l 1
 204 378 l 1
 204 227 l 1
 206 35 l 1
 285 27 l 1xec
 285 0 l 1
 130 0 l 1
EndSplineSet
Validated: 1
EndChar

StartChar: Nacute
Encoding: 204 323 204
Width: 792
GlyphClass: 1
Flags: MW
HStem: -7 21G<618 618 618 654> 0 34.5 691 34 693 32
VStem: 141 38<40 332 40 690> 141 158<0 690> 499 155<-7 725 -7 725> 618 36<-7 686 383 686 -7 686>
CounterMasks: 1 09
LayerCount: 2
Fore
SplineSet
338 799 m 1x69
 375 834 412 869 446 900 c 0
 477 928 491 938 506 938 c 0
 524 938 538 924 538 908 c 0
 538 892 524 878 486 856 c 0
 441 831 396 806 351 781 c 1
 338 799 l 1x69
618 -7 m 1xa9
 176 643 l 1
 179 332 l 1
 179 40 l 1x69
 299 29 l 1
 299 0 l 1x65
 46 0 l 1
 46 29 l 1
 141 40 l 1
 141 690 l 1
 43 696 l 1x59
 43 725 l 1
 209 725 l 1
 620 116 l 1
 618 383 l 1
 618 686 l 1x69
 499 696 l 1
 499 725 l 1x6a
 751 725 l 1
 751 696 l 1
 654 686 l 1
 654 -7 l 1
 618 -7 l 1xa9
EndSplineSet
Validated: 1
EndChar

StartChar: nacute
Encoding: 205 324 205
Width: 655
GlyphClass: 1
Flags: MW
HStem: 0 31 0 31.5 458.5 27.5 475 51<370 404> 495 20G<195 195> 503 20G<182 182>
VStem: 131 66.5 131 70<227 285 285 319> 470 69<227 338 227 339 227 389.5>
CounterMasks: 1 0180
LayerCount: 2
Fore
SplineSet
280 620 m 1x5180
 314 670 348 719 381 768 c 0
 401 799 414 810 431 810 c 0
 446 810 462 799 462 779 c 0
 462 763 451 748 423 722 c 0
 382 687 341 647 298 606 c 1
 280 620 l 1x5180
467 0 m 1
 382 0 l 1
 382 27 l 1
 468 36 l 1x5180
 470 227 l 1
 470 339 l 2
 470 440 434 475 374 475 c 0
 331 475 271 455 201 384 c 1
 201 227 l 1
 203 35 l 1
 281 27 l 1x9180
 281 0 l 1
 43 0 l 1
 43 27 l 1
 129 36 l 1
 131 227 l 1
 131 285 l 2
 131 353 130 406 128 456 c 1
 38 461 l 1
 38 486 l 1
 182 523 l 1x6580
 195 515 l 1x4a80
 200 417 l 1
 269 494 337 526 403 526 c 0
 489 526 539 474 539 338 c 2
 539 227 l 1
 541 35 l 1
 620 27 l 1x9280
 620 0 l 1
 467 0 l 1
EndSplineSet
Validated: 1
EndChar

StartChar: Ncaron
Encoding: 206 327 206
Width: 792
GlyphClass: 1
Flags: MW
HStem: -7 21G<618 618 618 654> 0 34.5 691 34 693 32 790 52<398 398 398 423 374 398>
VStem: 141 38<40 332 40 690> 141 158<0 690> 499 155<-7 725 -7 725> 618 36<-7 686 383 686 -7 686>
CounterMasks: 1 2c80
LayerCount: 2
Fore
SplineSet
270 938 m 1x6c80
 398 842 l 1
 526 938 l 1
 544 923 l 1
 423 790 l 1
 374 790 l 1
 254 923 l 1
 270 938 l 1x6c80
618 -7 m 1xac80
 176 643 l 1
 179 332 l 1
 179 40 l 1x6c80
 299 29 l 1
 299 0 l 1x6a80
 46 0 l 1
 46 29 l 1
 141 40 l 1
 141 690 l 1
 43 696 l 1x5c80
 43 725 l 1
 209 725 l 1
 620 116 l 1
 618 383 l 1
 618 686 l 1x6c80
 499 696 l 1
 499 725 l 1x6d
 751 725 l 1
 751 696 l 1
 654 686 l 1
 654 -7 l 1
 618 -7 l 1xac80
EndSplineSet
Validated: 1
EndChar

StartChar: ncaron
Encoding: 207 328 207
Width: 655
GlyphClass: 1
Flags: MW
HStem: 0 31 0 31.5 458.5 27.5 475 51<370 404> 495 20G<195 195> 503 20G<182 182>
VStem: 131 66.5 131 70<227 285 285 319> 470 69<227 338 227 339 227 389.5>
CounterMasks: 1 0180
LayerCount: 2
Fore
SplineSet
204 789 m 1x5180
 336 673 l 1
 468 789 l 1
 483 773 l 1
 361 616 l 1
 312 616 l 1
 189 773 l 1
 204 789 l 1x5180
467 0 m 1
 382 0 l 1
 382 27 l 1
 468 36 l 1x5180
 470 227 l 1
 470 339 l 2
 470 440 434 475 374 475 c 0
 331 475 271 455 201 384 c 1
 201 227 l 1
 203 35 l 1
 281 27 l 1x9180
 281 0 l 1
 43 0 l 1
 43 27 l 1
 129 36 l 1
 131 227 l 1
 131 285 l 2
 131 353 130 406 128 456 c 1
 38 461 l 1
 38 486 l 1
 182 523 l 1x6580
 195 515 l 1x4a80
 200 417 l 1
 269 494 337 526 403 526 c 0
 489 526 539 474 539 338 c 2
 539 227 l 1
 541 35 l 1
 620 27 l 1x9280
 620 0 l 1
 467 0 l 1
EndSplineSet
Validated: 1
EndChar

StartChar: Omacron
Encoding: 208 332 208
Width: 762
GlyphClass: 1
Flags: MW
HStem: -15 33<302.5 459.5 302.5 469> 706 36<302.5 459.5> 822 46<225 537 225 537>
VStem: 58 82<269 455 269 479.5> 621 83<269 455>
CounterMasks: 1 78
LayerCount: 2
Fore
SplineSet
225 822 m 1
 225 868 l 1
 537 868 l 1
 537 822 l 1
 225 822 l 1
381 -15 m 0
 205 -15 58 125 58 362 c 0
 58 597 205 742 381 742 c 0
 557 742 704 600 704 362 c 0
 704 128 557 -15 381 -15 c 0
381 18 m 0
 538 18 621 176 621 362 c 0
 621 548 538 706 381 706 c 0
 224 706 140 548 140 362 c 0
 140 176 224 18 381 18 c 0
EndSplineSet
Validated: 1
EndChar

StartChar: omacron
Encoding: 209 333 209
Width: 590
GlyphClass: 1
Flags: MW
HStem: -14 30<242.5 345.5 242.5 357.5> 495 31<242.5 345.5> 666 46<163 426 163 426>
VStem: 50 77<177.5 330.5 177.5 345> 462 78<177.5 330.5>
CounterMasks: 1 78
LayerCount: 2
Fore
SplineSet
294 -14 m 0
 168 -14 50 75 50 255 c 0
 50 435 170 526 294 526 c 0
 419 526 540 435 540 255 c 0
 540 74 421 -14 294 -14 c 0
294 16 m 0
 397 16 462 101 462 254 c 0
 462 407 397 495 294 495 c 0
 191 495 127 407 127 254 c 0
 127 101 191 16 294 16 c 0
163 666 m 1
 163 712 l 1
 426 712 l 1
 426 666 l 1
 163 666 l 1
EndSplineSet
Validated: 1
EndChar

StartChar: Obreve
Encoding: 210 334 210
Width: 762
GlyphClass: 1
Flags: MW
HStem: -15 33<302.5 459.5 302.5 469> 706 36<302.5 459.5> 790 48<348.5 414.5 348.5 428.5>
VStem: 58 82<269 455 269 479.5> 621 83<269 455>
CounterMasks: 1 78
LayerCount: 2
Fore
SplineSet
229 922 m 1
 251 931 l 1
 272 874 316 838 381 838 c 0
 448 838 490 874 512 931 c 1
 535 922 l 1
 522 859 476 790 381 790 c 0
 288 790 241 859 229 922 c 1
381 -15 m 0
 205 -15 58 125 58 362 c 0
 58 597 205 742 381 742 c 0
 557 742 704 600 704 362 c 0
 704 128 557 -15 381 -15 c 0
381 18 m 0
 538 18 621 176 621 362 c 0
 621 548 538 706 381 706 c 0
 224 706 140 548 140 362 c 0
 140 176 224 18 381 18 c 0
EndSplineSet
Validated: 1
EndChar

StartChar: obreve
Encoding: 211 335 211
Width: 590
GlyphClass: 1
Flags: MW
HStem: -14 30<242.5 345.5 242.5 357.5> 495 31<242.5 345.5> 626 51<257 332 257 341>
VStem: 50 77<177.5 330.5 177.5 345> 462 78<177.5 330.5>
CounterMasks: 1 78
LayerCount: 2
Fore
SplineSet
294 -14 m 0
 168 -14 50 75 50 255 c 0
 50 435 170 526 294 526 c 0
 419 526 540 435 540 255 c 0
 540 74 421 -14 294 -14 c 0
294 16 m 0
 397 16 462 101 462 254 c 0
 462 407 397 495 294 495 c 0
 191 495 127 407 127 254 c 0
 127 101 191 16 294 16 c 0
135 783 m 1
 157 790 l 1
 178 723 220 677 294 677 c 0
 370 677 411 724 432 790 c 1
 454 783 l 1
 443 697 388 626 294 626 c 0
 202 626 147 697 135 783 c 1
EndSplineSet
Validated: 1
EndChar

StartChar: OE
Encoding: 212 338 212
Width: 995
GlyphClass: 1
Flags: MW
HStem: -15 33<324 436> 0 34<585 886 585 943> 0 179<910 943> 353 33<584 766 584 766> 548 177<893 925 543 934 893 893> 691 34<585 868 585 585> 706 36<324 435.5 311.5 436.5>
VStem: 58 83<270.5 455 270.5 479.5> 507 77<335 353 386 390 390 440.5> 772 40
CounterMasks: 1 55c0
LayerCount: 2
Fore
SplineSet
141 362 m 0x93c0
 141 179 227 18 421 18 c 0
 452 18 479 21 505 28 c 1
 507 129 507 231 507 335 c 2
 507 390 l 2
 507 494 507 596 505 698 c 1
 479 704 452 706 421 706 c 0
 227 706 141 548 141 362 c 0x93c0
910 179 m 1x35c0
 951 179 l 1x35c0
 943 0 l 1
 543 0 l 1x55c0
 499 -11 457 -15 415 -15 c 0
 207 -15 58 128 58 362 c 0
 58 597 208 742 415 742 c 0x93c0
 456 742 498 735 543 725 c 1
 925 725 l 1x55c0
 934 548 l 1
 893 548 l 1x59c0
 868 691 l 1
 585 691 l 1
 584 595 584 495 584 386 c 1
 766 386 l 1
 778 489 l 1
 812 489 l 1
 812 250 l 1
 778 250 l 1
 766 353 l 1
 584 353 l 1
 584 234 584 133 585 34 c 1
 886 34 l 1x55c0
 910 179 l 1x35c0
EndSplineSet
Validated: 1
EndChar

StartChar: oe
Encoding: 213 339 213
Width: 950
GlyphClass: 1
Flags: MW
HStem: -14 30<243 334.5> -14 46<670 751> 261 31<534 792 792 808 534 895 533 792> 495 31<294 334.5 232 346 659.5 742.5>
VStem: 50 77<178.5 331 178.5 344.5> 462 71<261 261 261 328.5> 833 69<327.5 379.5 309 388.5>
CounterMasks: 1 7e
LayerCount: 2
Fore
SplineSet
294 16 m 0xbe
 398 16 462 100 462 252 c 0
 462 405 398 495 294 495 c 0
 192 494 127 407 127 255 c 0
 127 102 192 16 294 16 c 0xbe
294 -14 m 0
 168 -14 50 76 50 255 c 0
 50 434 170 526 294 526 c 0
 375 526 460 482 501 396 c 1
 542 478 617 526 702 526 c 0
 826 526 902 438 902 321 c 0
 902 297 900 277 895 261 c 1
 533 261 l 1
 535 103 614 32 726 32 c 0
 795 32 849 57 890 105 c 1x7e
 906 91 l 1
 863 26 796 -14 706 -14 c 0
 612 -14 537 26 498 109 c 1
 456 27 375 -14 294 -14 c 0
534 292 m 1
 792 292 l 2
 824 292 833 309 833 346 c 0
 833 431 785 495 700 495 c 0
 612 495 542 418 534 292 c 1
EndSplineSet
Validated: 1
EndChar

StartChar: Utilde
Encoding: 214 360 214
Width: 792
GlyphClass: 1
Flags: MW
HStem: -15 50<353.5 480.5> 691 34 789 47<488 523.5 488 524.5> 874 47<311.5 347>
VStem: 145 76<273 288 288 389> 616 36.5
CounterMasks: 2 6c 50
LayerCount: 2
Fore
SplineSet
233 803 m 1
 244 874 281 921 339 921 c 0
 379 921 405 901 427 879 c 0
 451 856 471 836 505 836 c 0
 542 836 565 864 580 914 c 1
 602 907 l 1
 591 835 554 789 495 789 c 0
 455 789 431 808 409 830 c 0
 385 852 364 874 330 874 c 0
 293 874 270 846 255 796 c 1
 233 803 l 1
493 696 m 1
 493 725 l 1
 750 725 l 1
 750 696 l 1
 653 686 l 1
 652 281 l 2
 651 81 562 -15 399 -15 c 0
 246 -15 145 66 145 273 c 2
 145 389 l 2
 145 489 145 589 144 688 c 1
 47 696 l 1
 47 725 l 1
 333 725 l 1
 333 696 l 1
 222 687 l 1
 221 589 221 491 221 389 c 2
 221 288 l 2
 221 102 294 35 413 35 c 0
 552 35 616 111 616 304 c 2
 615 686 l 1
 493 696 l 1
EndSplineSet
Validated: 1
EndChar

StartChar: utilde
Encoding: 215 361 215
Width: 648
GlyphClass: 1
Flags: MW
HStem: -14 51<257.5 301> -9 40 0 21G<602 602> 472.5 45.5 473 45 629 47<379 411.5 379 412.5> 714 47<219 251>
VStem: 118 69 456 69<93 93> 457 68
CounterMasks: 1 8380
LayerCount: 2
Fore
SplineSet
146 642 m 1x9780
 157 712 190 761 244 761 c 0
 279 761 304 741 323 719 c 0
 347 694 364 676 394 676 c 0
 429 676 449 704 463 754 c 1
 484 747 l 1
 473 676 439 629 386 629 c 0
 348 629 326 648 306 669 c 0
 285 692 266 714 236 714 c 0
 202 714 181 686 167 634 c 1
 146 642 l 1x9780
458 -9 m 1x5740
 456 93 l 1
 405 29 340 -14 262 -14 c 0
 168 -14 115 37 116 185 c 2
 119 467 l 1
 34 478 l 1
 34 504 l 1
 181 518 l 1
 191 506 l 1x9740
 187 379 l 1
 187 187 l 2
 187 76 224 37 291 37 c 0
 350 37 407 71 455 128 c 1
 456 469 l 1
 373 477 l 1x8f80
 373 504 l 1
 519 518 l 1
 529 506 l 1
 525 379 l 1
 525 35 l 1
 602 27 l 1x5780
 602 0 l 1x3780
 458 -9 l 1x5740
EndSplineSet
Validated: 33
EndChar

StartChar: Umacron
Encoding: 216 362 216
Width: 792
GlyphClass: 1
Flags: MW
HStem: -15 50<353.5 480.5> 691 34 822 46<262 574 262 574>
VStem: 145 76<273 288 288 389> 616 36.5
CounterMasks: 1 78
LayerCount: 2
Fore
SplineSet
262 822 m 1
 262 868 l 1
 574 868 l 1
 574 822 l 1
 262 822 l 1
493 696 m 1
 493 725 l 1
 749 725 l 1
 749 696 l 1
 653 686 l 1
 652 281 l 2
 651 81 562 -15 399 -15 c 0
 246 -15 145 66 145 273 c 2
 145 389 l 2
 145 489 145 589 144 688 c 1
 47 696 l 1
 47 725 l 1
 333 725 l 1
 333 696 l 1
 222 687 l 1
 221 589 221 491 221 389 c 2
 221 288 l 2
 221 102 294 35 413 35 c 0
 552 35 616 111 616 304 c 2
 615 686 l 1
 493 696 l 1
EndSplineSet
Validated: 1
EndChar

StartChar: umacron
Encoding: 217 363 217
Width: 648
GlyphClass: 1
Flags: MW
HStem: -14 51<257.5 301> -9 40 0 21G<602 602> 472.5 45.5 473 45 666 46<183 447 183 447>
VStem: 118 69 456 69<93 93> 457 68
CounterMasks: 1 87
LayerCount: 2
Fore
SplineSet
183 666 m 1x97
 183 712 l 1
 447 712 l 1
 447 666 l 1
 183 666 l 1x97
458 -9 m 1x5680
 456 93 l 1
 405 29 340 -14 262 -14 c 0
 168 -14 115 37 116 185 c 2
 119 467 l 1
 34 478 l 1
 34 504 l 1
 181 518 l 1
 191 506 l 1x9680
 187 379 l 1
 187 187 l 2
 187 76 224 37 291 37 c 0
 350 37 407 71 455 128 c 1
 456 469 l 1
 373 477 l 1x8f
 373 504 l 1
 519 518 l 1
 529 506 l 1
 525 379 l 1
 525 35 l 1
 602 27 l 1x57
 602 0 l 1x37
 458 -9 l 1x5680
EndSplineSet
Validated: 33
EndChar

StartChar: Ubreve
Encoding: 218 364 218
Width: 792
GlyphClass: 1
Flags: MW
HStem: -15 50<353.5 480.5> 691 34 790 48<385 451 385 465>
VStem: 145 76<273 288 288 389> 616 36.5
CounterMasks: 1 78
LayerCount: 2
Fore
SplineSet
264 922 m 1
 286 931 l 1
 308 874 352 838 418 838 c 0
 484 838 526 874 549 931 c 1
 571 922 l 1
 558 859 512 790 418 790 c 0
 324 790 277 859 264 922 c 1
493 696 m 1
 493 725 l 1
 750 725 l 1
 750 696 l 1
 653 686 l 1
 652 281 l 2
 651 81 562 -15 399 -15 c 0
 246 -15 145 66 145 273 c 2
 145 389 l 2
 145 489 145 589 144 688 c 1
 47 696 l 1
 47 725 l 1
 333 725 l 1
 333 696 l 1
 222 687 l 1
 221 589 221 491 221 389 c 2
 221 288 l 2
 221 102 294 35 413 35 c 0
 552 35 616 111 616 304 c 2
 615 686 l 1
 493 696 l 1
EndSplineSet
Validated: 1
EndChar

StartChar: ubreve
Encoding: 219 365 219
Width: 648
GlyphClass: 1
Flags: MW
HStem: -14 51<257.5 301> -9 40 0 21G<602 602> 472.5 45.5 473 45 626 51<278 352.5 278 361.5>
VStem: 118 69 456 69<93 93> 457 68
CounterMasks: 1 87
LayerCount: 2
Fore
SplineSet
156 783 m 1x97
 177 790 l 1
 198 723 241 677 315 677 c 0
 390 677 432 724 452 790 c 1
 474 783 l 1
 463 697 408 626 315 626 c 0
 223 626 168 697 156 783 c 1x97
458 -9 m 1x5680
 456 93 l 1
 405 29 340 -14 262 -14 c 0
 168 -14 115 37 116 185 c 2
 119 467 l 1
 34 478 l 1
 34 504 l 1
 181 518 l 1
 191 506 l 1x9680
 187 379 l 1
 187 187 l 2
 187 76 224 37 291 37 c 0
 350 37 407 71 455 128 c 1
 456 469 l 1
 373 477 l 1x8f
 373 504 l 1
 519 518 l 1
 529 506 l 1
 525 379 l 1
 525 35 l 1
 602 27 l 1x57
 602 0 l 1x37
 458 -9 l 1x5680
EndSplineSet
Validated: 33
EndChar

StartChar: florin
Encoding: 220 402 220
Width: 541
GlyphClass: 1
Flags: MW
HStem: -109 28<60.5 111> -109 87<5.5 106.5> 384 36<112 244 112 241 310 455> 628 87<428.5 530> 686 29<420 475>
VStem: 112 198<384 420 420 420> 235 66.5 244 66<420 420>
CounterMasks: 1 28
LayerCount: 2
Fore
SplineSet
112 384 m 1x24
 112 420 l 1x24
 244 420 l 1
 256 539 277 610 330 664 c 0
 366 701 408 715 449 715 c 0x29
 501 715 537 694 557 667 c 1
 555 645 543 628 517 628 c 0
 494 628 470 640 442 663 c 1x32
 420 686 l 1
 395 676 376 659 363 639 c 0
 330 591 320 532 310 420 c 1x29
 455 420 l 1
 455 384 l 1
 307 384 l 1
 296 246 l 2
 283 90 262 0 208 -54 c 0
 169 -95 127 -109 86 -109 c 0xa2
 35 -109 -1 -88 -22 -60 c 1
 -21 -39 -7 -22 18 -22 c 0
 40 -22 65 -34 92 -59 c 1x62
 111 -81 l 1
 139 -71 159 -54 172 -32 c 0
 206 21 217 88 229 234 c 2
 241 384 l 1xa2
 112 384 l 1x24
EndSplineSet
Validated: 1
EndChar

StartChar: Ohorn
Encoding: 221 416 221
Width: 762
GlyphClass: 1
Flags: MW
HStem: -15 33<302.5 459.5 302.5 469> 706 36<302.5 422 293 459.5>
VStem: 58 82<269 455 269 479.5> 621 83<269 420 245 455> 656 49<751 769>
CounterMasks: 1 30
LayerCount: 2
Fore
SplineSet
381 18 m 0xf0
 538 18 621 176 621 362 c 0
 621 548 538 706 381 706 c 0
 224 706 140 548 140 362 c 0
 140 176 224 18 381 18 c 0xf0
381 -15 m 0
 205 -15 58 125 58 362 c 0
 58 597 205 742 381 742 c 0
 463 742 538 712 595 655 c 1
 638 669 656 704 656 744 c 0
 656 794 625 811 625 840 c 0
 625 857 637 872 657 872 c 0
 666 872 675 869 683 862 c 0
 697 842 705 817 705 783 c 0xe8
 705 719 674 658 612 637 c 1
 669 572 704 478 704 362 c 0
 704 128 557 -15 381 -15 c 0
EndSplineSet
Validated: 1
EndChar

StartChar: ohorn
Encoding: 222 417 222
Width: 590
GlyphClass: 1
Flags: MW
HStem: -14 30<242.5 345.5 242.5 357.5> 495 31<242.5 325.5 232 345.5>
VStem: 50 77<177.5 330.5 177.5 345> 462 78<177.5 293.5 164.5 330.5> 517 49<549.5 565.5>
CounterMasks: 1 30
LayerCount: 2
Fore
SplineSet
294 16 m 0xf0
 397 16 462 101 462 254 c 0
 462 407 397 495 294 495 c 0
 191 495 127 407 127 254 c 0
 127 101 191 16 294 16 c 0xf0
294 -14 m 0
 168 -14 50 75 50 255 c 0
 50 435 170 526 294 526 c 0
 357 526 420 503 466 456 c 1
 502 472 517 504 517 540 c 0
 517 591 486 607 486 636 c 0
 486 652 499 667 518 667 c 0
 528 667 536 665 545 659 c 1
 559 638 566 614 566 580 c 0xe8
 566 519 538 462 482 438 c 1
 518 393 540 332 540 255 c 0
 540 74 421 -14 294 -14 c 0
EndSplineSet
Validated: 1
EndChar

StartChar: Uhorn
Encoding: 223 431 223
Width: 792
GlyphClass: 1
Flags: MW
HStem: -15 50<353.5 480.5> 690 35<653 653> 691 34 691.5 33.5 692 33
VStem: 145 76<273 288 288 389> 616 36.5 733 50<771 793.5>
CounterMasks: 1 06
LayerCount: 2
Fore
SplineSet
493 696 m 1xa7
 493 725 l 1
 636 725 l 2
 713 725 733 735 733 770 c 0x8f
 733 817 703 835 703 863 c 0
 703 879 716 894 736 894 c 0
 746 894 755 892 763 886 c 1
 772 869 783 841 783 810 c 0
 783 732 739 698 653 690 c 1xc7
 652 281 l 2
 651 81 562 -15 399 -15 c 0
 246 -15 145 66 145 273 c 2
 145 389 l 2
 145 489 145 589 144 688 c 1
 47 696 l 1
 47 725 l 1
 333 725 l 1x8f
 333 696 l 1
 222 687 l 1x97
 221 589 221 491 221 389 c 2
 221 288 l 2
 221 102 294 35 413 35 c 0
 552 35 616 111 616 304 c 2
 615 686 l 1
 493 696 l 1xa7
EndSplineSet
Validated: 1
EndChar

StartChar: uhorn
Encoding: 224 432 224
Width: 648
GlyphClass: 1
Flags: MW
HStem: -14 51<257.5 301> -9 40 0 21G<602 602> 472.5 45.5 473 43 498 20G<181 181>
VStem: 118 69 457 68 575 52<598.5 611>
CounterMasks: 1 03
LayerCount: 2
Fore
SplineSet
458 -9 m 1x4b80
 456 93 l 1
 405 29 340 -14 262 -14 c 0
 168 -14 115 37 116 185 c 2
 119 467 l 1
 34 478 l 1
 34 504 l 1
 181 518 l 1
 191 506 l 1x9380
 187 379 l 1
 187 187 l 2
 187 76 224 37 291 37 c 0
 350 37 407 71 455 128 c 1
 456 469 l 1
 373 477 l 1
 373 504 l 1
 498 516 l 2
 556 520 575 551 575 588 c 0x8b80
 575 634 546 648 546 675 c 0
 546 692 560 706 580 706 c 0
 589 706 597 705 607 698 c 1
 617 677 627 656 627 627 c 0
 627 570 594 517 529 499 c 1
 525 379 l 1
 525 35 l 1
 602 27 l 1x4780
 602 0 l 1x2b80
 458 -9 l 1x4b80
EndSplineSet
Validated: 33
EndChar

StartChar: uni01CD
Encoding: 225 461 225
Width: 712
GlyphClass: 1
Flags: MW
HStem: 0 34 251 31<216 453 216 463 206 453> 712 20G<328 376 376 376> 790 52<351 351 351 375 327 351>
VStem: 11 695<0 29 29 29>
CounterMasks: 1 d0
LayerCount: 2
Fore
SplineSet
223 938 m 1
 351 842 l 1
 480 938 l 1
 496 923 l 1
 375 790 l 1
 327 790 l 1
 206 923 l 1
 223 938 l 1
333 647 m 1
 216 282 l 1
 453 282 l 1
 333 647 l 1
420 0 m 1
 420 30 l 1
 532 38 l 1
 463 251 l 1
 206 251 l 1
 138 39 l 1
 235 29 l 1
 235 0 l 1
 11 0 l 1
 11 29 l 1
 98 39 l 1
 328 732 l 1
 376 732 l 1
 610 37 l 1
 706 30 l 1
 706 0 l 1
 420 0 l 1
EndSplineSet
Validated: 1
EndChar

StartChar: uni01CE
Encoding: 226 462 226
Width: 551
GlyphClass: 1
Flags: MW
HStem: -14 46<191 226> -13 39<464.5 472.5> 495 31<236.5 290>
VStem: 53 71<95 152> 366 69<115 291 291 291 316 354> 368 67
CounterMasks: 1 18
LayerCount: 2
Fore
SplineSet
455 -13 m 0x74
 402 -13 375 23 368 83 c 1
 307 18 262 -14 190 -14 c 0xb4
 113 -14 53 31 53 114 c 0
 53 190 100 241 228 279 c 0
 272 292 321 305 366 316 c 1
 366 354 l 2
 366 466 330 495 250 495 c 0
 223 495 195 490 166 478 c 1
 150 407 l 2
 145 376 130 365 107 365 c 0
 85 365 71 377 67 398 c 1
 88 479 160 526 267 526 c 0
 379 526 435 476 435 354 c 2
 435 111 l 2
 435 45 450 26 479 26 c 0
 496 26 508 32 524 49 c 1x78
 539 33 l 1
 519 2 490 -13 455 -13 c 0x74
132 789 m 1
 264 673 l 1
 396 789 l 1
 411 773 l 1
 289 616 l 1
 240 616 l 1
 116 773 l 1
 132 789 l 1
366 115 m 1xb8
 366 291 l 1
 323 279 279 266 242 253 c 0
 155 221 124 179 124 126 c 0
 124 64 162 32 220 32 c 0
 262 32 300 52 366 115 c 1xb8
EndSplineSet
Validated: 1
EndChar

StartChar: uni01CF
Encoding: 227 463 227
Width: 400
GlyphClass: 1
Flags: MW
HStem: 0 33.5 692 33 790 52<200 200 200 224 175 200>
VStem: 161 77<335 390 285 440>
CounterMasks: 1 60
LayerCount: 2
Fore
SplineSet
72 938 m 1
 200 842 l 1
 329 938 l 1
 345 923 l 1
 224 790 l 1
 175 790 l 1
 56 923 l 1
 72 938 l 1
55 696 m 1
 55 725 l 1
 345 725 l 1
 345 696 l 1
 239 687 l 1
 238 590 238 490 238 390 c 2
 238 335 l 2
 238 235 238 137 239 38 c 1
 345 29 l 1
 345 0 l 1
 55 0 l 1
 55 29 l 1
 160 38 l 1
 161 136 161 235 161 335 c 2
 161 390 l 2
 161 490 161 590 160 687 c 1
 55 696 l 1
EndSplineSet
Validated: 1
EndChar

StartChar: uni01D0
Encoding: 228 464 228
Width: 328
GlyphClass: 1
Flags: MW
HStem: 0 31 0 31.5 459 28 495 20G<206 206> 503 20G<194 194>
VStem: 134 70<227 285 285 318.5>
LayerCount: 2
Fore
SplineSet
32 789 m 1x6c
 164 673 l 1
 296 789 l 1
 311 773 l 1
 189 616 l 1
 140 616 l 1
 17 773 l 1
 32 789 l 1x6c
130 0 m 1
 44 0 l 1
 44 27 l 1
 131 36 l 1
 133 91 134 173 134 227 c 2
 134 285 l 2
 134 352 132 407 130 457 c 1
 39 461 l 1
 39 487 l 1
 194 523 l 1x6c
 206 515 l 1
 204 378 l 1
 204 227 l 1
 206 35 l 1
 285 27 l 1xb4
 285 0 l 1
 130 0 l 1
EndSplineSet
Validated: 1
EndChar

StartChar: uni01D1
Encoding: 229 465 229
Width: 762
GlyphClass: 1
Flags: MW
HStem: -15 33<302.5 459.5 302.5 469> 706 36<302.5 459.5> 790 52<382 382 382 406 357 382>
VStem: 58 82<269 455 269 479.5> 621 83<269 455>
CounterMasks: 1 78
LayerCount: 2
Fore
SplineSet
381 -15 m 0
 205 -15 58 125 58 362 c 0
 58 597 205 742 381 742 c 0
 557 742 704 600 704 362 c 0
 704 128 557 -15 381 -15 c 0
381 18 m 0
 538 18 621 176 621 362 c 0
 621 548 538 706 381 706 c 0
 224 706 140 548 140 362 c 0
 140 176 224 18 381 18 c 0
254 938 m 1
 382 842 l 1
 510 938 l 1
 526 923 l 1
 406 790 l 1
 357 790 l 1
 237 923 l 1
 254 938 l 1
EndSplineSet
Validated: 1
EndChar

StartChar: uni01D2
Encoding: 230 466 230
Width: 590
GlyphClass: 1
Flags: MW
HStem: -14 30<242.5 345.5 242.5 357.5> 495 31<242.5 345.5>
VStem: 50 77<177.5 330.5 177.5 345> 462 78<177.5 330.5>
CounterMasks: 1 30
LayerCount: 2
Fore
SplineSet
294 -14 m 0
 168 -14 50 75 50 255 c 0
 50 435 170 526 294 526 c 0
 419 526 540 435 540 255 c 0
 540 74 421 -14 294 -14 c 0
294 16 m 0
 397 16 462 101 462 254 c 0
 462 407 397 495 294 495 c 0
 191 495 127 407 127 254 c 0
 127 101 191 16 294 16 c 0
163 789 m 1
 295 673 l 1
 426 789 l 1
 442 773 l 1
 319 616 l 1
 271 616 l 1
 147 773 l 1
 163 789 l 1
EndSplineSet
Validated: 1
EndChar

StartChar: uni01D3
Encoding: 231 467 231
Width: 792
GlyphClass: 1
Flags: MW
HStem: -15 50<353.5 480.5> 691 34 790 52<417 417 417 442 393 417>
VStem: 145 76<273 288 288 389> 616 36.5
CounterMasks: 1 78
LayerCount: 2
Fore
SplineSet
290 938 m 1
 417 842 l 1
 547 938 l 1
 563 923 l 1
 442 790 l 1
 393 790 l 1
 272 923 l 1
 290 938 l 1
493 696 m 1
 493 725 l 1
 749 725 l 1
 749 696 l 1
 653 686 l 1
 652 281 l 2
 651 81 562 -15 399 -15 c 0
 246 -15 145 66 145 273 c 2
 145 389 l 2
 145 489 145 589 144 688 c 1
 47 696 l 1
 47 725 l 1
 333 725 l 1
 333 696 l 1
 222 687 l 1
 221 589 221 491 221 389 c 2
 221 288 l 2
 221 102 294 35 413 35 c 0
 552 35 616 111 616 304 c 2
 615 686 l 1
 493 696 l 1
EndSplineSet
Validated: 1
EndChar

StartChar: uni01D4
Encoding: 232 468 232
Width: 648
GlyphClass: 1
Flags: MW
HStem: -14 51<257.5 301> -9 40 0 21G<602 602> 472.5 45.5 473 45
VStem: 118 69 457 68
CounterMasks: 1 06
LayerCount: 2
Fore
SplineSet
458 -9 m 1x56
 456 93 l 1
 405 29 340 -14 262 -14 c 0
 168 -14 115 37 116 185 c 2
 119 467 l 1
 34 478 l 1
 34 504 l 1
 181 518 l 1
 191 506 l 1x96
 187 379 l 1
 187 187 l 2
 187 76 224 37 291 37 c 0
 350 37 407 71 455 128 c 1
 456 469 l 1
 373 477 l 1x8e
 373 504 l 1
 519 518 l 1
 529 506 l 1
 525 379 l 1
 525 35 l 1
 602 27 l 1x56
 602 0 l 1x36
 458 -9 l 1x56
183 789 m 1
 315 673 l 1
 447 789 l 1
 463 773 l 1
 339 616 l 1
 290 616 l 1
 168 773 l 1
 183 789 l 1
EndSplineSet
Validated: 33
EndChar

StartChar: uni01D5
Encoding: 233 469 233
Width: 792
GlyphClass: 1
Flags: MW
HStem: -15 50<353.5 480.5> 691 34 806 95<287 313.5 521.5 548> 977 47<262 574 262 574>
VStem: 145 76<273 288 288 389> 250 99<839 868> 486 99<839 868> 616 36.5
CounterMasks: 2 76 09
LayerCount: 2
Fore
SplineSet
300 806 m 0
 274 806 250 825 250 853 c 0
 250 883 274 901 300 901 c 0
 327 901 349 883 349 853 c 0
 349 825 327 806 300 806 c 0
535 806 m 0
 508 806 486 825 486 853 c 0
 486 883 508 901 535 901 c 0
 561 901 585 883 585 853 c 0
 585 825 561 806 535 806 c 0
262 977 m 1
 262 1024 l 1
 574 1024 l 1
 574 977 l 1
 262 977 l 1
493 696 m 1
 493 725 l 1
 749 725 l 1
 749 696 l 1
 653 686 l 1
 652 281 l 2
 651 81 562 -15 399 -15 c 0
 246 -15 145 66 145 273 c 2
 145 389 l 2
 145 489 145 589 144 688 c 1
 47 696 l 1
 47 725 l 1
 333 725 l 1
 333 696 l 1
 222 687 l 1
 221 589 221 491 221 389 c 2
 221 288 l 2xdb
 221 102 294 35 413 35 c 0
 552 35 616 111 616 304 c 2
 615 686 l 1
 493 696 l 1
EndSplineSet
Validated: 1
EndChar

StartChar: uni01D6
Encoding: 234 470 234
Width: 648
GlyphClass: 1
Flags: MW
HStem: -14 51<257.5 301> -9 40 0 21G<602 602> 472.5 45.5 473 45 621 92<195.5 220.5 408.5 434> 781 46<183 447 183 447>
VStem: 118 69 161 96<653 681> 374 95<653 681> 457 68
CounterMasks: 2 86c0 0120
LayerCount: 2
Fore
SplineSet
208 621 m 0x96c0
 183 621 161 639 161 667 c 0
 161 695 183 713 208 713 c 0
 233 713 257 695 257 667 c 0
 257 639 233 621 208 621 c 0x96c0
421 621 m 0
 396 621 374 639 374 667 c 0
 374 695 396 713 421 713 c 0
 447 713 469 695 469 667 c 0
 469 639 447 621 421 621 c 0
183 781 m 1
 183 827 l 1
 447 827 l 1
 447 781 l 1
 183 781 l 1
458 -9 m 1x5720
 456 93 l 1
 405 29 340 -14 262 -14 c 0
 168 -14 115 37 116 185 c 2
 119 467 l 1
 34 478 l 1
 34 504 l 1
 181 518 l 1
 191 506 l 1x9720
 187 379 l 1
 187 187 l 2
 187 76 224 37 291 37 c 0
 350 37 407 70 455 128 c 1
 456 469 l 1
 373 477 l 1x8f20
 373 504 l 1
 519 518 l 1
 529 506 l 1
 525 379 l 1
 525 35 l 1
 602 27 l 1x5720
 602 0 l 1x3720
 458 -9 l 1x5720
EndSplineSet
Validated: 33
EndChar

StartChar: uni01D7
Encoding: 235 471 235
Width: 792
GlyphClass: 1
Flags: MW
HStem: -15 50<353.5 480.5> 691 34 806 95<287 313.5 522 548>
VStem: 145 76<273 288 288 389> 250 99<839 868> 486 99<839 868> 616 36.5
CounterMasks: 2 72 0c
LayerCount: 2
Fore
SplineSet
300 806 m 0
 274 806 250 825 250 853 c 0
 250 883 274 901 300 901 c 0
 327 901 349 883 349 853 c 0
 349 825 327 806 300 806 c 0
402 896 m 1
 385 913 l 1
 468 1007 l 2
 490 1030 503 1039 518 1039 c 0
 535 1039 549 1027 549 1010 c 0
 549 994 536 980 503 960 c 2
 402 896 l 1
535 806 m 0
 509 806 486 825 486 853 c 0
 486 883 509 901 535 901 c 0
 561 901 585 883 585 853 c 0
 585 825 561 806 535 806 c 0
493 696 m 1
 493 725 l 1
 749 725 l 1
 749 696 l 1
 653 686 l 1
 652 281 l 2
 651 81 562 -15 399 -15 c 0
 246 -15 145 66 145 273 c 2
 145 389 l 2
 145 489 145 589 144 688 c 1
 47 696 l 1
 47 725 l 1
 333 725 l 1
 333 696 l 1
 222 687 l 1
 221 589 221 491 221 389 c 2
 221 288 l 2xd6
 221 102 294 35 413 35 c 0
 552 35 616 111 616 304 c 2
 615 686 l 1
 493 696 l 1
EndSplineSet
Validated: 1
EndChar

StartChar: uni01D8
Encoding: 236 472 236
Width: 648
GlyphClass: 1
Flags: MW
HStem: -14 51<257.5 301> -9 40 0 21G<602 602> 472.5 45.5 473 45 621 92<196 221 408.5 434> 719 20G<285 285>
VStem: 118 69 161 96<653 681> 374 95<653 681> 456 69<93 93> 457 68
CounterMasks: 2 8520 00c0
LayerCount: 2
Fore
SplineSet
208 621 m 0x94a0
 184 621 161 639 161 667 c 0
 161 695 184 713 208 713 c 0
 234 713 257 695 257 667 c 0
 257 639 234 621 208 621 c 0x94a0
285 739 m 1x9320
 356 851 l 2
 370 880 383 893 401 893 c 0
 416 893 431 882 431 864 c 0
 431 846 419 834 398 817 c 2
 302 725 l 1
 285 739 l 1x9320
421 621 m 0x9540
 396 621 374 639 374 667 c 0
 374 695 396 713 421 713 c 0
 447 713 469 695 469 667 c 0
 469 639 447 621 421 621 c 0x9540
458 -9 m 1x5310
 456 93 l 1
 405 29 340 -14 262 -14 c 0
 168 -14 115 37 116 185 c 2
 119 467 l 1
 34 478 l 1
 34 504 l 1
 181 518 l 1
 191 506 l 1x9310
 187 379 l 1
 187 187 l 2
 187 76 224 37 291 37 c 0
 350 37 407 71 455 128 c 1
 456 469 l 1
 373 477 l 1x8b20
 373 504 l 1
 519 518 l 1
 529 506 l 1
 525 379 l 1
 525 35 l 1
 602 27 l 1x5320
 602 0 l 1x3320
 458 -9 l 1x5310
EndSplineSet
Validated: 33
EndChar

StartChar: uni01D9
Encoding: 237 473 237
Width: 792
GlyphClass: 1
Flags: MW
HStem: -15 50<353.5 480.5> 691 34 806 95<287 313.5 521.5 548> 911 52<417 417 417 442 393 417>
VStem: 145 76<273 288 288 389> 250 99<839 868> 486 99<839 868> 616 36.5
CounterMasks: 2 76 09
LayerCount: 2
Fore
SplineSet
300 806 m 0xef
 274 806 250 825 250 853 c 0
 250 883 274 901 300 901 c 0
 327 901 349 883 349 853 c 0
 349 825 327 806 300 806 c 0xef
535 806 m 0
 508 806 486 825 486 853 c 0
 486 883 508 901 535 901 c 0
 561 901 585 883 585 853 c 0
 585 825 561 806 535 806 c 0
290 1060 m 1
 417 963 l 1
 547 1060 l 1
 563 1044 l 1
 442 911 l 1
 393 911 l 1xdb
 272 1044 l 1
 290 1060 l 1
493 696 m 1
 493 725 l 1
 749 725 l 1
 749 696 l 1
 653 686 l 1
 652 281 l 2
 651 81 562 -15 399 -15 c 0
 246 -15 145 66 145 273 c 2
 145 389 l 2
 145 489 145 589 144 688 c 1
 47 696 l 1
 47 725 l 1
 333 725 l 1
 333 696 l 1
 222 687 l 1xcb
 221 589 221 491 221 389 c 2
 221 288 l 2
 221 102 294 35 413 35 c 0
 552 35 616 111 616 304 c 2
 615 686 l 1
 493 696 l 1
EndSplineSet
Validated: 1
EndChar

StartChar: uni01DA
Encoding: 238 474 238
Width: 648
GlyphClass: 1
Flags: MW
HStem: -14 51<257.5 301> -9 40 0 21G<602 602> 472.5 45.5 473 45 621 92<195.5 220.5 408.5 434> 739 51<315 315 315 339 290 315>
VStem: 118 69 161 96<653 681> 374 95<653 681> 457 68
CounterMasks: 2 86c0 0120
LayerCount: 2
Fore
SplineSet
208 621 m 0x94c0
 183 621 161 639 161 667 c 0
 161 695 183 713 208 713 c 0
 233 713 257 695 257 667 c 0
 257 639 233 621 208 621 c 0x94c0
421 621 m 0
 396 621 374 639 374 667 c 0
 374 695 396 713 421 713 c 0
 447 713 469 695 469 667 c 0
 469 639 447 621 421 621 c 0
187 887 m 1
 315 790 l 1
 443 887 l 1
 461 872 l 1
 339 739 l 1
 290 739 l 1x5720
 171 872 l 1
 187 887 l 1
458 -9 m 1
 456 93 l 1
 405 29 340 -14 262 -14 c 0
 168 -14 115 37 116 185 c 2
 119 467 l 1
 34 478 l 1
 34 504 l 1
 181 518 l 1
 191 506 l 1x9520
 187 379 l 1
 187 187 l 2
 187 76 224 37 291 37 c 0
 350 37 407 70 455 128 c 1
 456 469 l 1
 373 477 l 1x8d20
 373 504 l 1
 519 518 l 1
 529 506 l 1
 525 379 l 1
 525 35 l 1
 602 27 l 1x5520
 602 0 l 1x3520
 458 -9 l 1
EndSplineSet
Validated: 33
EndChar

StartChar: uni01DB
Encoding: 239 475 239
Width: 792
GlyphClass: 1
Flags: MW
HStem: -15 50<353.5 480.5> 691 34 806 95<287 313.5 521.5 548>
VStem: 145 76<273 288 288 389> 250 99<839 868> 486 99<839 868> 616 36.5
CounterMasks: 2 72 0c
LayerCount: 2
Fore
SplineSet
332 960 m 2xd6
 300 980 288 993 288 1009 c 0
 288 1027 301 1039 319 1039 c 0
 334 1039 348 1030 368 1007 c 2
 451 913 l 1
 436 896 l 1
 332 960 l 2xd6
300 806 m 0xfe
 274 806 250 825 250 853 c 0
 250 883 274 901 300 901 c 0
 327 901 349 883 349 853 c 0
 349 825 327 806 300 806 c 0xfe
535 806 m 0
 508 806 486 825 486 853 c 0
 486 883 508 901 535 901 c 0
 561 901 585 883 585 853 c 0
 585 825 561 806 535 806 c 0
493 696 m 1
 493 725 l 1
 749 725 l 1
 749 696 l 1
 653 686 l 1
 652 281 l 2
 651 81 562 -15 399 -15 c 0
 246 -15 145 66 145 273 c 2
 145 389 l 2
 145 489 145 589 144 688 c 1
 47 696 l 1
 47 725 l 1
 333 725 l 1
 333 696 l 1
 222 687 l 1
 221 589 221 491 221 389 c 2
 221 288 l 2xd6
 221 102 294 35 413 35 c 0
 552 35 616 111 616 304 c 2
 615 686 l 1
 493 696 l 1
EndSplineSet
Validated: 1
EndChar

StartChar: uni01DC
Encoding: 240 476 240
Width: 648
GlyphClass: 1
Flags: MW
HStem: -14 51<257.5 301> -9 40 0 21G<602 602> 472.5 45.5 473 45 621 92<195.5 220.5 408.5 434> 719 20G<346 346>
VStem: 118 69 161 96<653 681> 374 95<653 681> 456 69<93 93> 457 68
CounterMasks: 2 8520 00c0
LayerCount: 2
Fore
SplineSet
208 621 m 0x94a0
 183 621 161 639 161 667 c 0
 161 695 183 713 208 713 c 0
 233 713 257 695 257 667 c 0
 257 639 233 621 208 621 c 0x94a0
329 725 m 1x9320
 233 817 l 2
 212 834 200 846 200 864 c 0
 200 882 216 893 231 893 c 0
 248 893 261 880 275 851 c 2
 346 739 l 1
 329 725 l 1x9320
421 621 m 0x9540
 396 621 374 639 374 667 c 0
 374 695 396 713 421 713 c 0
 447 713 469 695 469 667 c 0
 469 639 447 621 421 621 c 0x9540
458 -9 m 1x5310
 456 93 l 1
 405 29 340 -14 262 -14 c 0
 168 -14 115 37 116 185 c 2
 119 467 l 1
 34 478 l 1
 34 504 l 1
 181 518 l 1
 191 506 l 1x9310
 187 379 l 1
 187 187 l 2
 187 76 224 37 291 37 c 0
 350 37 407 71 455 128 c 1
 456 469 l 1
 373 477 l 1x8b20
 373 504 l 1
 519 518 l 1
 529 506 l 1
 525 379 l 1
 525 35 l 1
 602 27 l 1x5320
 602 0 l 1x3320
 458 -9 l 1x5310
EndSplineSet
Validated: 33
EndChar

StartChar: uni01F8
Encoding: 241 504 241
Width: 792
GlyphClass: 1
Flags: MW
HStem: -7 21G<618 618 618 654> 0 34.5 691 34 693 32
VStem: 141 38<40 332 40 690> 141 158<0 690> 499 155<-7 725 -7 725> 618 36<-7 686 383 686 -7 686>
CounterMasks: 1 09
LayerCount: 2
Fore
SplineSet
460 799 m 1x69
 447 781 l 1
 401 806 356 831 313 855 c 0
 273 877 259 892 259 908 c 0
 259 924 273 938 291 938 c 0
 306 938 319 928 351 899 c 0
 385 868 423 833 460 799 c 1x69
618 -7 m 1xa9
 176 643 l 1
 179 332 l 1
 179 40 l 1x69
 299 29 l 1
 299 0 l 1x65
 46 0 l 1
 46 29 l 1
 141 40 l 1
 141 690 l 1
 43 696 l 1x59
 43 725 l 1
 209 725 l 1
 620 116 l 1
 618 383 l 1
 618 686 l 1x69
 499 696 l 1
 499 725 l 1x6a
 751 725 l 1
 751 696 l 1
 654 686 l 1
 654 -7 l 1
 618 -7 l 1xa9
EndSplineSet
Validated: 1
EndChar

StartChar: uni01F9
Encoding: 242 505 242
Width: 655
GlyphClass: 1
Flags: MW
HStem: 0 31 0 31.5 458.5 27.5 475 51<370 404> 495 20G<195 195> 503 20G<182 182>
VStem: 131 66.5 131 70<227 285 285 319> 470 69<227 338 227 339 227 389.5>
CounterMasks: 1 0180
LayerCount: 2
Fore
SplineSet
391 620 m 1x5180
 374 606 l 1
 332 647 290 688 249 723 c 0
 220 748 210 763 210 779 c 0
 210 799 225 810 241 810 c 0
 258 810 271 799 292 768 c 0
 323 719 358 669 391 620 c 1x5180
467 0 m 1
 382 0 l 1
 382 27 l 1
 468 36 l 1x5180
 470 227 l 1
 470 339 l 2
 470 440 434 475 374 475 c 0
 331 475 271 455 201 384 c 1
 201 227 l 1
 203 35 l 1
 281 27 l 1x9180
 281 0 l 1
 43 0 l 1
 43 27 l 1
 129 36 l 1
 131 227 l 1
 131 285 l 2
 131 353 130 406 128 456 c 1
 38 461 l 1
 38 486 l 1
 182 523 l 1x6580
 195 515 l 1x4a80
 200 417 l 1
 269 494 337 526 403 526 c 0
 489 526 539 474 539 338 c 2
 539 227 l 1
 541 35 l 1
 620 27 l 1x9280
 620 0 l 1
 467 0 l 1
EndSplineSet
Validated: 1
EndChar

StartChar: uni0251
Encoding: 243 593 243
Width: 600
GlyphClass: 1
Flags: MW
HStem: -14 44<242 297.5> -13 38<531 540> 483 43<252 311.5 219 324.5> 494 20G<504 504> 500 20G<486 486>
VStem: 52 74<174.5 331> 430 70<103 109 109 367>
CounterMasks: 1 06
LayerCount: 2
Fore
SplineSet
264 -14 m 0xa6
 140 -14 52 82 52 244 c 0
 52 418 152 526 286 526 c 0
 337 526 390 503 434 447 c 1xa6
 486 520 l 1x8e
 504 514 l 1
 500 367 l 1
 500 109 l 2
 500 45 516 25 546 25 c 0
 562 25 576 31 591 48 c 1
 605 32 l 1
 583 2 557 -13 523 -13 c 0x56
 474 -13 445 20 435 77 c 1
 389 12 331 -14 264 -14 c 0xa6
430 103 m 1
 430 418 l 1
 388 464 349 483 300 483 c 0
 204 483 126 414 126 249 c 0
 126 100 196 30 288 30 c 0
 343 30 385 51 430 103 c 1
EndSplineSet
Validated: 1
EndChar

StartChar: uni0261
Encoding: 244 609 244
Width: 597
GlyphClass: 1
Flags: MW
HStem: -271 31<244 289 244 298.5> -3 45<242 297> 483 43<252 311.5 219 324.5> 494 20G<504 504> 500 20G<486 486>
VStem: 52 74<181.5 335> 430 70<115 367 86 418 86 418> 435 65
CounterMasks: 1 06
LayerCount: 2
Fore
SplineSet
264 -3 m 0xe6
 140 -3 52 90 52 249 c 0
 52 421 152 526 286 526 c 0
 337 526 391 503 435 445 c 1xe6
 486 520 l 1xce
 504 514 l 1
 500 367 l 1
 500 86 l 1
 504 -85 495 -151 436 -212 c 0xd6
 393 -254 334 -271 263 -271 c 0
 162 -271 89 -227 64 -137 c 1
 70 -117 84 -106 103 -106 c 0
 127 -106 137 -121 148 -157 c 2
 171 -223 l 1
 197 -235 225 -240 263 -240 c 0
 315 -240 362 -220 391 -184 c 0
 422 -145 435 -96 435 17 c 2
 434 87 l 1xe5
 388 23 330 -3 264 -3 c 0xe6
430 115 m 1
 430 418 l 1
 388 464 349 483 300 483 c 0
 204 483 126 417 126 255 c 0
 126 108 196 42 288 42 c 0
 343 42 385 62 430 115 c 1
EndSplineSet
Validated: 33
EndChar

StartChar: caron
Encoding: 245 711 245
Width: 600
GlyphClass: 1
Flags: MW
HStem: 488 334<141 295>
VStem: 117 364<808 810>
LayerCount: 2
Fore
SplineSet
299 585 m 1
 459 822 l 1
 481 810 l 1
 295 488 l 1
 117 808 l 1
 141 822 l 1
 299 585 l 1
EndSplineSet
Validated: 1
EndChar

StartChar: uni02C9
Encoding: 246 713 246
Width: 1000
GlyphClass: 1
Flags: MW
HStem: 651 47<307 665 307 665>
VStem: 307 358<651 698 651 698>
LayerCount: 2
Fore
SplineSet
307 698 m 1
 665 698 l 1
 665 651 l 1
 307 651 l 1
 307 698 l 1
EndSplineSet
Validated: 1
EndChar

StartChar: uni02CA
Encoding: 247 714 247
Width: 600
GlyphClass: 1
Flags: MW
HStem: 532 242
VStem: 96 343
LayerCount: 2
Fore
SplineSet
96 551 m 1
 96 551 314 715 381 764 c 0
 423 795 464 746 422 720 c 0
 377 690 108 532 108 532 c 1
 96 551 l 1
EndSplineSet
Validated: 33
EndChar

StartChar: uni02CB
Encoding: 248 715 248
Width: 600
GlyphClass: 1
Flags: MW
HStem: 531 241
VStem: 102 344
LayerCount: 2
Fore
SplineSet
435 531 m 1
 435 531 164 688 119 717 c 0
 78 744 119 793 162 762 c 0
 227 713 446 548 446 548 c 1
 435 531 l 1
EndSplineSet
Validated: 33
EndChar

StartChar: dotaccent
Encoding: 249 729 249
Width: 500
GlyphClass: 1
Flags: MW
HStem: 298 174<221.5 248 221 275>
VStem: 162 172<382 382>
LayerCount: 2
Fore
SplineSet
248 298 m 0
 195 298 163 339 162 382 c 0
 161 426 194 472 248 472 c 0
 302 471 335 427 334 382 c 0
 335 337 302 298 248 298 c 0
EndSplineSet
Validated: 33
EndChar

StartChar: uni02EA
Encoding: 250 746 250
Width: 600
GlyphClass: 1
Flags: MW
HStem: 517 25
VStem: 163 45<541 821 541 821 541 821>
LayerCount: 2
Fore
SplineSet
163 821 m 1
 208 821 l 1
 208 541 l 1
 494 543 l 1
 494 517 l 1
 163 494 l 1
 163 821 l 1
EndSplineSet
Validated: 1
EndChar

StartChar: uni02EB
Encoding: 251 747 251
Width: 600
GlyphClass: 1
Flags: MW
HStem: 643 36
VStem: 171 45<489 637 683 820>
LayerCount: 2
Fore
SplineSet
216 489 m 1
 171 489 l 1
 171 820 l 1
 216 820 l 1
 216 683 l 1
 491 675 l 1
 491 649 l 1
 216 637 l 1
 216 489 l 1
EndSplineSet
Validated: 1
EndChar

StartChar: gravecomb
Encoding: 252 768 252
Width: 0
GlyphClass: 4
Flags: MW
HStem: 531 241
VStem: 102 344
LayerCount: 2
Fore
SplineSet
435 531 m 1
 435 531 164 688 119 717 c 0
 78 744 119 793 162 762 c 0
 227 713 446 548 446 548 c 1
 435 531 l 1
EndSplineSet
Validated: 33
EndChar

StartChar: acutecomb
Encoding: 253 769 253
Width: 0
GlyphClass: 4
Flags: MW
HStem: 532 242
VStem: 96 343
LayerCount: 2
Fore
SplineSet
96 551 m 1
 96 551 314 715 381 764 c 0
 423 795 464 746 422 720 c 0
 377 690 108 532 108 532 c 1
 96 551 l 1
EndSplineSet
Validated: 33
EndChar

StartChar: uni0304
Encoding: 254 772 254
Width: 0
GlyphClass: 1
Flags: MW
HStem: 666 46<-132 132 -132 132>
VStem: -132 264<666 712 666 712>
LayerCount: 2
Fore
SplineSet
-132 666 m 1
 -132 712 l 1
 132 712 l 1
 132 666 l 1
 -132 666 l 1
EndSplineSet
Validated: 1
EndChar

StartChar: uni0307
Encoding: 255 775 255
Width: 0
GlyphClass: 4
Flags: MW
HStem: 667 174<221.5 275>
VStem: 162 172<751 751>
LayerCount: 2
Fore
SplineSet
248 667 m 0
 195 667 163 708 162 751 c 0
 161 795 194 841 248 841 c 0
 302 841 335 797 334 751 c 0
 335 706 302 667 248 667 c 0
EndSplineSet
Validated: 33
EndChar

StartChar: uni030C
Encoding: 256 780 256
Width: 0
GlyphClass: 4
Flags: MW
HStem: 488 334<341 495>
VStem: 317 364<808 810>
LayerCount: 2
Fore
SplineSet
499 585 m 1
 659 822 l 1
 681 810 l 1
 495 488 l 1
 317 808 l 1
 341 822 l 1
 499 585 l 1
EndSplineSet
Validated: 1
EndChar

StartChar: Alpha
Encoding: 257 913 257
Width: 712
GlyphClass: 1
Flags: MW
HStem: 0 34 251 31<216 453 216 463 206 453> 712 20G<328 376 376 376>
VStem: 11 695<0 29 29 29>
CounterMasks: 1 c0
LayerCount: 2
Fore
SplineSet
333 647 m 1
 216 282 l 1
 453 282 l 1
 333 647 l 1
420 0 m 1
 420 30 l 1
 532 38 l 1
 463 251 l 1
 206 251 l 1
 138 39 l 1
 235 29 l 1
 235 0 l 1
 11 0 l 1
 11 29 l 1
 98 39 l 1
 328 732 l 1
 376 732 l 1
 610 37 l 1
 706 30 l 1
 706 0 l 1
 420 0 l 1
EndSplineSet
Validated: 1
EndChar

StartChar: Beta
Encoding: 258 914 258
Width: 662
GlyphClass: 1
Flags: MW
HStem: 0 32<239 333 333 341> 0 34 362 31<237 302 237 302 302 313> 692 33
VStem: 161 76<337 362 298.5 392 393 441> 503 74<514 597> 538 77<144 243.5 144 250>
CounterMasks: 2 7a 0c
LayerCount: 2
Fore
SplineSet
55 696 m 1x7a
 55 725 l 1
 341 725 l 2
 502 725 577 656 577 553 c 0xbc
 577 475 525 405 400 381 c 1
 552 365 615 291 615 196 c 0
 615 92 537 0 341 0 c 2
 55 0 l 1xba
 55 29 l 1
 160 38 l 1
 161 137 161 236 161 337 c 2
 161 392 l 2
 161 490 161 590 160 687 c 1
 55 696 l 1x7a
237 362 m 1
 237 235 237 132 239 32 c 1
 333 32 l 2
 463 32 538 90 538 196 c 0xba
 538 304 469 362 313 362 c 2
 237 362 l 1
239 693 m 1
 237 596 237 497 237 393 c 1
 302 393 l 2
 436 393 503 452 503 553 c 0
 503 641 452 693 319 693 c 2
 239 693 l 1
EndSplineSet
Validated: 1
EndChar

StartChar: Gamma
Encoding: 259 915 259
Width: 607
GlyphClass: 1
Flags: MW
HStem: 0 33.5 0 34 536 189<530 563 55 571 530 530> 691 34<239 504 239 239> 691.5 33.5
VStem: 161 77<333 390 284 440>
LayerCount: 2
Fore
SplineSet
55 696 m 1x8c
 55 725 l 1
 563 725 l 1x54
 571 536 l 1
 530 536 l 1x64
 504 691 l 1
 239 691 l 1
 238 593 238 491 238 390 c 2
 238 333 l 2
 238 235 238 137 239 39 c 1
 354 29 l 1
 354 0 l 1
 55 0 l 1x54
 55 29 l 1
 160 38 l 1
 161 136 161 235 161 333 c 2
 161 390 l 2
 161 490 161 590 160 687 c 1
 55 696 l 1x8c
EndSplineSet
Validated: 1
EndChar

StartChar: uni0394
Encoding: 260 916 260
Width: 685
GlyphClass: 1
Flags: MW
HStem: 0 58<47 545 47 545 95 545 95 631> 653 79<318 318>
VStem: 47 584<0 36 0 36>
LayerCount: 2
Fore
SplineSet
318 653 m 1
 95 58 l 1
 545 58 l 1
 318 653 l 1
63 0 m 1
 47 0 l 1
 47 36 l 1
 314 732 l 1
 363 732 l 1
 631 36 l 1
 631 0 l 1
 63 0 l 1
EndSplineSet
Validated: 1
EndChar

StartChar: Epsilon
Encoding: 261 917 261
Width: 649
GlyphClass: 1
Flags: MW
HStem: 0 34<239 538 239 597> 0 179<564 597> 351 34<238 420 238 421 238 420> 548 177<547 547 547 580 55 588> 691 34<239 522 239 239>
VStem: 161 77<335 351 385 390 390 439.5> 427 39
CounterMasks: 1 ae
LayerCount: 2
Fore
SplineSet
547 548 m 1xb6
 522 691 l 1
 239 691 l 1
 238 595 238 494 238 385 c 1
 420 385 l 1
 433 489 l 1
 466 489 l 1
 466 249 l 1
 433 249 l 1
 421 351 l 1
 238 351 l 1
 238 232 238 132 239 34 c 1
 538 34 l 1xae
 564 179 l 1
 605 179 l 1x6e
 597 0 l 1
 55 0 l 1
 55 29 l 1
 160 38 l 1
 161 136 161 235 161 335 c 2
 161 390 l 2
 161 490 161 590 160 687 c 1
 55 696 l 1
 55 725 l 1
 580 725 l 1xae
 588 548 l 1
 547 548 l 1xb6
EndSplineSet
Validated: 1
EndChar

StartChar: Zeta
Encoding: 262 918 262
Width: 600
GlyphClass: 1
Flags: MW
HStem: 0 34<114 500 114 562> 0 189<531 562> 539 186<51 84 42 552> 691 34<112 468 112 112>
VStem: 28 544<0 189 31 189>
LayerCount: 2
Fore
SplineSet
28 0 m 1x98
 28 31 l 1
 468 691 l 1
 112 691 l 1x98
 84 539 l 1
 42 539 l 1xa8
 51 725 l 1
 552 725 l 1
 552 694 l 1
 114 34 l 1
 500 34 l 1x98
 531 189 l 1
 572 189 l 1x58
 562 0 l 1
 28 0 l 1x98
EndSplineSet
Validated: 1
EndChar

StartChar: Eta
Encoding: 263 919 263
Width: 851
GlyphClass: 1
Flags: MW
HStem: 0 34 361 33<238 614 238 614> 692 33
VStem: 161 77<335 361 298 390 394 440> 614 76<298 335 335 361 285 443.5>
CounterMasks: 1 f8
LayerCount: 2
Fore
SplineSet
507 696 m 1
 507 725 l 1
 796 725 l 1
 796 696 l 1
 691 687 l 1
 690 590 690 490 690 390 c 2
 690 335 l 2
 690 235 690 137 691 38 c 1
 796 29 l 1
 796 0 l 1
 507 0 l 1
 507 29 l 1
 612 38 l 1
 614 135 614 235 614 361 c 1
 238 361 l 1
 238 235 238 135 239 38 c 1
 344 29 l 1
 344 0 l 1
 55 0 l 1
 55 29 l 1
 160 38 l 1
 161 136 161 235 161 335 c 2
 161 390 l 2
 161 490 161 590 160 687 c 1
 55 696 l 1
 55 725 l 1
 344 725 l 1
 344 696 l 1
 239 688 l 1
 238 592 238 493 238 394 c 1
 614 394 l 1
 614 493 614 591 612 688 c 1
 507 696 l 1
EndSplineSet
Validated: 1
EndChar

StartChar: Theta
Encoding: 264 920 264
Width: 765
GlyphClass: 1
Flags: MW
HStem: -15 34<300.5 466 300.5 475.5> 343 37<275 490 275 490> 706 36<300.5 466>
VStem: 58 81<271 454 271 480> 230 33<258 464> 502 33<258 464 258 464> 627 80<271 454>
CounterMasks: 1 fe
LayerCount: 2
Fore
SplineSet
383 -15 m 0
 199 -15 58 125 58 362 c 0
 58 598 199 742 383 742 c 0
 568 742 707 601 707 362 c 0
 707 128 568 -15 383 -15 c 0
383 19 m 0
 549 19 627 180 627 362 c 0
 627 546 549 706 383 706 c 0
 218 706 139 546 139 362 c 0
 139 180 218 19 383 19 c 0
502 258 m 1
 490 343 l 1
 275 343 l 1
 263 258 l 1
 230 258 l 1
 230 464 l 1
 263 464 l 1
 275 380 l 1
 490 380 l 1
 502 464 l 1
 535 464 l 1
 535 258 l 1
 502 258 l 1
EndSplineSet
Validated: 1
EndChar

StartChar: Iota
Encoding: 265 921 265
Width: 400
GlyphClass: 1
Flags: MW
HStem: 0 33.5 691.5 33.5
VStem: 161 77<335 390 285 440>
LayerCount: 2
Fore
SplineSet
55 696 m 1
 55 725 l 1
 345 725 l 1
 345 696 l 1
 239 687 l 1
 238 590 238 490 238 390 c 2
 238 335 l 2
 238 235 238 137 239 38 c 1
 345 29 l 1
 345 0 l 1
 55 0 l 1
 55 29 l 1
 160 38 l 1
 161 136 161 235 161 335 c 2
 161 390 l 2
 161 490 161 590 160 687 c 1
 55 696 l 1
EndSplineSet
Validated: 1
EndChar

StartChar: Kappa
Encoding: 266 922 266
Width: 724
GlyphClass: 1
Flags: MW
HStem: 0 33.5 0 34 690.5 34.5 691 34 691.5 33.5
VStem: 161 74<335 390>
LayerCount: 2
Fore
SplineSet
576 0 m 1x8c
 460 0 l 1
 460 29 l 1
 555 38 l 1x8c
 356 389 l 1
 235 244 l 1
 236 39 l 1
 343 29 l 1x4c
 343 0 l 1
 55 0 l 1
 55 29 l 1
 160 38 l 1
 161 136 161 235 161 335 c 2
 161 390 l 2
 161 490 161 590 160 687 c 1
 55 696 l 1
 55 725 l 1
 344 725 l 1
 344 696 l 1
 236 687 l 1x8c
 235 590 235 490 235 390 c 2
 235 291 l 1
 559 685 l 1
 451 696 l 1xa4
 451 725 l 1
 697 725 l 1x8c
 697 696 l 1
 605 686 l 1x94
 404 446 l 1
 637 38 l 1
 725 29 l 1
 725 0 l 1
 576 0 l 1x8c
EndSplineSet
Validated: 1
EndChar

StartChar: Lambda
Encoding: 267 923 267
Width: 712
GlyphClass: 1
Flags: MW
HStem: 0 33.5 0 34 712 20G<328 376 376 376>
VStem: 11 695<0 29 29 29>
LayerCount: 2
Fore
SplineSet
420 0 m 1x70
 420 30 l 1
 532 38 l 1
 333 648 l 1
 138 39 l 1
 236 29 l 1
 236 0 l 1
 11 0 l 1
 11 29 l 1
 99 39 l 1x70
 328 732 l 1
 376 732 l 1
 610 37 l 1
 706 30 l 1xb0
 706 0 l 1
 420 0 l 1x70
EndSplineSet
Validated: 1
EndChar

StartChar: Mu
Encoding: 268 924 268
Width: 970
GlyphClass: 1
Flags: MW
HStem: 0 33.5 0 34.5 691.5 33.5
VStem: 142 38<40 393> 142.5 141.5 733 76<285 325>
CounterMasks: 1 14
LayerCount: 2
Fore
SplineSet
731 0 m 1xb4
 628 0 l 1
 628 29 l 1
 732 38 l 1
 733 136 733 234 733 325 c 2
 736 651 l 1
 474 0 l 1
 444 0 l 1xb4
 175 653 l 1
 180 393 l 1
 180 40 l 1x74
 284 29 l 1x6c
 284 0 l 1
 43 0 l 1xac
 43 29 l 1
 142 40 l 1x74
 143 687 l 1
 43 696 l 1
 43 725 l 1
 222 725 l 1
 477 102 l 1
 728 725 l 1
 915 725 l 1
 915 696 l 1
 810 687 l 1
 809 590 809 490 809 390 c 2
 809 335 l 2
 809 235 809 136 810 38 c 1
 917 29 l 1
 917 0 l 1
 731 0 l 1xb4
EndSplineSet
Validated: 1
EndChar

StartChar: Nu
Encoding: 269 925 269
Width: 792
GlyphClass: 1
Flags: MW
HStem: -7 21G<618 618 618 654> 0 34.5 691 34 693 32
VStem: 141 38<40 332 40 690> 141 158<0 690> 499 155<-7 725 -7 725> 618 36<-7 686 383 686 -7 686>
CounterMasks: 1 09
LayerCount: 2
Fore
SplineSet
618 -7 m 1xa9
 176 643 l 1
 179 332 l 1
 179 40 l 1x69
 299 29 l 1
 299 0 l 1x65
 46 0 l 1
 46 29 l 1
 141 40 l 1
 141 690 l 1
 43 696 l 1x59
 43 725 l 1
 209 725 l 1
 620 116 l 1
 618 383 l 1
 618 686 l 1x69
 499 696 l 1
 499 725 l 1x6a
 751 725 l 1
 751 696 l 1
 654 686 l 1
 654 -7 l 1
 618 -7 l 1xa9
EndSplineSet
Validated: 1
EndChar

StartChar: Xi
Encoding: 270 926 270
Width: 636
GlyphClass: 1
Flags: MW
HStem: 0 59<53 531 105 531 105 583> 0 183<53 53 53 85 553 583> 347 41<196 440 196 440> 545 180<56 571 66 95 542 542 542 571 66 579> 667 58<114 522 114 114>
VStem: 48.5 56.5 61 53 148 42 446 42 522 53 531 56.5
CounterMasks: 1 7180
LayerCount: 2
Fore
SplineSet
53 0 m 1xada0
 44 183 l 1
 85 183 l 1x6da0
 105 59 l 1
 531 59 l 1xada0
 553 183 l 1
 592 183 l 1x6da0
 583 0 l 1
 53 0 l 1xada0
56 545 m 1xb3a0
 66 725 l 1
 571 725 l 1xabc0
 579 545 l 1
 542 545 l 1xb5c0
 522 667 l 1
 114 667 l 1xabc0
 95 545 l 1
 56 545 l 1xb3a0
452 251 m 1
 440 347 l 1
 196 347 l 1
 184 251 l 1
 148 251 l 1
 148 483 l 1
 184 483 l 1
 196 388 l 1
 440 388 l 1
 452 483 l 1
 488 483 l 1
 488 251 l 1
 452 251 l 1
EndSplineSet
Validated: 1
EndChar

StartChar: Omicron
Encoding: 271 927 271
Width: 762
GlyphClass: 1
Flags: MW
HStem: -15 33<302.5 459.5 302.5 469> 706 36<302.5 459.5>
VStem: 58 82<269 455 269 479.5> 621 83<269 455>
CounterMasks: 1 30
LayerCount: 2
Fore
SplineSet
381 -15 m 0
 205 -15 58 125 58 362 c 0
 58 597 205 742 381 742 c 0
 557 742 704 600 704 362 c 0
 704 128 557 -15 381 -15 c 0
381 18 m 0
 538 18 621 176 621 362 c 0
 621 548 538 706 381 706 c 0
 224 706 140 548 140 362 c 0
 140 176 224 18 381 18 c 0
EndSplineSet
Validated: 1
EndChar

StartChar: Pi
Encoding: 272 928 272
Width: 835
GlyphClass: 1
Flags: MW
HStem: 0 33.5 691 34<239 595 239 239> 691.5 33.5
VStem: 161 77<342 390 286.5 440> 597 76<342 390 287 440.5>
CounterMasks: 1 18
LayerCount: 2
Fore
SplineSet
55 696 m 1xb8
 55 725 l 1
 780 725 l 1xd8
 780 696 l 1
 674 687 l 1xb8
 673 590 673 490 673 390 c 2
 673 342 l 2
 673 232 673 136 674 38 c 1
 780 29 l 1
 780 0 l 1
 490 0 l 1
 490 29 l 1
 595 38 l 1
 597 135 597 231 597 342 c 2
 597 390 l 2
 597 491 597 592 595 691 c 1
 239 691 l 1xd8
 238 593 238 491 238 390 c 2
 238 342 l 2
 238 231 238 136 239 38 c 1
 344 29 l 1
 344 0 l 1
 55 0 l 1
 55 29 l 1
 160 38 l 1
 161 135 161 231 161 342 c 2
 161 390 l 2
 161 490 161 590 160 687 c 1
 55 696 l 1xb8
EndSplineSet
Validated: 1
EndChar

StartChar: Rho
Encoding: 273 929 273
Width: 634
GlyphClass: 1
Flags: MW
HStem: 0 33.5 0 34 298 32<238 299 299 301 238 299> 691.5 33.5 693 32<239 327 239 239>
VStem: 161 77<335 390> 520 75<460.5 573>
CounterMasks: 1 06
LayerCount: 2
Fore
SplineSet
55 696 m 1xb6
 55 725 l 1
 335 725 l 2
 511 725 595 644 595 515 c 0
 595 392 507 298 301 298 c 2
 238 298 l 1
 239 39 l 1
 354 29 l 1
 354 0 l 1
 55 0 l 1x6e
 55 29 l 1
 160 38 l 1
 161 136 161 235 161 335 c 2
 161 390 l 2
 161 490 161 590 160 687 c 1
 55 696 l 1xb6
238 330 m 1
 299 330 l 2
 457 330 520 406 520 515 c 0
 520 631 460 693 327 693 c 2
 239 693 l 1
 238 594 238 492 238 390 c 2
 238 330 l 1
EndSplineSet
Validated: 1
EndChar

StartChar: Sigma
Encoding: 274 931 274
Width: 603
GlyphClass: 1
Flags: MW
HStem: 0 64<31 505 94 505 94 564> 539 186<506 542 45 547 506 506> 691 34<125 478 125 125>
VStem: 478 66.5 505 63 506 38.5
LayerCount: 2
Fore
SplineSet
31 0 m 1xa4
 31 44 l 1
 286 359 l 1
 45 693 l 1
 45 725 l 1
 542 725 l 1xa4
 547 539 l 1
 506 539 l 1xc4
 478 691 l 1xb0
 125 691 l 1
 347 378 l 1
 213 210 l 1
 94 64 l 1
 505 64 l 1
 531 210 l 1
 572 210 l 1
 564 0 l 1xa8
 31 0 l 1xa4
EndSplineSet
Validated: 1
EndChar

StartChar: Tau
Encoding: 275 932 275
Width: 652
GlyphClass: 1
Flags: MW
HStem: 0 34 539 186<22 621 31 62 590 590 590 621 31 630> 691 34<89 286 89 89 365 563 365 365>
VStem: 288 76<335 390 285 440.5>
LayerCount: 2
Fore
SplineSet
22 539 m 1xd0
 31 725 l 1
 621 725 l 1xb0
 630 539 l 1
 590 539 l 1xd0
 563 691 l 1
 365 691 l 1
 364 593 364 491 364 390 c 2
 364 335 l 2
 364 235 364 137 365 39 c 1
 482 29 l 1
 482 0 l 1
 170 0 l 1
 170 29 l 1
 286 39 l 1
 288 136 288 235 288 335 c 2
 288 390 l 2
 288 491 288 592 286 691 c 1
 89 691 l 1xb0
 62 539 l 1
 22 539 l 1xd0
EndSplineSet
Validated: 1
EndChar

StartChar: Upsilon
Encoding: 276 933 276
Width: 684
GlyphClass: 1
Flags: MW
HStem: 0 34 691 34 691.5 33.5 692.5 32.5
VStem: 305 75<229.5 288>
LayerCount: 2
Fore
SplineSet
426 696 m 1xc8
 426 725 l 1
 666 725 l 1
 666 696 l 1
 575 686 l 1xc8
 380 292 l 1
 380 167 380 112 382 39 c 1
 500 29 l 1
 500 0 l 1
 186 0 l 1
 186 29 l 1
 303 39 l 1
 305 111 305 166 305 288 c 1
 105 689 l 1
 29 696 l 1x98
 29 725 l 1
 301 725 l 1xc8
 301 696 l 1
 190 687 l 1xa8
 363 330 l 1
 534 686 l 1
 426 696 l 1xc8
EndSplineSet
Validated: 1
EndChar

StartChar: Phi
Encoding: 277 934 277
Width: 778
GlyphClass: 1
Flags: MW
HStem: 0 34 130 33<354 355> 591 32<354 354> 702 33
VStem: 49 75<312 445 312 451> 355 68<163 395 338 393 393 393> 654 73<312.5 444.5>
CounterMasks: 1 fe
LayerCount: 2
Fore
SplineSet
245 0 m 1
 245 29 l 1
 353 39 l 1
 354 130 l 1
 147 132 49 238 49 377 c 0
 49 525 155 622 354 623 c 1
 353 697 l 1
 245 707 l 1
 245 735 l 1
 533 735 l 1
 533 707 l 1
 425 697 l 1
 424 623 l 1
 625 621 727 524 727 377 c 0
 727 238 631 132 424 130 c 1
 425 39 l 1
 533 29 l 1
 533 0 l 1
 245 0 l 1
355 163 m 1
 355 338 l 1
 355 393 l 1
 354 591 l 1
 205 589 124 513 124 377 c 0
 124 247 207 165 355 163 c 1
424 591 m 1
 423 395 l 1
 423 338 l 1
 424 163 l 1
 569 165 654 248 654 377 c 0
 654 512 572 589 424 591 c 1
EndSplineSet
Validated: 1
EndChar

StartChar: Chi
Encoding: 278 935 278
Width: 695
GlyphClass: 1
Flags: MW
HStem: 0 33.5 0 34 0 34.5 691 34 691.5 33.5 692 33
VStem: 16 662<0 29 0 29>
LayerCount: 2
Fore
SplineSet
419 696 m 1x92
 419 725 l 1
 662 725 l 1
 662 696 l 1
 567 686 l 1
 378 388 l 1
 586 38 l 1
 678 29 l 1
 678 0 l 1
 398 0 l 1
 398 29 l 1
 503 38 l 1x92
 331 327 l 1
 154 40 l 1
 260 29 l 1x32
 260 0 l 1
 16 0 l 1x92
 16 29 l 1
 110 39 l 1
 314 356 l 1
 116 688 l 1
 28 696 l 1x46
 28 725 l 1
 307 725 l 1x92
 307 696 l 1
 200 687 l 1x8a
 361 416 l 1
 524 686 l 1
 419 696 l 1x92
EndSplineSet
Validated: 1
EndChar

StartChar: Psi
Encoding: 279 936 279
Width: 810
GlyphClass: 1
Flags: MW
HStem: 0 33.5 0 34 265 33<369 369 441 441> 691.5 33.5 692 33 695 30
VStem: 369 72<226 265 298 323 323 378>
LayerCount: 2
Fore
SplineSet
270 696 m 1xb2
 270 725 l 1
 540 725 l 1
 540 696 l 1
 442 688 l 1
 441 588 441 478 441 378 c 2
 441 323 l 1
 441 298 l 1
 579 307 618 371 638 532 c 2
 647 607 l 2
 658 692 690 725 776 725 c 2
 816 725 l 1xaa
 816 696 l 1
 791 694 l 2
 744 689 725 670 719 626 c 2
 707 535 l 2
 683 349 625 273 441 265 c 1
 442 38 l 1
 550 29 l 1
 550 0 l 1
 260 0 l 1xa6
 260 29 l 1
 367 39 l 1
 369 115 369 187 369 265 c 1
 185 273 127 349 102 535 c 2
 90 626 l 2
 84 670 65 689 18 694 c 2
 -6 696 l 1x66
 -6 725 l 1
 33 725 l 2xaa
 121 725 152 690 162 611 c 2
 171 532 l 2
 191 371 230 307 369 298 c 1
 369 323 l 1
 369 378 l 2
 369 477 369 587 367 687 c 1
 270 696 l 1xb2
EndSplineSet
Validated: 1
EndChar

StartChar: uni03A9
Encoding: 280 937 280
Width: 762
GlyphClass: 1
Flags: MW
HStem: 0 58<54 286 104 286 104 319 475 658> 0 178<54 54 54 73 34 319 689 708> 706 36<315 448>
VStem: 58 82<345 517 345 528.5> 287 35 440 34 623 81<349.5 515.5>
CounterMasks: 2 12 0c
LayerCount: 2
Fore
SplineSet
54 0 m 1xbe
 34 178 l 1
 73 178 l 1x7e
 104 58 l 1
 286 58 l 1
 288 103 l 1
 154 156 58 261 58 416 c 0
 58 641 220 742 381 742 c 0
 543 742 704 639 704 420 c 0
 704 279 619 168 473 103 c 1
 475 58 l 1
 658 58 l 1xbe
 689 178 l 1
 727 178 l 1x7e
 708 0 l 1
 444 0 l 1
 437 121 l 1
 564 184 623 278 623 420 c 0
 623 611 515 706 381 706 c 0
 249 706 140 614 140 420 c 0
 140 270 202 183 325 121 c 1
 319 0 l 1
 54 0 l 1xbe
EndSplineSet
Validated: 1
EndChar

StartChar: alpha
Encoding: 281 945 281
Width: 605
GlyphClass: 1
Flags: MW
HStem: -14 39<224 288.5> 488 38<235 305 214 307> 494 20G<515 515>
VStem: 48 72<180.5 338.5 180.5 341.5> 421 56 426 51
CounterMasks: 1 18
LayerCount: 2
Fore
SplineSet
257 -14 m 0xd8
 137 -14 48 82 48 249 c 0
 48 434 159 526 269 526 c 0xd8
 341 526 399 492 433 413 c 1
 443 507 l 1
 505 522 l 1
 515 514 l 1xb8
 496 379 477 199 477 125 c 0
 477 56 495 36 528 36 c 0
 546 36 557 41 571 49 c 1
 582 32 l 1
 566 5 539 -14 504 -14 c 0
 455 -14 429 15 421 99 c 1
 385 18 320 -14 257 -14 c 0xd8
429 345 m 1xd4
 400 452 338 488 276 488 c 0
 194 488 120 422 120 255 c 0
 120 106 177 25 271 25 c 0
 337 25 414 80 423 210 c 2
 429 345 l 1xd4
EndSplineSet
Validated: 1
EndChar

StartChar: beta
Encoding: 282 946 282
Width: 606
GlyphClass: 1
Flags: MW
HStem: -20 52<303.5 370 293.5 391.5> 770 32<274 357.5>
VStem: 108 66<85 85 85 524 524 560> 448 63<579.5 624> 487 67<152.5 262.5>
CounterMasks: 2 e8 30
LayerCount: 2
Fore
SplineSet
100 -198 m 1xe8
 108 9 l 1
 108 524 l 2
 108 705 191 802 327 802 c 0
 440 802 511 737 511 623 c 0xf0
 511 536 457 452 332 417 c 1
 481 404 554 324 554 202 c 0
 554 61 447 -20 336 -20 c 0
 271 -20 212 4 170 55 c 1
 180 -189 l 1
 112 -205 l 1
 100 -198 l 1xe8
174 85 m 1
 219 50 266 32 321 32 c 0
 419 32 487 99 487 206 c 0xe8
 487 319 436 400 261 388 c 1
 252 427 l 1
 398 464 448 523 448 624 c 0
 447 721 396 770 319 770 c 0
 229 770 174 699 174 560 c 2
 174 85 l 1
EndSplineSet
Validated: 33
EndChar

StartChar: gamma
Encoding: 283 947 283
Width: 532
GlyphClass: 1
Flags: MW
HStem: 470 51<60 60.5> 506 20G<430.5 452>
VStem: 231.5 62.5 401 77<449.5 477.5 415.5 484.5>
LayerCount: 2
Fore
SplineSet
223 -199 m 1xb0
 240 6 l 1
 201 155 160 266 128 355 c 0
 91 453 79 470 42 470 c 0
 30 470 19 468 8 463 c 1
 0 483 l 1
 19 506 44 521 76 521 c 0xb0
 122 521 152 496 191 375 c 0
 217 298 251 193 283 56 c 1
 341 166 380 245 413 353 c 1
 404 414 401 437 401 462 c 0
 401 507 417 526 444 526 c 0
 460 526 467 521 475 513 c 1
 477 499 478 486 478 469 c 0x70
 478 362 386 177 292 15 c 1
 296 -190 l 1
 232 -206 l 1
 223 -199 l 1xb0
EndSplineSet
Validated: 1
EndChar

StartChar: delta
Encoding: 284 948 284
Width: 559
GlyphClass: 1
Flags: MW
HStem: -14 30<226 325 226 336> 776 26<255 303>
VStem: 40 70<156 275 156 281.5> 107 52<648.5 699.5> 437 67<155 271>
CounterMasks: 1 e8
LayerCount: 2
Fore
SplineSet
266 -14 m 0xe8
 132 -14 40 79 40 212 c 0xe8
 40 351 129 439 253 473 c 1
 138 546 107 591 107 655 c 0
 107 744 182 802 295 802 c 0
 377 802 449 773 487 724 c 1
 487 700 471 683 448 683 c 0
 429 683 410 695 388 719 c 2
 337 772 l 1
 324 775 310 776 296 776 c 0
 214 776 159 737 159 674 c 0xd8
 159 623 185 589 321 501 c 0
 455 414 504 341 504 226 c 0
 504 84 406 -14 266 -14 c 0xe8
282 455 m 1
 154 413 110 328 110 222 c 0
 110 90 179 16 273 16 c 0
 377 16 437 95 437 214 c 0
 437 328 377 397 282 455 c 1
EndSplineSet
Validated: 1
EndChar

StartChar: epsilon
Encoding: 285 949 285
Width: 491
GlyphClass: 1
Flags: MW
HStem: -14 51<215.5 289> 246 46<230 294 230 301.5> 498 28<226 271>
VStem: 50 71<107 160> 70 64<362.5 424.5 362.5 425>
CounterMasks: 1 e0
LayerCount: 2
Fore
SplineSet
242 -14 m 0xf0
 126 -14 50 40 50 126 c 0xf0
 50 194 98 250 212 265 c 1
 114 280 70 328 70 388 c 0
 70 462 134 526 266 526 c 0
 334 526 405 510 439 470 c 1
 442 444 425 427 403 427 c 0
 382 427 369 433 345 455 c 2
 301 496 l 1
 271 498 l 1
 181 498 134 456 134 393 c 0xe8
 134 332 174 292 286 292 c 0
 302 292 317 292 341 294 c 1
 341 245 l 1
 316 246 307 246 296 246 c 0
 162 246 121 197 121 140 c 0
 121 74 168 37 263 37 c 0
 328 37 389 57 441 92 c 1
 455 75 l 1
 410 22 336 -14 242 -14 c 0xf0
EndSplineSet
Validated: 33
EndChar

StartChar: zeta
Encoding: 286 950 286
Width: 450
GlyphClass: 1
Flags: MW
HStem: 742.5 55
VStem: 49 65<171 251> 368 55<-101.5 -77>
LayerCount: 2
Fore
SplineSet
333 -221 m 1
 356 -171 368 -132 368 -99 c 0
 368 -55 355 -19 250 4 c 0
 97 42 49 104 49 196 c 0
 49 306 129 449 388 743 c 1
 85 742 l 1
 85 804 l 1
 438 791 l 1
 438 754 l 1
 191 455 114 329 114 208 c 0
 114 134 157 93 276 64 c 0
 398 34 423 -14 423 -79 c 0
 423 -124 404 -166 368 -221 c 1
 333 -221 l 1
EndSplineSet
Validated: 1
EndChar

StartChar: eta
Encoding: 287 951 287
Width: 591
GlyphClass: 1
Flags: MW
HStem: -3 21G<110 110> 0 21G<184 184> 469 57<336 372.5> 473 50<84.5 89>
VStem: 121 59<361 429> 121 61 448.5 60
CounterMasks: 1 06
LayerCount: 2
Fore
SplineSet
436 -200 m 1x66
 445 -24 l 1
 452 330 l 2
 454 429 407 469 338 469 c 0
 283 469 217 433 180 361 c 1
 184 0 l 1x66
 119 -10 l 1
 110 -3 l 1
 119 169 l 1
 121 402 l 2
 121 456 107 473 71 473 c 0
 60 473 50 472 38 470 c 1
 31 488 l 1x96
 44 506 68 523 101 523 c 0x5a
 148 523 177 497 180 396 c 1x6a
 220 484 308 526 364 526 c 0
 439 526 505 480 506 343 c 2
 511 -190 l 1
 445 -206 l 1
 436 -200 l 1x66
EndSplineSet
Validated: 33
EndChar

